<?xml version="1.0" encoding="UTF-8"?><svg id="uuid-0dcd9364-234a-485f-942e-c19d459c5745" xmlns="http://www.w3.org/2000/svg" xmlns:xlink="http://www.w3.org/1999/xlink" viewBox="0 0 845.9 652.4"><defs><linearGradient id="uuid-24f47ac8-b5a7-467b-befd-0ad7fdd733e3" x1="177.3" y1="340.9" x2="177.3" y2="652.4" gradientUnits="userSpaceOnUse"><stop offset="0" stop-color="#1a2e36"/><stop offset="1" stop-color="#364f55"/></linearGradient><linearGradient id="uuid-9ee73e29-d173-4f8d-866a-5fd872840078" x1="72.4" y1="475.1" x2="72.4" y2="581.5" xlink:href="#uuid-24f47ac8-b5a7-467b-befd-0ad7fdd733e3"/><linearGradient id="uuid-9bd17703-a8c3-4c10-9f57-95431e51662d" x1="257.6" y1="270.6" x2="257.6" y2="448.5" xlink:href="#uuid-24f47ac8-b5a7-467b-befd-0ad7fdd733e3"/><linearGradient id="uuid-dba1ba88-dfd5-4bcf-a157-2d1e8885fe7f" x1="300.3" y1="412.2" x2="300.3" y2="511.1" gradientUnits="userSpaceOnUse"><stop offset="0" stop-color="#1a2e36"/><stop offset="1" stop-color="#728488"/></linearGradient><linearGradient id="uuid-dbb998dd-eebe-4fb3-acf1-a4f00d950d6a" x1="393.3" y1="413.3" x2="393.3" y2="509.8" xlink:href="#uuid-dba1ba88-dfd5-4bcf-a157-2d1e8885fe7f"/><linearGradient id="uuid-5f80c3fd-8abf-42af-893e-dc1cec078673" x1="487.6" y1="412.2" x2="487.6" y2="511.1" xlink:href="#uuid-dba1ba88-dfd5-4bcf-a157-2d1e8885fe7f"/><linearGradient id="uuid-45daa283-2ba9-4d1a-9b10-4372e637760e" x1="580.8" y1="413.3" x2="580.8" y2="509.8" xlink:href="#uuid-dba1ba88-dfd5-4bcf-a157-2d1e8885fe7f"/><linearGradient id="uuid-fb88e3f2-175e-42c9-b64d-76af5cf7888f" x1="669.4" y1="412.2" x2="669.4" y2="511.1" xlink:href="#uuid-dba1ba88-dfd5-4bcf-a157-2d1e8885fe7f"/><linearGradient id="uuid-ebf5ca17-497d-4b78-a1d4-9e7c5160c469" x1="762" x2="762" xlink:href="#uuid-dba1ba88-dfd5-4bcf-a157-2d1e8885fe7f"/><linearGradient id="uuid-9dc519ee-cdfc-4d5c-bc92-a07251b8671c" x1="830.8" y1="375.7" x2="830.8" y2="509.8" xlink:href="#uuid-dba1ba88-dfd5-4bcf-a157-2d1e8885fe7f"/></defs><polygon points="3.9 340.9 102 340.9 259 534.6 350.7 533.7 259 652.4 3.9 340.9" fill="url(#uuid-24f47ac8-b5a7-467b-befd-0ad7fdd733e3)" strokeWidth="0"/><polygon points="93.1 475.1 141 534.5 102.6 581.5 3.9 581.5 93.1 475.1" fill="url(#uuid-9ee73e29-d173-4f8d-866a-5fd872840078)" strokeWidth="0"/><polygon points="160.2 390.3 259 270.6 355 387.8 259 387.1 209.6 448.5 160.2 390.3" fill="url(#uuid-9bd17703-a8c3-4c10-9f57-95431e51662d)" strokeWidth="0"/><path d="M343.3,435.7c-4.2-7.5-10-13.2-17.3-17.3-7.3-4.1-15.7-6.1-25.1-6.1s-18.2,2.1-25.8,6.3c-7.5,4.2-13.4,10-17.7,17.4-4.3,7.4-6.4,15.9-6.4,25.6s2.2,18,6.6,25.5c4.4,7.5,10.6,13.3,18.6,17.6,8,4.3,17.4,6.4,28.1,6.4s15.9-1.4,22.5-4.1c6.6-2.7,12-6.6,16.4-11.7l-12.1-13.9c-3.4,3.6-7.2,6.3-11.6,7.9-4.3,1.7-9.2,2.5-14.6,2.5s-11.8-1.2-16.6-3.6c-4.8-2.4-8.6-5.8-11.2-10.3-1.7-2.8-2.8-5.9-3.4-9.2h75.7c.1-1.1.2-2.2.3-3.4,0-1.2,0-2.3,0-3.3,0-10.1-2.1-18.9-6.3-26.4ZM273.4,453.8c.5-3.6,1.6-6.9,3.2-9.8,2.3-4.3,5.6-7.6,9.8-10,4.2-2.4,9-3.6,14.5-3.6s10.2,1.2,14.4,3.6c4.2,2.4,7.4,5.7,9.9,9.9,1.7,3,2.8,6.3,3.2,9.9h-54.9Z" fill="url(#uuid-dba1ba88-dfd5-4bcf-a157-2d1e8885fe7f)" strokeWidth="0"/><polygon points="446.3 413.3 404.9 509.8 381.6 509.8 340.2 413.3 363.7 413.3 393.6 484.8 424.6 413.3 446.3 413.3" fill="url(#uuid-dbb998dd-eebe-4fb3-acf1-a4f00d950d6a)" strokeWidth="0"/><path d="M487.5,511.1c-9.9,0-18.7-2.1-26.4-6.4-7.7-4.3-13.8-10.1-18.3-17.6-4.5-7.5-6.7-16-6.7-25.5s2.2-18.2,6.7-25.6c4.5-7.4,10.5-13.2,18.3-17.4,7.7-4.2,16.5-6.3,26.4-6.3s18.9,2.1,26.7,6.3c7.8,4.2,13.9,10,18.3,17.3,4.4,7.3,6.6,15.9,6.6,25.7s-2.2,18-6.6,25.5c-4.4,7.5-10.5,13.3-18.3,17.6-7.8,4.3-16.7,6.4-26.7,6.4ZM487.5,491.7c5.5,0,10.5-1.2,14.8-3.6,4.3-2.4,7.7-5.9,10.2-10.5,2.5-4.6,3.7-9.9,3.7-16.1s-1.2-11.7-3.7-16.2c-2.5-4.5-5.9-8-10.2-10.4-4.3-2.4-9.2-3.6-14.6-3.6s-10.5,1.2-14.7,3.6c-4.3,2.4-7.7,5.9-10.2,10.4-2.5,4.5-3.8,9.9-3.8,16.2s1.3,11.5,3.8,16.1c2.5,4.6,5.9,8.1,10.2,10.5,4.3,2.4,9.1,3.6,14.5,3.6Z" fill="url(#uuid-5f80c3fd-8abf-42af-893e-dc1cec078673)" strokeWidth="0"/><polygon points="630.8 509.8 605.3 509.8 580.7 476.4 555.6 509.8 530.7 509.8 568.4 460.8 532.3 413.3 557.4 413.3 581 444.9 604.8 413.3 629.2 413.3 593.1 460.4 630.8 509.8" fill="url(#uuid-45daa283-2ba9-4d1a-9b10-4372e637760e)" strokeWidth="0"/><path d="M674.9,511.1c-10.1,0-19.1-2.1-27-6.4-7.9-4.3-14.1-10.1-18.5-17.6-4.5-7.5-6.7-16-6.7-25.5s2.2-18.2,6.7-25.6c4.5-7.4,10.6-13.2,18.5-17.4,7.9-4.2,16.9-6.3,27-6.3s17.7,1.9,24.8,5.7c7.2,3.8,12.6,9.4,16.4,16.7l-17.3,10.1c-2.9-4.6-6.4-8-10.6-10.1s-8.6-3.3-13.5-3.3-10.5,1.2-15,3.6c-4.5,2.4-8,5.9-10.5,10.4-2.5,4.5-3.8,9.9-3.8,16.2s1.3,11.7,3.8,16.2c2.5,4.5,6,8,10.5,10.4,4.5,2.4,9.5,3.6,15,3.6s9.3-1.1,13.5-3.3c4.2-2.2,7.7-5.5,10.6-10.1l17.3,10.1c-3.7,7.2-9.2,12.8-16.4,16.7-7.2,3.9-15.5,5.9-24.8,5.9Z" fill="url(#uuid-fb88e3f2-175e-42c9-b64d-76af5cf7888f)" strokeWidth="0"/><path d="M805,435.7c-4.2-7.5-10-13.2-17.3-17.3-7.3-4.1-15.7-6.1-25.1-6.1s-18.2,2.1-25.8,6.3c-7.5,4.2-13.4,10-17.7,17.4-4.3,7.4-6.4,15.9-6.4,25.6s2.2,18,6.6,25.5c4.4,7.5,10.6,13.3,18.6,17.6,8,4.3,17.4,6.4,28.1,6.4s15.9-1.4,22.5-4.1c6.6-2.7,12-6.6,16.3-11.7l-12.1-13.9c-3.4,3.6-7.2,6.3-11.6,7.9-4.3,1.7-9.2,2.5-14.6,2.5s-11.8-1.2-16.6-3.6c-4.8-2.4-8.6-5.8-11.2-10.3-1.7-2.8-2.8-5.9-3.4-9.2h75.7c.1-1.1.2-2.2.3-3.4,0-1.2,0-2.3,0-3.3,0-10.1-2.1-18.9-6.3-26.4ZM735.1,453.8c.5-3.6,1.6-6.9,3.2-9.8,2.3-4.3,5.6-7.6,9.8-10,4.2-2.4,9-3.6,14.5-3.6s10.2,1.2,14.4,3.6c4.2,2.4,7.4,5.7,9.8,9.9,1.7,3,2.8,6.3,3.2,9.9h-54.9Z" fill="url(#uuid-ebf5ca17-497d-4b78-a1d4-9e7c5160c469)" strokeWidth="0"/><path d="M819.5,509.8v-134.1h22.6v134.1h-22.6Z" fill="url(#uuid-9dc519ee-cdfc-4d5c-bc92-a07251b8671c)" strokeWidth="0"/></svg>