<svg xmlns="http://www.w3.org/2000/svg" xmlns:xlink="http://www.w3.org/1999/xlink" width="100" zoomAndPan="magnify" viewBox="0 0 75 74.999997" height="100" preserveAspectRatio="xMidYMid meet" version="1.0"><defs><clipPath id="5416b1d448"><path d="M 16.867188 11.238281 L 26.617188 11.238281 L 26.617188 20.988281 L 16.867188 20.988281 Z M 16.867188 11.238281 " clip-rule="nonzero"/></clipPath><clipPath id="d4aa02342e"><path d="M 17.195312 14.324219 L 17.195312 12.78125 C 17.195312 12.46875 17.449219 12.210938 17.761719 12.210938 L 19.304688 12.210938 C 19.394531 12.210938 19.46875 12.285156 19.46875 12.375 C 19.46875 12.464844 19.394531 12.539062 19.304688 12.539062 L 17.761719 12.539062 C 17.628906 12.539062 17.519531 12.648438 17.519531 12.78125 L 17.519531 14.324219 C 17.519531 14.414062 17.445312 14.488281 17.355469 14.488281 C 17.265625 14.488281 17.195312 14.414062 17.195312 14.324219 Z M 24.179688 12.539062 L 25.726562 12.539062 C 25.859375 12.539062 25.96875 12.648438 25.96875 12.78125 L 25.96875 14.324219 C 25.96875 14.414062 26.042969 14.488281 26.132812 14.488281 C 26.222656 14.488281 26.292969 14.414062 26.292969 14.324219 L 26.292969 12.78125 C 26.292969 12.46875 26.039062 12.210938 25.726562 12.210938 L 24.179688 12.210938 C 24.089844 12.210938 24.019531 12.285156 24.019531 12.375 C 24.019531 12.464844 24.089844 12.539062 24.179688 12.539062 Z M 19.304688 19.6875 L 17.761719 19.6875 C 17.628906 19.6875 17.519531 19.578125 17.519531 19.445312 L 17.519531 17.898438 C 17.519531 17.808594 17.445312 17.738281 17.355469 17.738281 C 17.265625 17.738281 17.195312 17.808594 17.195312 17.898438 L 17.195312 19.445312 C 17.195312 19.757812 17.449219 20.011719 17.761719 20.011719 L 19.304688 20.011719 C 19.394531 20.011719 19.46875 19.9375 19.46875 19.851562 C 19.46875 19.761719 19.394531 19.6875 19.304688 19.6875 Z M 26.132812 17.738281 C 26.042969 17.738281 25.96875 17.808594 25.96875 17.898438 L 25.96875 19.445312 C 25.96875 19.578125 25.859375 19.6875 25.726562 19.6875 L 24.179688 19.6875 C 24.089844 19.6875 24.019531 19.761719 24.019531 19.851562 C 24.019531 19.9375 24.089844 20.011719 24.179688 20.011719 L 25.726562 20.011719 C 26.039062 20.011719 26.292969 19.757812 26.292969 19.445312 L 26.292969 17.898438 C 26.292969 17.808594 26.222656 17.738281 26.132812 17.738281 Z M 19.328125 15.828125 C 19.324219 15.832031 19.324219 15.832031 19.324219 15.832031 L 19.398438 16.492188 C 19.410156 16.605469 19.46875 16.703125 19.558594 16.773438 C 19.609375 16.8125 19.667969 16.835938 19.730469 16.847656 L 19.6875 15.828125 Z M 24.160156 15.828125 C 24.160156 15.828125 24.160156 15.828125 24.15625 15.828125 L 23.800781 15.828125 L 23.757812 16.847656 C 23.816406 16.835938 23.875 16.8125 23.929688 16.773438 C 24.019531 16.703125 24.074219 16.605469 24.089844 16.492188 L 24.160156 15.832031 C 24.160156 15.832031 24.160156 15.832031 24.160156 15.828125 Z M 23.371094 14.835938 C 23.460938 14.929688 23.507812 15.054688 23.503906 15.183594 L 23.429688 16.914062 C 23.394531 17.863281 22.796875 18.683594 21.90625 19.007812 C 21.800781 19.046875 21.6875 19.046875 21.582031 19.007812 C 20.691406 18.683594 20.09375 17.863281 20.058594 16.914062 L 19.984375 15.183594 C 19.980469 15.054688 20.027344 14.929688 20.117188 14.835938 C 20.207031 14.742188 20.328125 14.691406 20.457031 14.691406 L 20.964844 14.691406 L 21.097656 15.21875 C 21.113281 15.285156 21.171875 15.332031 21.238281 15.339844 C 21.304688 15.347656 21.371094 15.3125 21.402344 15.25 L 21.679688 14.691406 L 23.03125 14.691406 C 23.160156 14.691406 23.28125 14.742188 23.371094 14.835938 Z M 21.597656 16.730469 L 21.273438 17.378906 C 21.234375 17.460938 21.265625 17.558594 21.347656 17.597656 L 21.671875 17.761719 C 21.695312 17.773438 21.71875 17.777344 21.742188 17.777344 C 21.804688 17.777344 21.859375 17.746094 21.890625 17.6875 C 21.929688 17.609375 21.898438 17.511719 21.816406 17.46875 L 21.636719 17.378906 L 21.890625 16.875 C 21.929688 16.796875 21.898438 16.699219 21.816406 16.65625 C 21.734375 16.617188 21.636719 16.648438 21.597656 16.730469 Z M 21.246094 16.234375 L 21.328125 16.289062 C 21.355469 16.304688 21.386719 16.316406 21.417969 16.316406 C 21.472656 16.316406 21.523438 16.289062 21.554688 16.242188 C 21.605469 16.167969 21.582031 16.066406 21.507812 16.019531 L 21.425781 15.964844 C 21.132812 15.769531 20.792969 15.664062 20.445312 15.664062 C 20.355469 15.664062 20.28125 15.738281 20.28125 15.828125 C 20.28125 15.917969 20.355469 15.992188 20.445312 15.992188 C 20.730469 15.992188 21.007812 16.074219 21.246094 16.234375 Z M 21.09375 16.804688 C 21.183594 16.804688 21.257812 16.730469 21.257812 16.640625 L 21.257812 16.476562 C 21.257812 16.386719 21.183594 16.316406 21.09375 16.316406 C 21.003906 16.316406 20.929688 16.386719 20.929688 16.476562 L 20.929688 16.640625 C 20.929688 16.730469 21.003906 16.804688 21.09375 16.804688 Z M 22.367188 18.175781 C 22.316406 18.101562 22.214844 18.082031 22.140625 18.128906 C 21.898438 18.292969 21.585938 18.292969 21.347656 18.128906 C 21.273438 18.082031 21.171875 18.101562 21.121094 18.175781 C 21.070312 18.25 21.089844 18.351562 21.164062 18.402344 C 21.339844 18.515625 21.542969 18.574219 21.742188 18.574219 C 21.945312 18.574219 22.144531 18.515625 22.320312 18.402344 C 22.394531 18.351562 22.417969 18.25 22.367188 18.175781 Z M 22.554688 16.476562 C 22.554688 16.386719 22.484375 16.316406 22.394531 16.316406 C 22.304688 16.316406 22.230469 16.386719 22.230469 16.476562 L 22.230469 16.640625 C 22.230469 16.730469 22.304688 16.804688 22.394531 16.804688 C 22.484375 16.804688 22.554688 16.730469 22.554688 16.640625 Z M 23.207031 15.828125 C 23.207031 15.738281 23.132812 15.664062 23.042969 15.664062 C 22.691406 15.664062 22.351562 15.769531 22.058594 15.964844 L 21.976562 16.019531 C 21.902344 16.066406 21.882812 16.167969 21.933594 16.242188 C 21.964844 16.289062 22.015625 16.316406 22.070312 16.316406 C 22.101562 16.316406 22.132812 16.304688 22.160156 16.289062 L 22.242188 16.234375 C 22.480469 16.074219 22.757812 15.992188 23.042969 15.992188 C 23.132812 15.992188 23.207031 15.917969 23.207031 15.828125 Z M 23.828125 15.199219 L 23.8125 15.503906 L 24.019531 15.503906 L 24.019531 14.414062 C 24.019531 13.757812 23.488281 13.226562 22.832031 13.226562 L 20.652344 13.226562 C 20 13.226562 19.46875 13.757812 19.46875 14.414062 L 19.46875 15.503906 L 19.671875 15.503906 L 19.660156 15.199219 C 19.648438 14.976562 19.730469 14.769531 19.878906 14.613281 C 20.03125 14.453125 20.238281 14.367188 20.457031 14.367188 L 21.09375 14.367188 C 21.167969 14.367188 21.234375 14.417969 21.25 14.488281 L 21.308594 14.710938 L 21.4375 14.457031 C 21.464844 14.398438 21.519531 14.367188 21.582031 14.367188 L 23.03125 14.367188 C 23.25 14.367188 23.453125 14.453125 23.605469 14.613281 C 23.757812 14.769531 23.835938 14.976562 23.828125 15.199219 Z M 21.742188 12.539062 C 21.832031 12.539062 21.90625 12.464844 21.90625 12.375 L 21.90625 11.398438 C 21.90625 11.308594 21.832031 11.238281 21.742188 11.238281 C 21.652344 11.238281 21.582031 11.308594 21.582031 11.398438 L 21.582031 12.375 C 21.582031 12.464844 21.652344 12.539062 21.742188 12.539062 Z M 21.742188 19.6875 C 21.652344 19.6875 21.582031 19.761719 21.582031 19.851562 L 21.582031 20.824219 C 21.582031 20.914062 21.652344 20.988281 21.742188 20.988281 C 21.832031 20.988281 21.90625 20.914062 21.90625 20.824219 L 21.90625 19.851562 C 21.90625 19.761719 21.832031 19.6875 21.742188 19.6875 Z M 26.457031 15.949219 L 25.480469 15.949219 C 25.390625 15.949219 25.320312 16.023438 25.320312 16.113281 C 25.320312 16.203125 25.390625 16.273438 25.480469 16.273438 L 26.457031 16.273438 C 26.546875 16.273438 26.617188 16.203125 26.617188 16.113281 C 26.617188 16.023438 26.546875 15.949219 26.457031 15.949219 Z M 18.167969 16.113281 C 18.167969 16.023438 18.097656 15.949219 18.007812 15.949219 L 17.03125 15.949219 C 16.941406 15.949219 16.867188 16.023438 16.867188 16.113281 C 16.867188 16.203125 16.941406 16.273438 17.03125 16.273438 L 18.007812 16.273438 C 18.097656 16.273438 18.167969 16.203125 18.167969 16.113281 Z M 18.167969 16.113281 " clip-rule="nonzero"/></clipPath><linearGradient x1="16.000035" gradientTransform="matrix(0.0203125, 0, 0, 0.0203125, 16.543601, 10.9122)" y1="495.999974" x2="496.000007" gradientUnits="userSpaceOnUse" y2="16.000002" id="0a007d1880"><stop stop-opacity="1" stop-color="rgb(36.898804%, 73.699951%, 89.7995%)" offset="0"/><stop stop-opacity="1" stop-color="rgb(36.898804%, 73.699951%, 89.7995%)" offset="0.0625"/><stop stop-opacity="1" stop-color="rgb(36.898804%, 73.699951%, 89.7995%)" offset="0.078125"/><stop stop-opacity="1" stop-color="rgb(38.130188%, 72.886658%, 89.7995%)" offset="0.0820312"/><stop stop-opacity="1" stop-color="rgb(39.361572%, 72.073364%, 89.801025%)" offset="0.0859375"/><stop stop-opacity="1" stop-color="rgb(39.654541%, 71.842957%, 89.804077%)" offset="0.0898437"/><stop stop-opacity="1" stop-color="rgb(39.949036%, 71.614075%, 89.808655%)" offset="0.09375"/><stop stop-opacity="1" stop-color="rgb(40.24353%, 71.385193%, 89.811707%)" offset="0.0976562"/><stop stop-opacity="1" stop-color="rgb(40.538025%, 71.156311%, 89.816284%)" offset="0.101562"/><stop stop-opacity="1" stop-color="rgb(40.830994%, 70.925903%, 89.819336%)" offset="0.105469"/><stop stop-opacity="1" stop-color="rgb(41.125488%, 70.697021%, 89.823914%)" offset="0.109375"/><stop stop-opacity="1" stop-color="rgb(41.418457%, 70.46814%, 89.826965%)" offset="0.113281"/><stop stop-opacity="1" stop-color="rgb(41.712952%, 70.239258%, 89.830017%)" offset="0.117187"/><stop stop-opacity="1" stop-color="rgb(42.007446%, 70.010376%, 89.833069%)" offset="0.121094"/><stop stop-opacity="1" stop-color="rgb(42.301941%, 69.781494%, 89.837646%)" offset="0.125"/><stop stop-opacity="1" stop-color="rgb(42.59491%, 69.551086%, 89.840698%)" offset="0.128906"/><stop stop-opacity="1" stop-color="rgb(42.889404%, 69.322205%, 89.845276%)" offset="0.132812"/><stop stop-opacity="1" stop-color="rgb(43.182373%, 69.093323%, 89.848328%)" offset="0.136719"/><stop stop-opacity="1" stop-color="rgb(43.476868%, 68.864441%, 89.852905%)" offset="0.140625"/><stop stop-opacity="1" stop-color="rgb(43.771362%, 68.635559%, 89.855957%)" offset="0.144531"/><stop stop-opacity="1" stop-color="rgb(44.065857%, 68.406677%, 89.859009%)" offset="0.148437"/><stop stop-opacity="1" stop-color="rgb(44.358826%, 68.17627%, 89.862061%)" offset="0.152344"/><stop stop-opacity="1" stop-color="rgb(44.65332%, 67.947388%, 89.866638%)" offset="0.15625"/><stop stop-opacity="1" stop-color="rgb(44.946289%, 67.718506%, 89.86969%)" offset="0.160156"/><stop stop-opacity="1" stop-color="rgb(45.240784%, 67.489624%, 89.874268%)" offset="0.164062"/><stop stop-opacity="1" stop-color="rgb(45.533752%, 67.260742%, 89.877319%)" offset="0.167969"/><stop stop-opacity="1" stop-color="rgb(45.828247%, 67.03186%, 89.881897%)" offset="0.171875"/><stop stop-opacity="1" stop-color="rgb(46.122742%, 66.801453%, 89.884949%)" offset="0.175781"/><stop stop-opacity="1" stop-color="rgb(46.417236%, 66.572571%, 89.889526%)" offset="0.179687"/><stop stop-opacity="1" stop-color="rgb(46.710205%, 66.343689%, 89.892578%)" offset="0.183594"/><stop stop-opacity="1" stop-color="rgb(47.0047%, 66.114807%, 89.89563%)" offset="0.1875"/><stop stop-opacity="1" stop-color="rgb(47.297668%, 65.885925%, 89.898682%)" offset="0.191406"/><stop stop-opacity="1" stop-color="rgb(47.592163%, 65.657043%, 89.903259%)" offset="0.195312"/><stop stop-opacity="1" stop-color="rgb(47.886658%, 65.426636%, 89.906311%)" offset="0.199219"/><stop stop-opacity="1" stop-color="rgb(48.181152%, 65.197754%, 89.910889%)" offset="0.203125"/><stop stop-opacity="1" stop-color="rgb(48.474121%, 64.968872%, 89.91394%)" offset="0.207031"/><stop stop-opacity="1" stop-color="rgb(48.768616%, 64.73999%, 89.918518%)" offset="0.210937"/><stop stop-opacity="1" stop-color="rgb(49.061584%, 64.511108%, 89.92157%)" offset="0.214844"/><stop stop-opacity="1" stop-color="rgb(49.356079%, 64.282227%, 89.926147%)" offset="0.21875"/><stop stop-opacity="1" stop-color="rgb(49.650574%, 64.051819%, 89.929199%)" offset="0.222656"/><stop stop-opacity="1" stop-color="rgb(49.945068%, 63.822937%, 89.932251%)" offset="0.226562"/><stop stop-opacity="1" stop-color="rgb(50.238037%, 63.594055%, 89.935303%)" offset="0.230469"/><stop stop-opacity="1" stop-color="rgb(50.532532%, 63.365173%, 89.93988%)" offset="0.234375"/><stop stop-opacity="1" stop-color="rgb(50.8255%, 63.136292%, 89.942932%)" offset="0.238281"/><stop stop-opacity="1" stop-color="rgb(51.119995%, 62.90741%, 89.94751%)" offset="0.242187"/><stop stop-opacity="1" stop-color="rgb(51.41449%, 62.677002%, 89.950562%)" offset="0.246094"/><stop stop-opacity="1" stop-color="rgb(51.708984%, 62.44812%, 89.955139%)" offset="0.25"/><stop stop-opacity="1" stop-color="rgb(52.001953%, 62.219238%, 89.958191%)" offset="0.253906"/><stop stop-opacity="1" stop-color="rgb(52.296448%, 61.990356%, 89.961243%)" offset="0.257812"/><stop stop-opacity="1" stop-color="rgb(52.589417%, 61.759949%, 89.964294%)" offset="0.261719"/><stop stop-opacity="1" stop-color="rgb(52.883911%, 61.531067%, 89.968872%)" offset="0.265625"/><stop stop-opacity="1" stop-color="rgb(53.17688%, 61.302185%, 89.971924%)" offset="0.269531"/><stop stop-opacity="1" stop-color="rgb(53.471375%, 61.073303%, 89.976501%)" offset="0.273437"/><stop stop-opacity="1" stop-color="rgb(53.765869%, 60.844421%, 89.979553%)" offset="0.277344"/><stop stop-opacity="1" stop-color="rgb(54.060364%, 60.61554%, 89.984131%)" offset="0.28125"/><stop stop-opacity="1" stop-color="rgb(54.353333%, 60.385132%, 89.987183%)" offset="0.285156"/><stop stop-opacity="1" stop-color="rgb(54.647827%, 60.15625%, 89.99176%)" offset="0.289062"/><stop stop-opacity="1" stop-color="rgb(54.940796%, 59.927368%, 89.994812%)" offset="0.292969"/><stop stop-opacity="1" stop-color="rgb(55.235291%, 59.698486%, 89.997864%)" offset="0.296875"/><stop stop-opacity="1" stop-color="rgb(55.529785%, 59.469604%, 90.000916%)" offset="0.300781"/><stop stop-opacity="1" stop-color="rgb(55.82428%, 59.240723%, 90.005493%)" offset="0.304687"/><stop stop-opacity="1" stop-color="rgb(56.117249%, 59.010315%, 90.008545%)" offset="0.308594"/><stop stop-opacity="1" stop-color="rgb(56.411743%, 58.781433%, 90.013123%)" offset="0.3125"/><stop stop-opacity="1" stop-color="rgb(56.704712%, 58.552551%, 90.016174%)" offset="0.316406"/><stop stop-opacity="1" stop-color="rgb(56.999207%, 58.323669%, 90.020752%)" offset="0.320312"/><stop stop-opacity="1" stop-color="rgb(57.293701%, 58.094788%, 90.023804%)" offset="0.324219"/><stop stop-opacity="1" stop-color="rgb(57.588196%, 57.865906%, 90.028381%)" offset="0.328125"/><stop stop-opacity="1" stop-color="rgb(57.881165%, 57.635498%, 90.031433%)" offset="0.332031"/><stop stop-opacity="1" stop-color="rgb(58.175659%, 57.406616%, 90.034485%)" offset="0.335937"/><stop stop-opacity="1" stop-color="rgb(58.468628%, 57.177734%, 90.037537%)" offset="0.339844"/><stop stop-opacity="1" stop-color="rgb(58.763123%, 56.948853%, 90.042114%)" offset="0.34375"/><stop stop-opacity="1" stop-color="rgb(59.057617%, 56.719971%, 90.045166%)" offset="0.347656"/><stop stop-opacity="1" stop-color="rgb(59.352112%, 56.491089%, 90.049744%)" offset="0.351562"/><stop stop-opacity="1" stop-color="rgb(59.645081%, 56.260681%, 90.052795%)" offset="0.355469"/><stop stop-opacity="1" stop-color="rgb(59.939575%, 56.031799%, 90.057373%)" offset="0.359375"/><stop stop-opacity="1" stop-color="rgb(60.232544%, 55.802917%, 90.060425%)" offset="0.363281"/><stop stop-opacity="1" stop-color="rgb(60.527039%, 55.574036%, 90.063477%)" offset="0.367187"/><stop stop-opacity="1" stop-color="rgb(60.820007%, 55.345154%, 90.066528%)" offset="0.371094"/><stop stop-opacity="1" stop-color="rgb(61.114502%, 55.116272%, 90.071106%)" offset="0.375"/><stop stop-opacity="1" stop-color="rgb(61.408997%, 54.885864%, 90.074158%)" offset="0.378906"/><stop stop-opacity="1" stop-color="rgb(61.703491%, 54.656982%, 90.078735%)" offset="0.382812"/><stop stop-opacity="1" stop-color="rgb(61.99646%, 54.428101%, 90.081787%)" offset="0.386719"/><stop stop-opacity="1" stop-color="rgb(62.290955%, 54.199219%, 90.086365%)" offset="0.390625"/><stop stop-opacity="1" stop-color="rgb(62.583923%, 53.970337%, 90.089417%)" offset="0.394531"/><stop stop-opacity="1" stop-color="rgb(62.878418%, 53.741455%, 90.093994%)" offset="0.398437"/><stop stop-opacity="1" stop-color="rgb(63.172913%, 53.511047%, 90.097046%)" offset="0.402344"/><stop stop-opacity="1" stop-color="rgb(63.467407%, 53.282166%, 90.100098%)" offset="0.40625"/><stop stop-opacity="1" stop-color="rgb(63.760376%, 53.053284%, 90.103149%)" offset="0.410156"/><stop stop-opacity="1" stop-color="rgb(64.054871%, 52.824402%, 90.107727%)" offset="0.414062"/><stop stop-opacity="1" stop-color="rgb(64.347839%, 52.593994%, 90.110779%)" offset="0.417969"/><stop stop-opacity="1" stop-color="rgb(64.642334%, 52.365112%, 90.115356%)" offset="0.421875"/><stop stop-opacity="1" stop-color="rgb(64.936829%, 52.13623%, 90.118408%)" offset="0.425781"/><stop stop-opacity="1" stop-color="rgb(65.231323%, 51.907349%, 90.122986%)" offset="0.429687"/><stop stop-opacity="1" stop-color="rgb(65.524292%, 51.678467%, 90.126038%)" offset="0.433594"/><stop stop-opacity="1" stop-color="rgb(65.818787%, 51.449585%, 90.130615%)" offset="0.4375"/><stop stop-opacity="1" stop-color="rgb(66.111755%, 51.219177%, 90.133667%)" offset="0.441406"/><stop stop-opacity="1" stop-color="rgb(66.40625%, 50.990295%, 90.136719%)" offset="0.445312"/><stop stop-opacity="1" stop-color="rgb(66.700745%, 50.761414%, 90.139771%)" offset="0.449219"/><stop stop-opacity="1" stop-color="rgb(66.995239%, 50.532532%, 90.144348%)" offset="0.453125"/><stop stop-opacity="1" stop-color="rgb(67.288208%, 50.30365%, 90.1474%)" offset="0.457031"/><stop stop-opacity="1" stop-color="rgb(67.582703%, 50.074768%, 90.151978%)" offset="0.460938"/><stop stop-opacity="1" stop-color="rgb(67.875671%, 49.84436%, 90.155029%)" offset="0.464844"/><stop stop-opacity="1" stop-color="rgb(68.170166%, 49.615479%, 90.159607%)" offset="0.46875"/><stop stop-opacity="1" stop-color="rgb(68.463135%, 49.386597%, 90.162659%)" offset="0.472656"/><stop stop-opacity="1" stop-color="rgb(68.757629%, 49.157715%, 90.16571%)" offset="0.476562"/><stop stop-opacity="1" stop-color="rgb(69.052124%, 48.928833%, 90.168762%)" offset="0.480469"/><stop stop-opacity="1" stop-color="rgb(69.346619%, 48.699951%, 90.17334%)" offset="0.484375"/><stop stop-opacity="1" stop-color="rgb(69.639587%, 48.469543%, 90.176392%)" offset="0.488281"/><stop stop-opacity="1" stop-color="rgb(69.934082%, 48.240662%, 90.180969%)" offset="0.492187"/><stop stop-opacity="1" stop-color="rgb(70.227051%, 48.01178%, 90.184021%)" offset="0.496094"/><stop stop-opacity="1" stop-color="rgb(70.521545%, 47.782898%, 90.188599%)" offset="0.5"/><stop stop-opacity="1" stop-color="rgb(70.81604%, 47.554016%, 90.19165%)" offset="0.503906"/><stop stop-opacity="1" stop-color="rgb(71.110535%, 47.325134%, 90.196228%)" offset="0.507812"/><stop stop-opacity="1" stop-color="rgb(71.330261%, 47.161865%, 89.970398%)" offset="0.511719"/><stop stop-opacity="1" stop-color="rgb(71.549988%, 46.998596%, 89.744568%)" offset="0.515625"/><stop stop-opacity="1" stop-color="rgb(71.696472%, 46.899414%, 89.297485%)" offset="0.519531"/><stop stop-opacity="1" stop-color="rgb(71.844482%, 46.801758%, 88.850403%)" offset="0.523438"/><stop stop-opacity="1" stop-color="rgb(71.992493%, 46.702576%, 88.40332%)" offset="0.527344"/><stop stop-opacity="1" stop-color="rgb(72.140503%, 46.604919%, 87.956238%)" offset="0.53125"/><stop stop-opacity="1" stop-color="rgb(72.288513%, 46.505737%, 87.509155%)" offset="0.535156"/><stop stop-opacity="1" stop-color="rgb(72.436523%, 46.408081%, 87.062073%)" offset="0.539062"/><stop stop-opacity="1" stop-color="rgb(72.583008%, 46.308899%, 86.61499%)" offset="0.542969"/><stop stop-opacity="1" stop-color="rgb(72.731018%, 46.211243%, 86.167908%)" offset="0.546875"/><stop stop-opacity="1" stop-color="rgb(72.879028%, 46.112061%, 85.720825%)" offset="0.550781"/><stop stop-opacity="1" stop-color="rgb(73.027039%, 46.014404%, 85.273743%)" offset="0.554687"/><stop stop-opacity="1" stop-color="rgb(73.173523%, 45.915222%, 84.82666%)" offset="0.558594"/><stop stop-opacity="1" stop-color="rgb(73.321533%, 45.817566%, 84.379578%)" offset="0.5625"/><stop stop-opacity="1" stop-color="rgb(73.469543%, 45.718384%, 83.932495%)" offset="0.566406"/><stop stop-opacity="1" stop-color="rgb(73.617554%, 45.620728%, 83.486938%)" offset="0.570312"/><stop stop-opacity="1" stop-color="rgb(73.765564%, 45.521545%, 83.039856%)" offset="0.574219"/><stop stop-opacity="1" stop-color="rgb(73.913574%, 45.423889%, 82.592773%)" offset="0.578125"/><stop stop-opacity="1" stop-color="rgb(74.060059%, 45.324707%, 82.145691%)" offset="0.582031"/><stop stop-opacity="1" stop-color="rgb(74.208069%, 45.227051%, 81.698608%)" offset="0.585937"/><stop stop-opacity="1" stop-color="rgb(74.356079%, 45.127869%, 81.251526%)" offset="0.589844"/><stop stop-opacity="1" stop-color="rgb(74.504089%, 45.028687%, 80.804443%)" offset="0.59375"/><stop stop-opacity="1" stop-color="rgb(74.6521%, 44.929504%, 80.357361%)" offset="0.597656"/><stop stop-opacity="1" stop-color="rgb(74.80011%, 44.831848%, 79.910278%)" offset="0.601562"/><stop stop-opacity="1" stop-color="rgb(74.946594%, 44.732666%, 79.463196%)" offset="0.605469"/><stop stop-opacity="1" stop-color="rgb(75.094604%, 44.63501%, 79.016113%)" offset="0.609375"/><stop stop-opacity="1" stop-color="rgb(75.242615%, 44.535828%, 78.569031%)" offset="0.613281"/><stop stop-opacity="1" stop-color="rgb(75.390625%, 44.438171%, 78.121948%)" offset="0.617188"/><stop stop-opacity="1" stop-color="rgb(75.537109%, 44.338989%, 77.674866%)" offset="0.621094"/><stop stop-opacity="1" stop-color="rgb(75.68512%, 44.241333%, 77.227783%)" offset="0.625"/><stop stop-opacity="1" stop-color="rgb(75.83313%, 44.142151%, 76.780701%)" offset="0.628906"/><stop stop-opacity="1" stop-color="rgb(75.98114%, 44.044495%, 76.333618%)" offset="0.632812"/><stop stop-opacity="1" stop-color="rgb(76.12915%, 43.945312%, 75.886536%)" offset="0.636719"/><stop stop-opacity="1" stop-color="rgb(76.277161%, 43.847656%, 75.439453%)" offset="0.640625"/><stop stop-opacity="1" stop-color="rgb(76.423645%, 43.748474%, 74.992371%)" offset="0.644531"/><stop stop-opacity="1" stop-color="rgb(76.571655%, 43.650818%, 74.545288%)" offset="0.648437"/><stop stop-opacity="1" stop-color="rgb(76.719666%, 43.551636%, 74.098206%)" offset="0.652344"/><stop stop-opacity="1" stop-color="rgb(76.867676%, 43.453979%, 73.651123%)" offset="0.65625"/><stop stop-opacity="1" stop-color="rgb(77.015686%, 43.354797%, 73.204041%)" offset="0.660156"/><stop stop-opacity="1" stop-color="rgb(77.163696%, 43.257141%, 72.756958%)" offset="0.664062"/><stop stop-opacity="1" stop-color="rgb(77.310181%, 43.157959%, 72.309875%)" offset="0.667969"/><stop stop-opacity="1" stop-color="rgb(77.458191%, 43.060303%, 71.862793%)" offset="0.671875"/><stop stop-opacity="1" stop-color="rgb(77.606201%, 42.961121%, 71.41571%)" offset="0.675781"/><stop stop-opacity="1" stop-color="rgb(77.754211%, 42.863464%, 70.968628%)" offset="0.679687"/><stop stop-opacity="1" stop-color="rgb(77.900696%, 42.764282%, 70.521545%)" offset="0.683594"/><stop stop-opacity="1" stop-color="rgb(78.048706%, 42.6651%, 70.074463%)" offset="0.6875"/><stop stop-opacity="1" stop-color="rgb(78.196716%, 42.565918%, 69.62738%)" offset="0.691406"/><stop stop-opacity="1" stop-color="rgb(78.344727%, 42.468262%, 69.180298%)" offset="0.695312"/><stop stop-opacity="1" stop-color="rgb(78.492737%, 42.36908%, 68.733215%)" offset="0.699219"/><stop stop-opacity="1" stop-color="rgb(78.640747%, 42.271423%, 68.286133%)" offset="0.703125"/><stop stop-opacity="1" stop-color="rgb(78.787231%, 42.172241%, 67.83905%)" offset="0.707031"/><stop stop-opacity="1" stop-color="rgb(78.935242%, 42.074585%, 67.391968%)" offset="0.710938"/><stop stop-opacity="1" stop-color="rgb(79.083252%, 41.975403%, 66.944885%)" offset="0.714844"/><stop stop-opacity="1" stop-color="rgb(79.231262%, 41.877747%, 66.497803%)" offset="0.71875"/><stop stop-opacity="1" stop-color="rgb(79.379272%, 41.778564%, 66.05072%)" offset="0.722656"/><stop stop-opacity="1" stop-color="rgb(79.527283%, 41.680908%, 65.603638%)" offset="0.726562"/><stop stop-opacity="1" stop-color="rgb(79.673767%, 41.581726%, 65.156555%)" offset="0.730469"/><stop stop-opacity="1" stop-color="rgb(79.821777%, 41.48407%, 64.710999%)" offset="0.734375"/><stop stop-opacity="1" stop-color="rgb(79.969788%, 41.384888%, 64.263916%)" offset="0.738281"/><stop stop-opacity="1" stop-color="rgb(80.117798%, 41.287231%, 63.816833%)" offset="0.742187"/><stop stop-opacity="1" stop-color="rgb(80.264282%, 41.188049%, 63.369751%)" offset="0.746094"/><stop stop-opacity="1" stop-color="rgb(80.412292%, 41.090393%, 62.922668%)" offset="0.75"/><stop stop-opacity="1" stop-color="rgb(80.560303%, 40.991211%, 62.475586%)" offset="0.753906"/><stop stop-opacity="1" stop-color="rgb(80.708313%, 40.893555%, 62.028503%)" offset="0.757812"/><stop stop-opacity="1" stop-color="rgb(80.856323%, 40.794373%, 61.581421%)" offset="0.761719"/><stop stop-opacity="1" stop-color="rgb(81.004333%, 40.696716%, 61.134338%)" offset="0.765625"/><stop stop-opacity="1" stop-color="rgb(81.150818%, 40.597534%, 60.687256%)" offset="0.769531"/><stop stop-opacity="1" stop-color="rgb(81.298828%, 40.499878%, 60.240173%)" offset="0.773437"/><stop stop-opacity="1" stop-color="rgb(81.446838%, 40.400696%, 59.793091%)" offset="0.777344"/><stop stop-opacity="1" stop-color="rgb(81.594849%, 40.301514%, 59.346008%)" offset="0.78125"/><stop stop-opacity="1" stop-color="rgb(81.742859%, 40.202332%, 58.898926%)" offset="0.785156"/><stop stop-opacity="1" stop-color="rgb(81.890869%, 40.104675%, 58.451843%)" offset="0.789062"/><stop stop-opacity="1" stop-color="rgb(82.037354%, 40.005493%, 58.004761%)" offset="0.792969"/><stop stop-opacity="1" stop-color="rgb(82.185364%, 39.907837%, 57.557678%)" offset="0.796875"/><stop stop-opacity="1" stop-color="rgb(82.333374%, 39.808655%, 57.110596%)" offset="0.800781"/><stop stop-opacity="1" stop-color="rgb(82.481384%, 39.710999%, 56.663513%)" offset="0.804688"/><stop stop-opacity="1" stop-color="rgb(82.629395%, 39.611816%, 56.216431%)" offset="0.808594"/><stop stop-opacity="1" stop-color="rgb(82.777405%, 39.51416%, 55.769348%)" offset="0.8125"/><stop stop-opacity="1" stop-color="rgb(82.923889%, 39.414978%, 55.322266%)" offset="0.816406"/><stop stop-opacity="1" stop-color="rgb(83.071899%, 39.317322%, 54.875183%)" offset="0.820312"/><stop stop-opacity="1" stop-color="rgb(83.21991%, 39.21814%, 54.428101%)" offset="0.824219"/><stop stop-opacity="1" stop-color="rgb(83.36792%, 39.120483%, 53.981018%)" offset="0.828125"/><stop stop-opacity="1" stop-color="rgb(83.514404%, 39.021301%, 53.533936%)" offset="0.832031"/><stop stop-opacity="1" stop-color="rgb(83.662415%, 38.923645%, 53.086853%)" offset="0.835937"/><stop stop-opacity="1" stop-color="rgb(83.810425%, 38.824463%, 52.639771%)" offset="0.839844"/><stop stop-opacity="1" stop-color="rgb(83.958435%, 38.726807%, 52.192688%)" offset="0.84375"/><stop stop-opacity="1" stop-color="rgb(84.106445%, 38.627625%, 51.745605%)" offset="0.847656"/><stop stop-opacity="1" stop-color="rgb(84.254456%, 38.529968%, 51.298523%)" offset="0.851562"/><stop stop-opacity="1" stop-color="rgb(84.40094%, 38.430786%, 50.85144%)" offset="0.855469"/><stop stop-opacity="1" stop-color="rgb(84.54895%, 38.33313%, 50.404358%)" offset="0.859375"/><stop stop-opacity="1" stop-color="rgb(84.69696%, 38.233948%, 49.957275%)" offset="0.863281"/><stop stop-opacity="1" stop-color="rgb(84.844971%, 38.134766%, 49.510193%)" offset="0.867187"/><stop stop-opacity="1" stop-color="rgb(84.992981%, 38.035583%, 49.06311%)" offset="0.871094"/><stop stop-opacity="1" stop-color="rgb(85.140991%, 37.937927%, 48.616028%)" offset="0.875"/><stop stop-opacity="1" stop-color="rgb(85.287476%, 37.838745%, 48.168945%)" offset="0.878906"/><stop stop-opacity="1" stop-color="rgb(85.435486%, 37.741089%, 47.721863%)" offset="0.882812"/><stop stop-opacity="1" stop-color="rgb(85.583496%, 37.641907%, 47.27478%)" offset="0.886719"/><stop stop-opacity="1" stop-color="rgb(85.731506%, 37.54425%, 46.829224%)" offset="0.890625"/><stop stop-opacity="1" stop-color="rgb(85.877991%, 37.445068%, 46.382141%)" offset="0.894531"/><stop stop-opacity="1" stop-color="rgb(86.026001%, 37.347412%, 45.935059%)" offset="0.898437"/><stop stop-opacity="1" stop-color="rgb(86.174011%, 37.24823%, 45.487976%)" offset="0.902344"/><stop stop-opacity="1" stop-color="rgb(86.322021%, 37.150574%, 45.040894%)" offset="0.90625"/><stop stop-opacity="1" stop-color="rgb(86.470032%, 37.051392%, 44.593811%)" offset="0.910156"/><stop stop-opacity="1" stop-color="rgb(86.618042%, 36.953735%, 44.146729%)" offset="0.914062"/><stop stop-opacity="1" stop-color="rgb(87.608337%, 36.326599%, 41.072083%)" offset="0.917969"/><stop stop-opacity="1" stop-color="rgb(88.598633%, 35.699463%, 37.998962%)" offset="0.921875"/><stop stop-opacity="1" stop-color="rgb(88.598633%, 35.699463%, 37.998962%)" offset="0.9375"/><stop stop-opacity="1" stop-color="rgb(88.598633%, 35.699463%, 37.998962%)" offset="1"/></linearGradient><clipPath id="4d1e5591cd"><path d="M 6 5.90625 L 59 5.90625 L 59 36 L 6 36 Z M 6 5.90625 " clip-rule="nonzero"/></clipPath><clipPath id="ed0f11c6fe"><path d="M 31.582031 61.40625 L 43.320312 61.40625 L 43.320312 68.90625 L 31.582031 68.90625 Z M 31.582031 61.40625 " clip-rule="nonzero"/></clipPath><clipPath id="7c333223df"><path d="M 37.550781 61.40625 L 43.320312 61.40625 L 43.320312 68.90625 L 37.550781 68.90625 Z M 37.550781 61.40625 " clip-rule="nonzero"/></clipPath><clipPath id="849d542f57"><path d="M 60.429688 61.011719 L 75 61.011719 L 75 68.90625 L 60.429688 68.90625 Z M 60.429688 61.011719 " clip-rule="nonzero"/></clipPath><clipPath id="9dbf818734"><path d="M 71.570312 59.027344 L 75 59.027344 L 75 68.90625 L 71.570312 68.90625 Z M 71.570312 59.027344 " clip-rule="nonzero"/></clipPath><clipPath id="29ec62c7a3"><path d="M 68 61.011719 L 75 61.011719 L 75 68.90625 L 68 68.90625 Z M 68 61.011719 " clip-rule="nonzero"/></clipPath></defs><g clip-path="url(#5416b1d448)"><g clip-path="url(#d4aa02342e)"><path fill="url(#0a007d1880)" d="M 16.867188 11.238281 L 16.867188 20.988281 L 26.617188 20.988281 L 26.617188 11.238281 Z M 16.867188 11.238281 " fill-rule="nonzero"/></g></g><path fill="#2a8887" d="M 18.671875 52.296875 C 11.335938 52.296875 5.390625 51.425781 5.390625 50.351562 C 5.390625 49.277344 11.335938 48.40625 18.671875 48.40625 C 26.007812 48.40625 31.953125 49.277344 31.953125 50.351562 C 31.953125 51.425781 26.007812 52.296875 18.671875 52.296875 " fill-opacity="1" fill-rule="nonzero"/><path fill="#2a8887" d="M 33.046875 43.011719 C 14.816406 43.011719 0.0351562 41.859375 0.0351562 40.445312 C 0.0351562 39.027344 14.816406 37.875 33.046875 37.875 C 45.65625 37.875 56.613281 38.425781 62.175781 39.234375 L 62.175781 41.652344 C 61.898438 41.695312 61.605469 41.734375 61.300781 41.773438 L 60.9375 40.398438 C 60.753906 39.707031 60.128906 39.246094 59.441406 39.246094 C 59.3125 39.246094 59.179688 39.261719 59.046875 39.296875 C 58.21875 39.515625 57.726562 40.359375 57.941406 41.183594 L 58.1875 42.105469 C 52.941406 42.585938 45.480469 42.914062 37.039062 42.992188 L 35.75 42.195312 C 35.75 42.195312 35.742188 42.246094 35.726562 42.339844 C 35.703125 42.464844 35.671875 42.6875 35.636719 43.003906 C 34.78125 43.007812 33.917969 43.011719 33.046875 43.011719 " fill-opacity="1" fill-rule="nonzero"/><path fill="#b1a8aa" d="M 3.136719 38.488281 C 3.875 39.003906 4.613281 39.523438 5.351562 40.042969 L 59.527344 40.042969 C 60.265625 39.523438 61.003906 39.003906 61.742188 38.488281 L 3.136719 38.488281 " fill-opacity="1" fill-rule="nonzero"/><g clip-path="url(#4d1e5591cd)"><path fill="#283150" d="M 58.078125 35.953125 L 58.078125 7.84375 C 58.078125 6.78125 57.210938 5.914062 56.140625 5.914062 L 8.738281 5.914062 C 7.667969 5.914062 6.800781 6.78125 6.800781 7.84375 L 6.800781 35.953125 L 58.078125 35.953125 " fill-opacity="1" fill-rule="nonzero"/></g><path fill="#cfc5c7" d="M 63.417969 38.609375 L 1.460938 38.609375 L 1.460938 35.742188 L 63.417969 35.742188 L 63.417969 38.609375 " fill-opacity="1" fill-rule="nonzero"/><path fill="#ffffff" d="M 55.308594 33.367188 L 9.570312 33.367188 L 9.570312 8.683594 L 55.308594 8.683594 L 55.308594 33.367188 " fill-opacity="1" fill-rule="nonzero"/><path fill="#ffffff" d="M 54.996094 33.367188 L 9.882812 33.367188 L 9.882812 8.691406 L 54.996094 8.691406 L 54.996094 33.367188 " fill-opacity="1" fill-rule="nonzero"/><path fill="#bbbaba" d="M 24.101562 31.917969 L 11.820312 31.917969 L 11.820312 24.472656 L 24.101562 24.472656 L 24.101562 31.917969 " fill-opacity="1" fill-rule="nonzero"/><path fill="#43c0bf" d="M 33.085938 13.183594 L 11.820312 13.183594 L 11.820312 10.335938 L 33.085938 10.335938 L 33.085938 13.183594 " fill-opacity="1" fill-rule="nonzero"/><path fill="#f8a21e" d="M 52.695312 22.410156 L 11.820312 22.410156 L 11.820312 15.4375 L 52.695312 15.4375 L 52.695312 22.410156 " fill-opacity="1" fill-rule="nonzero"/><path fill="#bbbaba" d="M 52.695312 31.917969 L 40.410156 31.917969 L 40.410156 24.472656 L 52.695312 24.472656 L 52.695312 31.917969 " fill-opacity="1" fill-rule="nonzero"/><path fill="#bbbaba" d="M 38.21875 24.863281 L 27.949219 24.863281 L 27.949219 24.472656 L 38.21875 24.472656 L 38.21875 24.863281 " fill-opacity="1" fill-rule="nonzero"/><path fill="#bbbaba" d="M 38.21875 25.761719 L 27.949219 25.761719 L 27.949219 25.367188 L 38.21875 25.367188 L 38.21875 25.761719 " fill-opacity="1" fill-rule="nonzero"/><path fill="#bbbaba" d="M 38.21875 26.65625 L 27.949219 26.65625 L 27.949219 26.261719 L 38.21875 26.261719 L 38.21875 26.65625 " fill-opacity="1" fill-rule="nonzero"/><path fill="#bbbaba" d="M 38.21875 27.554688 L 27.949219 27.554688 L 27.949219 27.160156 L 38.21875 27.160156 L 38.21875 27.554688 " fill-opacity="1" fill-rule="nonzero"/><path fill="#bbbaba" d="M 38.21875 28.449219 L 27.949219 28.449219 L 27.949219 28.054688 L 38.21875 28.054688 L 38.21875 28.449219 " fill-opacity="1" fill-rule="nonzero"/><path fill="#bbbaba" d="M 38.21875 29.34375 L 27.949219 29.34375 L 27.949219 28.949219 L 38.21875 28.949219 L 38.21875 29.34375 " fill-opacity="1" fill-rule="nonzero"/><path fill="#bbbaba" d="M 38.21875 30.242188 L 27.949219 30.242188 L 27.949219 29.847656 L 38.21875 29.847656 L 38.21875 30.242188 " fill-opacity="1" fill-rule="nonzero"/><path fill="#bbbaba" d="M 38.21875 31.136719 L 27.949219 31.136719 L 27.949219 30.742188 L 38.21875 30.742188 L 38.21875 31.136719 " fill-opacity="1" fill-rule="nonzero"/><path fill="#bbbaba" d="M 38.21875 32.03125 L 27.949219 32.03125 L 27.949219 31.640625 L 38.21875 31.640625 L 38.21875 32.03125 " fill-opacity="1" fill-rule="nonzero"/><path fill="#de4031" d="M 53.066406 12.121094 L 44.960938 12.121094 L 44.960938 10.335938 L 53.066406 10.335938 L 53.066406 12.121094 " fill-opacity="1" fill-rule="nonzero"/><path fill="#283150" d="M 26.714844 49.308594 C 26.714844 50.25 25.953125 51.011719 25.007812 51.011719 L 12.335938 51.011719 C 11.394531 51.011719 10.628906 50.25 10.628906 49.308594 L 10.628906 27.664062 C 10.628906 26.722656 11.394531 25.960938 12.335938 25.960938 L 25.007812 25.960938 C 25.953125 25.960938 26.714844 26.722656 26.714844 27.664062 L 26.714844 49.308594 " fill-opacity="1" fill-rule="nonzero"/><path fill="#ffffff" d="M 25.554688 48.253906 L 11.789062 48.253906 L 11.789062 28.367188 L 25.554688 28.367188 L 25.554688 48.253906 " fill-opacity="1" fill-rule="nonzero"/><path fill="#ffffff" d="M 22.328125 27.839844 C 22.320312 27.417969 21.976562 27.074219 21.550781 27.074219 L 15.792969 27.074219 C 15.367188 27.074219 15.023438 27.417969 15.015625 27.839844 L 22.328125 27.839844 " fill-opacity="1" fill-rule="nonzero"/><path fill="#ffffff" d="M 19.339844 49.910156 C 19.339844 50.050781 19.226562 50.164062 19.089844 50.164062 L 18.257812 50.164062 C 18.117188 50.164062 18.003906 50.050781 18.003906 49.910156 L 18.003906 49.082031 C 18.003906 48.941406 18.117188 48.828125 18.257812 48.828125 L 19.089844 48.828125 C 19.226562 48.828125 19.339844 48.941406 19.339844 49.082031 L 19.339844 49.910156 " fill-opacity="1" fill-rule="nonzero"/><path fill="#43c0bf" d="M 18.867188 31.898438 L 12.476562 31.898438 L 12.476562 30.148438 L 18.867188 30.148438 L 18.867188 31.898438 " fill-opacity="1" fill-rule="nonzero"/><path fill="#f8a21e" d="M 24.757812 38.027344 L 12.476562 38.027344 L 12.476562 32.371094 L 24.757812 32.371094 L 24.757812 38.027344 " fill-opacity="1" fill-rule="nonzero"/><path fill="#bbbaba" d="M 23.992188 39.441406 L 13.242188 39.441406 L 13.242188 39.03125 L 23.992188 39.03125 L 23.992188 39.441406 " fill-opacity="1" fill-rule="nonzero"/><path fill="#bbbaba" d="M 23.992188 40.378906 L 13.242188 40.378906 L 13.242188 39.964844 L 23.992188 39.964844 L 23.992188 40.378906 " fill-opacity="1" fill-rule="nonzero"/><path fill="#bbbaba" d="M 23.992188 41.316406 L 13.242188 41.316406 L 13.242188 40.902344 L 23.992188 40.902344 L 23.992188 41.316406 " fill-opacity="1" fill-rule="nonzero"/><path fill="#bbbaba" d="M 23.992188 42.253906 L 13.242188 42.253906 L 13.242188 41.84375 L 23.992188 41.84375 L 23.992188 42.253906 " fill-opacity="1" fill-rule="nonzero"/><path fill="#bbbaba" d="M 23.992188 43.191406 L 13.242188 43.191406 L 13.242188 42.78125 L 23.992188 42.78125 L 23.992188 43.191406 " fill-opacity="1" fill-rule="nonzero"/><path fill="#bbbaba" d="M 23.992188 44.132812 L 13.242188 44.132812 L 13.242188 43.71875 L 23.992188 43.71875 L 23.992188 44.132812 " fill-opacity="1" fill-rule="nonzero"/><path fill="#bbbaba" d="M 23.992188 45.070312 L 13.242188 45.070312 L 13.242188 44.65625 L 23.992188 44.65625 L 23.992188 45.070312 " fill-opacity="1" fill-rule="nonzero"/><path fill="#bbbaba" d="M 23.992188 46.007812 L 13.242188 46.007812 L 13.242188 45.59375 L 23.992188 45.59375 L 23.992188 46.007812 " fill-opacity="1" fill-rule="nonzero"/><path fill="#bbbaba" d="M 23.992188 46.945312 L 13.242188 46.945312 L 13.242188 46.53125 L 23.992188 46.53125 L 23.992188 46.945312 " fill-opacity="1" fill-rule="nonzero"/><path fill="#de4031" d="M 24.867188 31.246094 L 22.433594 31.246094 L 22.433594 30.148438 L 24.867188 30.148438 L 24.867188 31.246094 " fill-opacity="1" fill-rule="nonzero"/><path fill="#283150" d="M 40.976562 50.675781 C 40.285156 50.675781 39.726562 50.203125 39.726562 49.625 L 39.726562 23.460938 C 39.726562 22.882812 40.285156 22.414062 40.976562 22.414062 L 72.167969 22.414062 C 72.859375 22.414062 73.417969 22.882812 73.417969 23.460938 L 73.417969 49.625 C 73.417969 50.203125 72.859375 50.675781 72.167969 50.675781 L 40.976562 50.675781 " fill-opacity="1" fill-rule="nonzero"/><path fill="#ffffff" d="M 42.515625 49.183594 L 42.515625 23.902344 L 70.933594 23.902344 L 70.933594 49.183594 L 42.515625 49.183594 " fill-opacity="1" fill-rule="nonzero"/><path fill="#ffffff" d="M 40.703125 35.863281 C 40.574219 35.863281 40.46875 35.976562 40.46875 36.121094 L 40.46875 36.96875 C 40.46875 37.109375 40.574219 37.226562 40.703125 37.226562 L 41.476562 37.226562 C 41.605469 37.226562 41.710938 37.109375 41.710938 36.96875 L 41.710938 36.121094 C 41.710938 35.976562 41.605469 35.863281 41.476562 35.863281 L 40.703125 35.863281 " fill-opacity="1" fill-rule="nonzero"/><path fill="#ffffff" d="M 71.941406 37.125 C 71.617188 37.125 71.355469 36.863281 71.355469 36.542969 C 71.355469 36.222656 71.617188 35.960938 71.941406 35.960938 C 72.261719 35.960938 72.523438 36.222656 72.523438 36.542969 C 72.523438 36.863281 72.261719 37.125 71.941406 37.125 " fill-opacity="1" fill-rule="nonzero"/><path fill="#bbbaba" d="M 51.609375 38.867188 L 44.292969 38.867188 L 44.292969 34.429688 L 51.609375 34.429688 L 51.609375 38.867188 " fill-opacity="1" fill-rule="nonzero"/><path fill="#43c0bf" d="M 56.957031 27.710938 L 44.292969 27.710938 L 44.292969 26.015625 L 56.957031 26.015625 L 56.957031 27.710938 " fill-opacity="1" fill-rule="nonzero"/><path fill="#f8a21e" d="M 68.628906 33.207031 L 44.292969 33.207031 L 44.292969 29.054688 L 68.628906 29.054688 L 68.628906 33.207031 " fill-opacity="1" fill-rule="nonzero"/><path fill="#bbbaba" d="M 68.628906 38.867188 L 61.316406 38.867188 L 61.316406 34.429688 L 68.628906 34.429688 L 68.628906 38.867188 " fill-opacity="1" fill-rule="nonzero"/><path fill="#bbbaba" d="M 60.121094 38.867188 L 52.804688 38.867188 L 52.804688 34.429688 L 60.121094 34.429688 L 60.121094 38.867188 " fill-opacity="1" fill-rule="nonzero"/><path fill="#bbbaba" d="M 68.628906 40.25 L 44.511719 40.25 L 44.511719 40.015625 L 68.628906 40.015625 L 68.628906 40.25 " fill-opacity="1" fill-rule="nonzero"/><path fill="#bbbaba" d="M 68.628906 40.78125 L 44.511719 40.78125 L 44.511719 40.546875 L 68.628906 40.546875 L 68.628906 40.78125 " fill-opacity="1" fill-rule="nonzero"/><path fill="#bbbaba" d="M 68.628906 41.316406 L 44.511719 41.316406 L 44.511719 41.082031 L 68.628906 41.082031 L 68.628906 41.316406 " fill-opacity="1" fill-rule="nonzero"/><path fill="#bbbaba" d="M 68.628906 41.851562 L 44.511719 41.851562 L 44.511719 41.617188 L 68.628906 41.617188 L 68.628906 41.851562 " fill-opacity="1" fill-rule="nonzero"/><path fill="#bbbaba" d="M 68.628906 42.382812 L 44.511719 42.382812 L 44.511719 42.148438 L 68.628906 42.148438 L 68.628906 42.382812 " fill-opacity="1" fill-rule="nonzero"/><path fill="#bbbaba" d="M 68.628906 42.917969 L 44.511719 42.917969 L 44.511719 42.683594 L 68.628906 42.683594 L 68.628906 42.917969 " fill-opacity="1" fill-rule="nonzero"/><path fill="#bbbaba" d="M 68.628906 43.449219 L 44.511719 43.449219 L 44.511719 43.214844 L 68.628906 43.214844 L 68.628906 43.449219 " fill-opacity="1" fill-rule="nonzero"/><path fill="#bbbaba" d="M 68.628906 43.984375 L 44.511719 43.984375 L 44.511719 43.75 L 68.628906 43.75 L 68.628906 43.984375 " fill-opacity="1" fill-rule="nonzero"/><path fill="#bbbaba" d="M 68.628906 44.515625 L 44.511719 44.515625 L 44.511719 44.28125 L 68.628906 44.28125 L 68.628906 44.515625 " fill-opacity="1" fill-rule="nonzero"/><path fill="#bbbaba" d="M 68.628906 43.984375 L 44.511719 43.984375 L 44.511719 43.75 L 68.628906 43.75 L 68.628906 43.984375 " fill-opacity="1" fill-rule="nonzero"/><path fill="#bbbaba" d="M 68.628906 44.515625 L 44.511719 44.515625 L 44.511719 44.28125 L 68.628906 44.28125 L 68.628906 44.515625 " fill-opacity="1" fill-rule="nonzero"/><path fill="#bbbaba" d="M 68.628906 45.050781 L 44.511719 45.050781 L 44.511719 44.816406 L 68.628906 44.816406 L 68.628906 45.050781 " fill-opacity="1" fill-rule="nonzero"/><path fill="#bbbaba" d="M 68.628906 45.585938 L 44.511719 45.585938 L 44.511719 45.347656 L 68.628906 45.347656 L 68.628906 45.585938 " fill-opacity="1" fill-rule="nonzero"/><path fill="#bbbaba" d="M 68.628906 46.117188 L 44.511719 46.117188 L 44.511719 45.882812 L 68.628906 45.882812 L 68.628906 46.117188 " fill-opacity="1" fill-rule="nonzero"/><path fill="#bbbaba" d="M 68.628906 46.652344 L 44.511719 46.652344 L 44.511719 46.417969 L 68.628906 46.417969 L 68.628906 46.652344 " fill-opacity="1" fill-rule="nonzero"/><path fill="#bbbaba" d="M 68.628906 47.183594 L 44.511719 47.183594 L 44.511719 46.949219 L 68.628906 46.949219 L 68.628906 47.183594 " fill-opacity="1" fill-rule="nonzero"/><path fill="#bbbaba" d="M 68.628906 47.71875 L 44.511719 47.71875 L 44.511719 47.484375 L 68.628906 47.484375 L 68.628906 47.71875 " fill-opacity="1" fill-rule="nonzero"/><path fill="#bbbaba" d="M 68.628906 48.25 L 44.511719 48.25 L 44.511719 48.015625 L 68.628906 48.015625 L 68.628906 48.25 " fill-opacity="1" fill-rule="nonzero"/><path fill="#de4031" d="M 68.851562 27.082031 L 64.027344 27.082031 L 64.027344 26.015625 L 68.851562 26.015625 L 68.851562 27.082031 " fill-opacity="1" fill-rule="nonzero"/><path fill="#f8a77d" d="M 35.75 42.195312 C 35.75 42.195312 35.742188 42.246094 35.726562 42.339844 C 35.496094 43.636719 34.285156 56.410156 35.75 62.476562 L 41.089844 62.476562 C 41.089844 62.476562 40.578125 56.667969 41.925781 53.335938 C 43.273438 50.003906 41.925781 46.011719 41.925781 46.011719 L 35.75 42.195312 " fill-opacity="1" fill-rule="nonzero"/><path fill="#f8a77d" d="M 42.75 42.875 C 42.078125 43.816406 40.769531 44.03125 39.824219 43.359375 C 38.882812 42.6875 38.667969 41.382812 39.339844 40.445312 L 43.320312 34.894531 C 43.996094 33.953125 45.304688 33.738281 46.246094 34.410156 C 47.1875 35.082031 47.40625 36.386719 46.730469 37.324219 L 42.75 42.875 " fill-opacity="1" fill-rule="nonzero"/><path fill="#f8a77d" d="M 42.507812 48.492188 C 42.378906 49.640625 41.34375 50.46875 40.191406 50.339844 C 39.042969 50.210938 38.214844 49.179688 38.339844 48.03125 L 39.09375 41.25 C 39.222656 40.101562 40.257812 39.273438 41.410156 39.402344 C 42.5625 39.53125 43.390625 40.5625 43.261719 41.710938 L 42.507812 48.492188 " fill-opacity="1" fill-rule="nonzero"/><path fill="#f8a77d" d="M 39.945312 36.660156 C 39.945312 37.8125 39.003906 38.75 37.847656 38.75 C 36.691406 38.75 35.75 37.8125 35.75 36.660156 L 35.75 26.148438 C 35.75 24.996094 36.691406 24.058594 37.847656 24.058594 C 39.003906 24.058594 39.945312 24.996094 39.945312 26.148438 L 39.945312 36.660156 " fill-opacity="1" fill-rule="nonzero"/><path fill="#f8a77d" d="M 39.945312 46.621094 C 39.945312 47.773438 39.003906 48.710938 37.847656 48.710938 C 36.691406 48.710938 35.75 47.773438 35.75 46.621094 L 35.75 36.109375 C 35.75 34.953125 36.691406 34.019531 37.847656 34.019531 C 39.003906 34.019531 39.945312 34.953125 39.945312 36.109375 L 39.945312 46.621094 " fill-opacity="1" fill-rule="nonzero"/><path fill="#ffffff" d="M 33.046875 62.050781 L 41.960938 62.050781 L 41.960938 59.617188 L 33.046875 59.617188 Z M 33.046875 62.050781 " fill-opacity="1" fill-rule="nonzero"/><g clip-path="url(#ed0f11c6fe)"><path fill="#343c53" d="M 31.769531 68.914062 L 43.238281 68.914062 L 43.238281 61.488281 L 31.769531 61.488281 Z M 31.769531 68.914062 " fill-opacity="1" fill-rule="nonzero"/></g><path fill="#bbbaba" d="M 37.695312 61.488281 L 41.960938 61.488281 L 41.960938 59.617188 L 37.695312 59.617188 Z M 37.695312 61.488281 " fill-opacity="1" fill-rule="nonzero"/><g clip-path="url(#7c333223df)"><path fill="#252b3a" d="M 43.238281 68.914062 L 37.695312 68.914062 L 37.695312 61.488281 L 43.238281 61.488281 L 43.238281 68.914062 " fill-opacity="1" fill-rule="nonzero"/></g><path fill="#f8a77d" d="M 74.628906 42.265625 L 74.628906 38.941406 C 74.628906 38.210938 74.035156 37.625 73.308594 37.625 C 73.042969 37.625 72.792969 37.703125 72.589844 37.835938 L 72.589844 37.34375 C 72.589844 36.386719 71.917969 35.664062 70.851562 35.613281 C 69.894531 35.5625 69.117188 35.703125 69.117188 36.660156 L 69.117188 35.753906 C 69.117188 34.800781 68.339844 34.027344 67.382812 34.027344 C 66.421875 34.027344 65.644531 34.800781 65.644531 35.753906 L 65.644531 29.015625 C 65.644531 28.0625 64.871094 27.285156 63.910156 27.285156 C 62.953125 27.285156 62.175781 28.0625 62.175781 29.015625 L 62.175781 44.453125 C 62.175781 44.535156 62.183594 44.617188 62.195312 44.695312 C 62.160156 44.792969 62.117188 44.800781 62.0625 44.675781 L 60.9375 40.398438 C 60.722656 39.574219 59.875 39.082031 59.046875 39.296875 C 58.21875 39.515625 57.726562 40.359375 57.941406 41.183594 L 58.71875 44.132812 C 58.726562 44.175781 58.734375 44.222656 58.75 44.269531 L 60.03125 49.144531 C 60.074219 49.304688 60.140625 49.453125 60.226562 49.585938 C 60.53125 50.570312 60.984375 51.765625 61.621094 52.910156 C 61.671875 53.023438 61.738281 53.140625 61.824219 53.265625 C 63.601562 55.832031 63.640625 58.394531 63.640625 58.582031 L 63.640625 60.398438 L 71.703125 60.398438 L 71.703125 59.148438 C 71.761719 56.320312 73.164062 53.265625 73.164062 53.265625 C 74.664062 49.710938 74.664062 44.558594 74.628906 42.265625 " fill-opacity="1" fill-rule="nonzero"/><path fill="#fac19d" d="M 64.898438 30.339844 C 64.957031 30.136719 64.988281 29.914062 64.988281 29.683594 C 64.988281 28.753906 64.472656 28 63.839844 28 C 63.203125 28 62.691406 28.753906 62.691406 29.683594 C 62.691406 29.914062 62.722656 30.136719 62.78125 30.339844 L 64.898438 30.339844 " fill-opacity="1" fill-rule="nonzero"/><path fill="#fac19d" d="M 59.824219 41.71875 C 59.527344 40.835938 58.800781 40.285156 58.199219 40.488281 C 58.085938 40.523438 57.984375 40.585938 57.898438 40.667969 C 57.882812 40.835938 57.898438 41.011719 57.941406 41.183594 L 58.390625 42.886719 L 59.945312 42.371094 C 59.9375 42.160156 59.898438 41.9375 59.824219 41.71875 " fill-opacity="1" fill-rule="nonzero"/><path fill="#ffffff" d="M 62.0625 61.640625 L 73.363281 61.640625 L 73.363281 59.160156 L 62.0625 59.160156 Z M 62.0625 61.640625 " fill-opacity="1" fill-rule="nonzero"/><g clip-path="url(#849d542f57)"><path fill="#343c53" d="M 60.4375 68.914062 L 74.984375 68.914062 L 74.984375 61.070312 L 60.4375 61.070312 Z M 60.4375 68.914062 " fill-opacity="1" fill-rule="nonzero"/></g><g clip-path="url(#9dbf818734)"><path fill="#2a8887" d="M 74.984375 68.914062 L 74.984375 61.070312 L 73.363281 61.070312 L 73.363281 60.96875 L 74.984375 60.96875 L 74.984375 68.914062 M 73.324219 59.160156 L 71.703125 59.160156 L 71.703125 59.148438 L 73.324219 59.148438 L 73.324219 59.160156 " fill-opacity="1" fill-rule="nonzero"/></g><path fill="#b5795a" d="M 68.1875 59.160156 L 71.703125 59.160156 L 71.703125 59.148438 L 68.1875 59.148438 Z M 68.1875 59.160156 " fill-opacity="1" fill-rule="nonzero"/><path fill="#bbbaba" d="M 73.363281 61.070312 L 68.1875 61.070312 L 68.1875 59.160156 L 73.324219 59.160156 L 73.324219 60.96875 L 73.363281 60.96875 L 73.363281 61.070312 " fill-opacity="1" fill-rule="nonzero"/><g clip-path="url(#29ec62c7a3)"><path fill="#252b3a" d="M 74.984375 68.914062 L 68.1875 68.914062 L 68.1875 61.070312 L 74.984375 61.070312 L 74.984375 68.914062 " fill-opacity="1" fill-rule="nonzero"/></g></svg>