<svg xmlns="http://www.w3.org/2000/svg" xmlns:xlink="http://www.w3.org/1999/xlink" width="100" zoomAndPan="magnify" viewBox="0 0 75 74.999997" height="100" preserveAspectRatio="xMidYMid meet" version="1.0"><defs><clipPath id="12f36b98f2"><path d="M 37.5 23.011719 L 47.25 23.011719 L 47.25 32.761719 L 37.5 32.761719 Z M 37.5 23.011719 " clip-rule="nonzero"/></clipPath><clipPath id="c7bc830cfa"><path d="M 37.824219 26.097656 L 37.824219 24.554688 C 37.824219 24.242188 38.082031 23.988281 38.394531 23.988281 L 39.9375 23.988281 C 40.027344 23.988281 40.101562 24.058594 40.101562 24.148438 C 40.101562 24.238281 40.027344 24.3125 39.9375 24.3125 L 38.394531 24.3125 C 38.257812 24.3125 38.148438 24.421875 38.148438 24.554688 L 38.148438 26.097656 C 38.148438 26.1875 38.078125 26.261719 37.988281 26.261719 C 37.898438 26.261719 37.824219 26.1875 37.824219 26.097656 Z M 44.8125 24.3125 L 46.355469 24.3125 C 46.492188 24.3125 46.601562 24.421875 46.601562 24.554688 L 46.601562 26.097656 C 46.601562 26.1875 46.671875 26.261719 46.761719 26.261719 C 46.851562 26.261719 46.925781 26.1875 46.925781 26.097656 L 46.925781 24.554688 C 46.925781 24.242188 46.667969 23.988281 46.355469 23.988281 L 44.8125 23.988281 C 44.722656 23.988281 44.648438 24.058594 44.648438 24.148438 C 44.648438 24.238281 44.722656 24.3125 44.8125 24.3125 Z M 39.9375 31.460938 L 38.394531 31.460938 C 38.257812 31.460938 38.148438 31.351562 38.148438 31.21875 L 38.148438 29.675781 C 38.148438 29.585938 38.078125 29.511719 37.988281 29.511719 C 37.898438 29.511719 37.824219 29.585938 37.824219 29.675781 L 37.824219 31.21875 C 37.824219 31.53125 38.082031 31.785156 38.394531 31.785156 L 39.9375 31.785156 C 40.027344 31.785156 40.101562 31.714844 40.101562 31.625 C 40.101562 31.535156 40.027344 31.460938 39.9375 31.460938 Z M 46.761719 29.511719 C 46.671875 29.511719 46.601562 29.585938 46.601562 29.675781 L 46.601562 31.21875 C 46.601562 31.351562 46.492188 31.460938 46.355469 31.460938 L 44.8125 31.460938 C 44.722656 31.460938 44.648438 31.535156 44.648438 31.625 C 44.648438 31.714844 44.722656 31.785156 44.8125 31.785156 L 46.355469 31.785156 C 46.667969 31.785156 46.925781 31.53125 46.925781 31.21875 L 46.925781 29.675781 C 46.925781 29.585938 46.851562 29.511719 46.761719 29.511719 Z M 39.960938 27.601562 C 39.960938 27.601562 39.960938 27.601562 39.957031 27.605469 L 40.03125 28.265625 C 40.042969 28.378906 40.101562 28.480469 40.191406 28.546875 C 40.242188 28.585938 40.300781 28.609375 40.363281 28.621094 L 40.316406 27.601562 Z M 44.792969 27.605469 C 44.789062 27.601562 44.789062 27.601562 44.789062 27.601562 L 44.433594 27.601562 L 44.386719 28.621094 C 44.449219 28.609375 44.507812 28.585938 44.558594 28.546875 C 44.648438 28.480469 44.707031 28.378906 44.71875 28.265625 Z M 44.003906 26.609375 C 44.09375 26.703125 44.140625 26.828125 44.132812 26.957031 L 44.058594 28.6875 C 44.027344 29.636719 43.429688 30.460938 42.535156 30.785156 C 42.433594 30.820312 42.316406 30.820312 42.214844 30.785156 C 41.320312 30.460938 40.722656 29.636719 40.691406 28.6875 L 40.617188 26.957031 C 40.609375 26.828125 40.65625 26.703125 40.746094 26.609375 C 40.835938 26.515625 40.957031 26.464844 41.089844 26.464844 L 41.597656 26.464844 L 41.730469 26.992188 C 41.746094 27.058594 41.800781 27.105469 41.871094 27.113281 C 41.9375 27.121094 42.003906 27.085938 42.03125 27.023438 L 42.3125 26.464844 L 43.660156 26.464844 C 43.792969 26.464844 43.914062 26.515625 44.003906 26.609375 Z M 42.230469 28.503906 L 41.90625 29.15625 C 41.863281 29.234375 41.898438 29.332031 41.976562 29.371094 L 42.300781 29.535156 C 42.324219 29.546875 42.351562 29.550781 42.375 29.550781 C 42.433594 29.550781 42.492188 29.519531 42.519531 29.460938 C 42.558594 29.382812 42.527344 29.285156 42.449219 29.246094 L 42.269531 29.15625 L 42.519531 28.648438 C 42.558594 28.570312 42.527344 28.472656 42.449219 28.433594 C 42.367188 28.390625 42.269531 28.425781 42.230469 28.503906 Z M 41.878906 28.007812 L 41.960938 28.0625 C 41.988281 28.082031 42.019531 28.089844 42.050781 28.089844 C 42.101562 28.089844 42.152344 28.066406 42.183594 28.019531 C 42.234375 27.941406 42.214844 27.84375 42.140625 27.792969 L 42.058594 27.738281 C 41.765625 27.542969 41.425781 27.441406 41.074219 27.441406 C 40.984375 27.441406 40.914062 27.511719 40.914062 27.601562 C 40.914062 27.691406 40.984375 27.765625 41.074219 27.765625 C 41.363281 27.765625 41.640625 27.847656 41.878906 28.007812 Z M 41.726562 28.578125 C 41.816406 28.578125 41.886719 28.503906 41.886719 28.414062 L 41.886719 28.253906 C 41.886719 28.164062 41.816406 28.089844 41.726562 28.089844 C 41.636719 28.089844 41.5625 28.164062 41.5625 28.253906 L 41.5625 28.414062 C 41.5625 28.503906 41.636719 28.578125 41.726562 28.578125 Z M 42.996094 29.949219 C 42.949219 29.875 42.847656 29.855469 42.773438 29.90625 C 42.53125 30.066406 42.21875 30.066406 41.976562 29.90625 C 41.902344 29.855469 41.800781 29.875 41.753906 29.949219 C 41.703125 30.023438 41.722656 30.125 41.796875 30.175781 C 41.972656 30.292969 42.175781 30.351562 42.375 30.351562 C 42.574219 30.351562 42.777344 30.292969 42.953125 30.175781 C 43.027344 30.125 43.046875 30.023438 42.996094 29.949219 Z M 43.1875 28.253906 C 43.1875 28.164062 43.113281 28.089844 43.023438 28.089844 C 42.933594 28.089844 42.863281 28.164062 42.863281 28.253906 L 42.863281 28.414062 C 42.863281 28.503906 42.933594 28.578125 43.023438 28.578125 C 43.113281 28.578125 43.1875 28.503906 43.1875 28.414062 Z M 43.835938 27.601562 C 43.835938 27.511719 43.765625 27.441406 43.675781 27.441406 C 43.324219 27.441406 42.984375 27.542969 42.691406 27.738281 L 42.609375 27.792969 C 42.535156 27.84375 42.515625 27.941406 42.566406 28.019531 C 42.597656 28.066406 42.648438 28.089844 42.699219 28.089844 C 42.730469 28.089844 42.761719 28.082031 42.789062 28.0625 L 42.871094 28.007812 C 43.109375 27.847656 43.386719 27.765625 43.675781 27.765625 C 43.765625 27.765625 43.835938 27.691406 43.835938 27.601562 Z M 44.457031 26.972656 L 44.445312 27.277344 L 44.648438 27.277344 L 44.648438 26.1875 C 44.648438 25.535156 44.117188 25.003906 43.464844 25.003906 L 41.285156 25.003906 C 40.632812 25.003906 40.101562 25.535156 40.101562 26.1875 L 40.101562 27.277344 L 40.304688 27.277344 L 40.292969 26.972656 C 40.28125 26.753906 40.359375 26.542969 40.511719 26.386719 C 40.664062 26.226562 40.867188 26.140625 41.089844 26.140625 L 41.726562 26.140625 C 41.800781 26.140625 41.863281 26.191406 41.882812 26.261719 L 41.9375 26.488281 L 42.066406 26.230469 C 42.09375 26.175781 42.152344 26.140625 42.210938 26.140625 L 43.660156 26.140625 C 43.882812 26.140625 44.085938 26.226562 44.238281 26.386719 C 44.390625 26.542969 44.46875 26.753906 44.457031 26.972656 Z M 42.375 24.3125 C 42.464844 24.3125 42.539062 24.238281 42.539062 24.148438 L 42.539062 23.175781 C 42.539062 23.085938 42.464844 23.011719 42.375 23.011719 C 42.285156 23.011719 42.210938 23.085938 42.210938 23.175781 L 42.210938 24.148438 C 42.210938 24.238281 42.285156 24.3125 42.375 24.3125 Z M 42.375 31.460938 C 42.285156 31.460938 42.210938 31.535156 42.210938 31.625 L 42.210938 32.597656 C 42.210938 32.6875 42.285156 32.761719 42.375 32.761719 C 42.464844 32.761719 42.539062 32.6875 42.539062 32.597656 L 42.539062 31.625 C 42.539062 31.535156 42.464844 31.460938 42.375 31.460938 Z M 47.085938 27.722656 L 46.113281 27.722656 C 46.023438 27.722656 45.949219 27.796875 45.949219 27.886719 C 45.949219 27.976562 46.023438 28.050781 46.113281 28.050781 L 47.085938 28.050781 C 47.175781 28.050781 47.25 27.976562 47.25 27.886719 C 47.25 27.796875 47.175781 27.722656 47.085938 27.722656 Z M 38.800781 27.886719 C 38.800781 27.796875 38.726562 27.722656 38.636719 27.722656 L 37.664062 27.722656 C 37.574219 27.722656 37.5 27.796875 37.5 27.886719 C 37.5 27.976562 37.574219 28.050781 37.664062 28.050781 L 38.636719 28.050781 C 38.726562 28.050781 38.800781 27.976562 38.800781 27.886719 Z M 38.800781 27.886719 " clip-rule="nonzero"/></clipPath><linearGradient x1="16.000019" gradientTransform="matrix(0.0203125, 0, 0, 0.0203125, 37.174999, 22.686945)" y1="495.99999" x2="495.999976" gradientUnits="userSpaceOnUse" y2="16.000033" id="79f5835aff"><stop stop-opacity="1" stop-color="rgb(36.898804%, 73.699951%, 89.7995%)" offset="0"/><stop stop-opacity="1" stop-color="rgb(36.898804%, 73.699951%, 89.7995%)" offset="0.0625"/><stop stop-opacity="1" stop-color="rgb(36.898804%, 73.699951%, 89.7995%)" offset="0.078125"/><stop stop-opacity="1" stop-color="rgb(38.130188%, 72.886658%, 89.7995%)" offset="0.0820313"/><stop stop-opacity="1" stop-color="rgb(39.361572%, 72.073364%, 89.801025%)" offset="0.0859375"/><stop stop-opacity="1" stop-color="rgb(39.654541%, 71.842957%, 89.804077%)" offset="0.0898438"/><stop stop-opacity="1" stop-color="rgb(39.949036%, 71.614075%, 89.808655%)" offset="0.09375"/><stop stop-opacity="1" stop-color="rgb(40.24353%, 71.385193%, 89.811707%)" offset="0.0976563"/><stop stop-opacity="1" stop-color="rgb(40.538025%, 71.156311%, 89.816284%)" offset="0.101562"/><stop stop-opacity="1" stop-color="rgb(40.830994%, 70.925903%, 89.819336%)" offset="0.105469"/><stop stop-opacity="1" stop-color="rgb(41.125488%, 70.697021%, 89.823914%)" offset="0.109375"/><stop stop-opacity="1" stop-color="rgb(41.418457%, 70.46814%, 89.826965%)" offset="0.113281"/><stop stop-opacity="1" stop-color="rgb(41.712952%, 70.239258%, 89.830017%)" offset="0.117188"/><stop stop-opacity="1" stop-color="rgb(42.007446%, 70.010376%, 89.833069%)" offset="0.121094"/><stop stop-opacity="1" stop-color="rgb(42.301941%, 69.781494%, 89.837646%)" offset="0.125"/><stop stop-opacity="1" stop-color="rgb(42.59491%, 69.551086%, 89.840698%)" offset="0.128906"/><stop stop-opacity="1" stop-color="rgb(42.889404%, 69.322205%, 89.845276%)" offset="0.132813"/><stop stop-opacity="1" stop-color="rgb(43.182373%, 69.093323%, 89.848328%)" offset="0.136719"/><stop stop-opacity="1" stop-color="rgb(43.476868%, 68.864441%, 89.852905%)" offset="0.140625"/><stop stop-opacity="1" stop-color="rgb(43.771362%, 68.635559%, 89.855957%)" offset="0.144531"/><stop stop-opacity="1" stop-color="rgb(44.065857%, 68.406677%, 89.859009%)" offset="0.148438"/><stop stop-opacity="1" stop-color="rgb(44.358826%, 68.17627%, 89.862061%)" offset="0.152344"/><stop stop-opacity="1" stop-color="rgb(44.65332%, 67.947388%, 89.866638%)" offset="0.15625"/><stop stop-opacity="1" stop-color="rgb(44.946289%, 67.718506%, 89.86969%)" offset="0.160156"/><stop stop-opacity="1" stop-color="rgb(45.240784%, 67.489624%, 89.874268%)" offset="0.164063"/><stop stop-opacity="1" stop-color="rgb(45.533752%, 67.260742%, 89.877319%)" offset="0.167969"/><stop stop-opacity="1" stop-color="rgb(45.828247%, 67.03186%, 89.881897%)" offset="0.171875"/><stop stop-opacity="1" stop-color="rgb(46.122742%, 66.801453%, 89.884949%)" offset="0.175781"/><stop stop-opacity="1" stop-color="rgb(46.417236%, 66.572571%, 89.889526%)" offset="0.179688"/><stop stop-opacity="1" stop-color="rgb(46.710205%, 66.343689%, 89.892578%)" offset="0.183594"/><stop stop-opacity="1" stop-color="rgb(47.0047%, 66.114807%, 89.89563%)" offset="0.1875"/><stop stop-opacity="1" stop-color="rgb(47.297668%, 65.885925%, 89.898682%)" offset="0.191406"/><stop stop-opacity="1" stop-color="rgb(47.592163%, 65.657043%, 89.903259%)" offset="0.195313"/><stop stop-opacity="1" stop-color="rgb(47.886658%, 65.426636%, 89.906311%)" offset="0.199219"/><stop stop-opacity="1" stop-color="rgb(48.181152%, 65.197754%, 89.910889%)" offset="0.203125"/><stop stop-opacity="1" stop-color="rgb(48.474121%, 64.968872%, 89.91394%)" offset="0.207031"/><stop stop-opacity="1" stop-color="rgb(48.768616%, 64.73999%, 89.918518%)" offset="0.210938"/><stop stop-opacity="1" stop-color="rgb(49.061584%, 64.511108%, 89.92157%)" offset="0.214844"/><stop stop-opacity="1" stop-color="rgb(49.356079%, 64.282227%, 89.926147%)" offset="0.21875"/><stop stop-opacity="1" stop-color="rgb(49.650574%, 64.051819%, 89.929199%)" offset="0.222656"/><stop stop-opacity="1" stop-color="rgb(49.945068%, 63.822937%, 89.932251%)" offset="0.226563"/><stop stop-opacity="1" stop-color="rgb(50.238037%, 63.594055%, 89.935303%)" offset="0.230469"/><stop stop-opacity="1" stop-color="rgb(50.532532%, 63.365173%, 89.93988%)" offset="0.234375"/><stop stop-opacity="1" stop-color="rgb(50.8255%, 63.136292%, 89.942932%)" offset="0.238281"/><stop stop-opacity="1" stop-color="rgb(51.119995%, 62.90741%, 89.94751%)" offset="0.242187"/><stop stop-opacity="1" stop-color="rgb(51.41449%, 62.677002%, 89.950562%)" offset="0.246094"/><stop stop-opacity="1" stop-color="rgb(51.708984%, 62.44812%, 89.955139%)" offset="0.25"/><stop stop-opacity="1" stop-color="rgb(52.001953%, 62.219238%, 89.958191%)" offset="0.253906"/><stop stop-opacity="1" stop-color="rgb(52.296448%, 61.990356%, 89.961243%)" offset="0.257812"/><stop stop-opacity="1" stop-color="rgb(52.589417%, 61.759949%, 89.964294%)" offset="0.261719"/><stop stop-opacity="1" stop-color="rgb(52.883911%, 61.531067%, 89.968872%)" offset="0.265625"/><stop stop-opacity="1" stop-color="rgb(53.17688%, 61.302185%, 89.971924%)" offset="0.269531"/><stop stop-opacity="1" stop-color="rgb(53.471375%, 61.073303%, 89.976501%)" offset="0.273438"/><stop stop-opacity="1" stop-color="rgb(53.765869%, 60.844421%, 89.979553%)" offset="0.277344"/><stop stop-opacity="1" stop-color="rgb(54.060364%, 60.61554%, 89.984131%)" offset="0.28125"/><stop stop-opacity="1" stop-color="rgb(54.353333%, 60.385132%, 89.987183%)" offset="0.285156"/><stop stop-opacity="1" stop-color="rgb(54.647827%, 60.15625%, 89.99176%)" offset="0.289062"/><stop stop-opacity="1" stop-color="rgb(54.940796%, 59.927368%, 89.994812%)" offset="0.292969"/><stop stop-opacity="1" stop-color="rgb(55.235291%, 59.698486%, 89.997864%)" offset="0.296875"/><stop stop-opacity="1" stop-color="rgb(55.529785%, 59.469604%, 90.000916%)" offset="0.300781"/><stop stop-opacity="1" stop-color="rgb(55.82428%, 59.240723%, 90.005493%)" offset="0.304688"/><stop stop-opacity="1" stop-color="rgb(56.117249%, 59.010315%, 90.008545%)" offset="0.308594"/><stop stop-opacity="1" stop-color="rgb(56.411743%, 58.781433%, 90.013123%)" offset="0.3125"/><stop stop-opacity="1" stop-color="rgb(56.704712%, 58.552551%, 90.016174%)" offset="0.316406"/><stop stop-opacity="1" stop-color="rgb(56.999207%, 58.323669%, 90.020752%)" offset="0.320313"/><stop stop-opacity="1" stop-color="rgb(57.293701%, 58.094788%, 90.023804%)" offset="0.324219"/><stop stop-opacity="1" stop-color="rgb(57.588196%, 57.865906%, 90.028381%)" offset="0.328125"/><stop stop-opacity="1" stop-color="rgb(57.881165%, 57.635498%, 90.031433%)" offset="0.332031"/><stop stop-opacity="1" stop-color="rgb(58.175659%, 57.406616%, 90.034485%)" offset="0.335938"/><stop stop-opacity="1" stop-color="rgb(58.468628%, 57.177734%, 90.037537%)" offset="0.339844"/><stop stop-opacity="1" stop-color="rgb(58.763123%, 56.948853%, 90.042114%)" offset="0.34375"/><stop stop-opacity="1" stop-color="rgb(59.057617%, 56.719971%, 90.045166%)" offset="0.347656"/><stop stop-opacity="1" stop-color="rgb(59.352112%, 56.491089%, 90.049744%)" offset="0.351562"/><stop stop-opacity="1" stop-color="rgb(59.645081%, 56.260681%, 90.052795%)" offset="0.355469"/><stop stop-opacity="1" stop-color="rgb(59.939575%, 56.031799%, 90.057373%)" offset="0.359375"/><stop stop-opacity="1" stop-color="rgb(60.232544%, 55.802917%, 90.060425%)" offset="0.363281"/><stop stop-opacity="1" stop-color="rgb(60.527039%, 55.574036%, 90.063477%)" offset="0.367188"/><stop stop-opacity="1" stop-color="rgb(60.820007%, 55.345154%, 90.066528%)" offset="0.371094"/><stop stop-opacity="1" stop-color="rgb(61.114502%, 55.116272%, 90.071106%)" offset="0.375"/><stop stop-opacity="1" stop-color="rgb(61.408997%, 54.885864%, 90.074158%)" offset="0.378906"/><stop stop-opacity="1" stop-color="rgb(61.703491%, 54.656982%, 90.078735%)" offset="0.382812"/><stop stop-opacity="1" stop-color="rgb(61.99646%, 54.428101%, 90.081787%)" offset="0.386719"/><stop stop-opacity="1" stop-color="rgb(62.290955%, 54.199219%, 90.086365%)" offset="0.390625"/><stop stop-opacity="1" stop-color="rgb(62.583923%, 53.970337%, 90.089417%)" offset="0.394531"/><stop stop-opacity="1" stop-color="rgb(62.878418%, 53.741455%, 90.093994%)" offset="0.398438"/><stop stop-opacity="1" stop-color="rgb(63.172913%, 53.511047%, 90.097046%)" offset="0.402344"/><stop stop-opacity="1" stop-color="rgb(63.467407%, 53.282166%, 90.100098%)" offset="0.40625"/><stop stop-opacity="1" stop-color="rgb(63.760376%, 53.053284%, 90.103149%)" offset="0.410156"/><stop stop-opacity="1" stop-color="rgb(64.054871%, 52.824402%, 90.107727%)" offset="0.414062"/><stop stop-opacity="1" stop-color="rgb(64.347839%, 52.593994%, 90.110779%)" offset="0.417969"/><stop stop-opacity="1" stop-color="rgb(64.642334%, 52.365112%, 90.115356%)" offset="0.421875"/><stop stop-opacity="1" stop-color="rgb(64.936829%, 52.13623%, 90.118408%)" offset="0.425781"/><stop stop-opacity="1" stop-color="rgb(65.231323%, 51.907349%, 90.122986%)" offset="0.429687"/><stop stop-opacity="1" stop-color="rgb(65.524292%, 51.678467%, 90.126038%)" offset="0.433594"/><stop stop-opacity="1" stop-color="rgb(65.818787%, 51.449585%, 90.130615%)" offset="0.4375"/><stop stop-opacity="1" stop-color="rgb(66.111755%, 51.219177%, 90.133667%)" offset="0.441406"/><stop stop-opacity="1" stop-color="rgb(66.40625%, 50.990295%, 90.136719%)" offset="0.445312"/><stop stop-opacity="1" stop-color="rgb(66.700745%, 50.761414%, 90.139771%)" offset="0.449219"/><stop stop-opacity="1" stop-color="rgb(66.995239%, 50.532532%, 90.144348%)" offset="0.453125"/><stop stop-opacity="1" stop-color="rgb(67.288208%, 50.30365%, 90.1474%)" offset="0.457031"/><stop stop-opacity="1" stop-color="rgb(67.582703%, 50.074768%, 90.151978%)" offset="0.460938"/><stop stop-opacity="1" stop-color="rgb(67.875671%, 49.84436%, 90.155029%)" offset="0.464844"/><stop stop-opacity="1" stop-color="rgb(68.170166%, 49.615479%, 90.159607%)" offset="0.46875"/><stop stop-opacity="1" stop-color="rgb(68.463135%, 49.386597%, 90.162659%)" offset="0.472656"/><stop stop-opacity="1" stop-color="rgb(68.757629%, 49.157715%, 90.16571%)" offset="0.476562"/><stop stop-opacity="1" stop-color="rgb(69.052124%, 48.928833%, 90.168762%)" offset="0.480469"/><stop stop-opacity="1" stop-color="rgb(69.346619%, 48.699951%, 90.17334%)" offset="0.484375"/><stop stop-opacity="1" stop-color="rgb(69.639587%, 48.469543%, 90.176392%)" offset="0.488281"/><stop stop-opacity="1" stop-color="rgb(69.934082%, 48.240662%, 90.180969%)" offset="0.492188"/><stop stop-opacity="1" stop-color="rgb(70.227051%, 48.01178%, 90.184021%)" offset="0.496094"/><stop stop-opacity="1" stop-color="rgb(70.521545%, 47.782898%, 90.188599%)" offset="0.5"/><stop stop-opacity="1" stop-color="rgb(70.81604%, 47.554016%, 90.19165%)" offset="0.503906"/><stop stop-opacity="1" stop-color="rgb(71.110535%, 47.325134%, 90.196228%)" offset="0.507812"/><stop stop-opacity="1" stop-color="rgb(71.330261%, 47.161865%, 89.970398%)" offset="0.511719"/><stop stop-opacity="1" stop-color="rgb(71.549988%, 46.998596%, 89.744568%)" offset="0.515625"/><stop stop-opacity="1" stop-color="rgb(71.696472%, 46.899414%, 89.297485%)" offset="0.519531"/><stop stop-opacity="1" stop-color="rgb(71.844482%, 46.801758%, 88.850403%)" offset="0.523438"/><stop stop-opacity="1" stop-color="rgb(71.992493%, 46.702576%, 88.40332%)" offset="0.527344"/><stop stop-opacity="1" stop-color="rgb(72.140503%, 46.604919%, 87.956238%)" offset="0.53125"/><stop stop-opacity="1" stop-color="rgb(72.288513%, 46.505737%, 87.509155%)" offset="0.535156"/><stop stop-opacity="1" stop-color="rgb(72.436523%, 46.408081%, 87.062073%)" offset="0.539063"/><stop stop-opacity="1" stop-color="rgb(72.583008%, 46.308899%, 86.61499%)" offset="0.542969"/><stop stop-opacity="1" stop-color="rgb(72.731018%, 46.211243%, 86.167908%)" offset="0.546875"/><stop stop-opacity="1" stop-color="rgb(72.879028%, 46.112061%, 85.720825%)" offset="0.550781"/><stop stop-opacity="1" stop-color="rgb(73.027039%, 46.014404%, 85.273743%)" offset="0.554688"/><stop stop-opacity="1" stop-color="rgb(73.173523%, 45.915222%, 84.82666%)" offset="0.558594"/><stop stop-opacity="1" stop-color="rgb(73.321533%, 45.817566%, 84.379578%)" offset="0.5625"/><stop stop-opacity="1" stop-color="rgb(73.469543%, 45.718384%, 83.932495%)" offset="0.566406"/><stop stop-opacity="1" stop-color="rgb(73.617554%, 45.620728%, 83.486938%)" offset="0.570312"/><stop stop-opacity="1" stop-color="rgb(73.765564%, 45.521545%, 83.039856%)" offset="0.574219"/><stop stop-opacity="1" stop-color="rgb(73.913574%, 45.423889%, 82.592773%)" offset="0.578125"/><stop stop-opacity="1" stop-color="rgb(74.060059%, 45.324707%, 82.145691%)" offset="0.582031"/><stop stop-opacity="1" stop-color="rgb(74.208069%, 45.227051%, 81.698608%)" offset="0.585938"/><stop stop-opacity="1" stop-color="rgb(74.356079%, 45.127869%, 81.251526%)" offset="0.589844"/><stop stop-opacity="1" stop-color="rgb(74.504089%, 45.028687%, 80.804443%)" offset="0.59375"/><stop stop-opacity="1" stop-color="rgb(74.6521%, 44.929504%, 80.357361%)" offset="0.597656"/><stop stop-opacity="1" stop-color="rgb(74.80011%, 44.831848%, 79.910278%)" offset="0.601562"/><stop stop-opacity="1" stop-color="rgb(74.946594%, 44.732666%, 79.463196%)" offset="0.605469"/><stop stop-opacity="1" stop-color="rgb(75.094604%, 44.63501%, 79.016113%)" offset="0.609375"/><stop stop-opacity="1" stop-color="rgb(75.242615%, 44.535828%, 78.569031%)" offset="0.613281"/><stop stop-opacity="1" stop-color="rgb(75.390625%, 44.438171%, 78.121948%)" offset="0.617188"/><stop stop-opacity="1" stop-color="rgb(75.537109%, 44.338989%, 77.674866%)" offset="0.621094"/><stop stop-opacity="1" stop-color="rgb(75.68512%, 44.241333%, 77.227783%)" offset="0.625"/><stop stop-opacity="1" stop-color="rgb(75.83313%, 44.142151%, 76.780701%)" offset="0.628906"/><stop stop-opacity="1" stop-color="rgb(75.98114%, 44.044495%, 76.333618%)" offset="0.632813"/><stop stop-opacity="1" stop-color="rgb(76.12915%, 43.945312%, 75.886536%)" offset="0.636719"/><stop stop-opacity="1" stop-color="rgb(76.277161%, 43.847656%, 75.439453%)" offset="0.640625"/><stop stop-opacity="1" stop-color="rgb(76.423645%, 43.748474%, 74.992371%)" offset="0.644531"/><stop stop-opacity="1" stop-color="rgb(76.571655%, 43.650818%, 74.545288%)" offset="0.648438"/><stop stop-opacity="1" stop-color="rgb(76.719666%, 43.551636%, 74.098206%)" offset="0.652344"/><stop stop-opacity="1" stop-color="rgb(76.867676%, 43.453979%, 73.651123%)" offset="0.65625"/><stop stop-opacity="1" stop-color="rgb(77.015686%, 43.354797%, 73.204041%)" offset="0.660156"/><stop stop-opacity="1" stop-color="rgb(77.163696%, 43.257141%, 72.756958%)" offset="0.664062"/><stop stop-opacity="1" stop-color="rgb(77.310181%, 43.157959%, 72.309875%)" offset="0.667969"/><stop stop-opacity="1" stop-color="rgb(77.458191%, 43.060303%, 71.862793%)" offset="0.671875"/><stop stop-opacity="1" stop-color="rgb(77.606201%, 42.961121%, 71.41571%)" offset="0.675781"/><stop stop-opacity="1" stop-color="rgb(77.754211%, 42.863464%, 70.968628%)" offset="0.679688"/><stop stop-opacity="1" stop-color="rgb(77.900696%, 42.764282%, 70.521545%)" offset="0.683594"/><stop stop-opacity="1" stop-color="rgb(78.048706%, 42.6651%, 70.074463%)" offset="0.6875"/><stop stop-opacity="1" stop-color="rgb(78.196716%, 42.565918%, 69.62738%)" offset="0.691406"/><stop stop-opacity="1" stop-color="rgb(78.344727%, 42.468262%, 69.180298%)" offset="0.695312"/><stop stop-opacity="1" stop-color="rgb(78.492737%, 42.36908%, 68.733215%)" offset="0.699219"/><stop stop-opacity="1" stop-color="rgb(78.640747%, 42.271423%, 68.286133%)" offset="0.703125"/><stop stop-opacity="1" stop-color="rgb(78.787231%, 42.172241%, 67.83905%)" offset="0.707031"/><stop stop-opacity="1" stop-color="rgb(78.935242%, 42.074585%, 67.391968%)" offset="0.710938"/><stop stop-opacity="1" stop-color="rgb(79.083252%, 41.975403%, 66.944885%)" offset="0.714844"/><stop stop-opacity="1" stop-color="rgb(79.231262%, 41.877747%, 66.497803%)" offset="0.71875"/><stop stop-opacity="1" stop-color="rgb(79.379272%, 41.778564%, 66.05072%)" offset="0.722656"/><stop stop-opacity="1" stop-color="rgb(79.527283%, 41.680908%, 65.605164%)" offset="0.726562"/><stop stop-opacity="1" stop-color="rgb(79.673767%, 41.581726%, 65.158081%)" offset="0.730469"/><stop stop-opacity="1" stop-color="rgb(79.821777%, 41.48407%, 64.710999%)" offset="0.734375"/><stop stop-opacity="1" stop-color="rgb(79.969788%, 41.384888%, 64.263916%)" offset="0.738281"/><stop stop-opacity="1" stop-color="rgb(80.117798%, 41.287231%, 63.816833%)" offset="0.742188"/><stop stop-opacity="1" stop-color="rgb(80.264282%, 41.188049%, 63.369751%)" offset="0.746094"/><stop stop-opacity="1" stop-color="rgb(80.412292%, 41.090393%, 62.922668%)" offset="0.75"/><stop stop-opacity="1" stop-color="rgb(80.560303%, 40.991211%, 62.475586%)" offset="0.753906"/><stop stop-opacity="1" stop-color="rgb(80.708313%, 40.893555%, 62.028503%)" offset="0.757812"/><stop stop-opacity="1" stop-color="rgb(80.856323%, 40.794373%, 61.581421%)" offset="0.761719"/><stop stop-opacity="1" stop-color="rgb(81.004333%, 40.696716%, 61.134338%)" offset="0.765625"/><stop stop-opacity="1" stop-color="rgb(81.150818%, 40.597534%, 60.687256%)" offset="0.769531"/><stop stop-opacity="1" stop-color="rgb(81.298828%, 40.499878%, 60.240173%)" offset="0.773438"/><stop stop-opacity="1" stop-color="rgb(81.446838%, 40.400696%, 59.793091%)" offset="0.777344"/><stop stop-opacity="1" stop-color="rgb(81.594849%, 40.301514%, 59.346008%)" offset="0.78125"/><stop stop-opacity="1" stop-color="rgb(81.742859%, 40.202332%, 58.898926%)" offset="0.785156"/><stop stop-opacity="1" stop-color="rgb(81.890869%, 40.104675%, 58.451843%)" offset="0.789062"/><stop stop-opacity="1" stop-color="rgb(82.037354%, 40.005493%, 58.004761%)" offset="0.792969"/><stop stop-opacity="1" stop-color="rgb(82.185364%, 39.907837%, 57.557678%)" offset="0.796875"/><stop stop-opacity="1" stop-color="rgb(82.333374%, 39.808655%, 57.110596%)" offset="0.800781"/><stop stop-opacity="1" stop-color="rgb(82.481384%, 39.710999%, 56.663513%)" offset="0.804688"/><stop stop-opacity="1" stop-color="rgb(82.629395%, 39.611816%, 56.216431%)" offset="0.808594"/><stop stop-opacity="1" stop-color="rgb(82.777405%, 39.51416%, 55.769348%)" offset="0.8125"/><stop stop-opacity="1" stop-color="rgb(82.923889%, 39.414978%, 55.322266%)" offset="0.816406"/><stop stop-opacity="1" stop-color="rgb(83.071899%, 39.317322%, 54.875183%)" offset="0.820312"/><stop stop-opacity="1" stop-color="rgb(83.21991%, 39.21814%, 54.428101%)" offset="0.824219"/><stop stop-opacity="1" stop-color="rgb(83.36792%, 39.120483%, 53.981018%)" offset="0.828125"/><stop stop-opacity="1" stop-color="rgb(83.514404%, 39.021301%, 53.533936%)" offset="0.832031"/><stop stop-opacity="1" stop-color="rgb(83.662415%, 38.923645%, 53.086853%)" offset="0.835938"/><stop stop-opacity="1" stop-color="rgb(83.810425%, 38.824463%, 52.639771%)" offset="0.839844"/><stop stop-opacity="1" stop-color="rgb(83.958435%, 38.726807%, 52.192688%)" offset="0.84375"/><stop stop-opacity="1" stop-color="rgb(84.106445%, 38.627625%, 51.745605%)" offset="0.847656"/><stop stop-opacity="1" stop-color="rgb(84.254456%, 38.529968%, 51.298523%)" offset="0.851562"/><stop stop-opacity="1" stop-color="rgb(84.40094%, 38.430786%, 50.85144%)" offset="0.855469"/><stop stop-opacity="1" stop-color="rgb(84.54895%, 38.33313%, 50.404358%)" offset="0.859375"/><stop stop-opacity="1" stop-color="rgb(84.69696%, 38.233948%, 49.957275%)" offset="0.863281"/><stop stop-opacity="1" stop-color="rgb(84.844971%, 38.134766%, 49.510193%)" offset="0.867188"/><stop stop-opacity="1" stop-color="rgb(84.992981%, 38.035583%, 49.06311%)" offset="0.871094"/><stop stop-opacity="1" stop-color="rgb(85.140991%, 37.937927%, 48.616028%)" offset="0.875"/><stop stop-opacity="1" stop-color="rgb(85.287476%, 37.838745%, 48.168945%)" offset="0.878906"/><stop stop-opacity="1" stop-color="rgb(85.435486%, 37.741089%, 47.721863%)" offset="0.882813"/><stop stop-opacity="1" stop-color="rgb(85.583496%, 37.641907%, 47.27478%)" offset="0.886719"/><stop stop-opacity="1" stop-color="rgb(85.731506%, 37.54425%, 46.829224%)" offset="0.890625"/><stop stop-opacity="1" stop-color="rgb(85.877991%, 37.445068%, 46.382141%)" offset="0.894531"/><stop stop-opacity="1" stop-color="rgb(86.026001%, 37.347412%, 45.935059%)" offset="0.898438"/><stop stop-opacity="1" stop-color="rgb(86.174011%, 37.24823%, 45.487976%)" offset="0.902344"/><stop stop-opacity="1" stop-color="rgb(86.322021%, 37.150574%, 45.040894%)" offset="0.90625"/><stop stop-opacity="1" stop-color="rgb(86.470032%, 37.051392%, 44.593811%)" offset="0.910156"/><stop stop-opacity="1" stop-color="rgb(86.618042%, 36.953735%, 44.146729%)" offset="0.914063"/><stop stop-opacity="1" stop-color="rgb(87.608337%, 36.326599%, 41.072083%)" offset="0.917969"/><stop stop-opacity="1" stop-color="rgb(88.598633%, 35.699463%, 37.998962%)" offset="0.921875"/><stop stop-opacity="1" stop-color="rgb(88.598633%, 35.699463%, 37.998962%)" offset="0.9375"/><stop stop-opacity="1" stop-color="rgb(88.598633%, 35.699463%, 37.998962%)" offset="1"/></linearGradient><clipPath id="a82524374e"><path d="M 0.65625 70 L 74.15625 70 L 74.15625 75 L 0.65625 75 Z M 0.65625 70 " clip-rule="nonzero"/></clipPath></defs><g clip-path="url(#12f36b98f2)"><g clip-path="url(#c7bc830cfa)"><path fill="url(#79f5835aff)" d="M 37.5 23.011719 L 37.5 32.761719 L 47.25 32.761719 L 47.25 23.011719 Z M 37.5 23.011719 " fill-rule="nonzero"/></g></g><path fill="#d7d4fc" d="M 1.914062 34.460938 L 2.132812 34.460938 L 2.132812 63.429688 L 1.914062 63.429688 Z M 1.914062 34.460938 " fill-opacity="1" fill-rule="nonzero"/><path fill="#d7d4fc" d="M 6.691406 34.460938 L 6.90625 34.460938 L 6.90625 63.429688 L 6.691406 63.429688 Z M 6.691406 34.460938 " fill-opacity="1" fill-rule="nonzero"/><path fill="#d7d4fc" d="M 11.464844 34.460938 L 11.679688 34.460938 L 11.679688 63.429688 L 11.464844 63.429688 Z M 11.464844 34.460938 " fill-opacity="1" fill-rule="nonzero"/><path fill="#d7d4fc" d="M 16.234375 34.460938 L 16.453125 34.460938 L 16.453125 63.429688 L 16.234375 63.429688 Z M 16.234375 34.460938 " fill-opacity="1" fill-rule="nonzero"/><path fill="#d7d4fc" d="M 21.007812 34.460938 L 21.226562 34.460938 L 21.226562 63.429688 L 21.007812 63.429688 Z M 21.007812 34.460938 " fill-opacity="1" fill-rule="nonzero"/><path fill="#d7d4fc" d="M 25.785156 34.460938 L 26 34.460938 L 26 63.429688 L 25.785156 63.429688 Z M 25.785156 34.460938 " fill-opacity="1" fill-rule="nonzero"/><path fill="#d7d4fc" d="M 30.558594 34.460938 L 30.773438 34.460938 L 30.773438 63.429688 L 30.558594 63.429688 Z M 30.558594 34.460938 " fill-opacity="1" fill-rule="nonzero"/><path fill="#d7d4fc" d="M 35.332031 34.460938 L 35.546875 34.460938 L 35.546875 63.429688 L 35.332031 63.429688 Z M 35.332031 34.460938 " fill-opacity="1" fill-rule="nonzero"/><path fill="#d7d4fc" d="M 40.101562 34.460938 L 40.320312 34.460938 L 40.320312 63.429688 L 40.101562 63.429688 Z M 40.101562 34.460938 " fill-opacity="1" fill-rule="nonzero"/><path fill="#d7d4fc" d="M 44.875 34.460938 L 45.09375 34.460938 L 45.09375 63.429688 L 44.875 63.429688 Z M 44.875 34.460938 " fill-opacity="1" fill-rule="nonzero"/><path fill="#d7d4fc" d="M 2.097656 36.847656 L 44.910156 36.847656 L 44.910156 37.113281 L 2.097656 37.113281 Z M 2.097656 36.847656 " fill-opacity="1" fill-rule="nonzero"/><path fill="#d7d4fc" d="M 2.097656 41.632812 L 44.910156 41.632812 L 44.910156 41.898438 L 2.097656 41.898438 Z M 2.097656 41.632812 " fill-opacity="1" fill-rule="nonzero"/><path fill="#d7d4fc" d="M 2.097656 46.421875 L 44.910156 46.421875 L 44.910156 46.683594 L 2.097656 46.683594 Z M 2.097656 46.421875 " fill-opacity="1" fill-rule="nonzero"/><path fill="#d7d4fc" d="M 2.097656 51.207031 L 44.910156 51.207031 L 44.910156 51.46875 L 2.097656 51.46875 Z M 2.097656 51.207031 " fill-opacity="1" fill-rule="nonzero"/><path fill="#d7d4fc" d="M 2.097656 55.992188 L 44.910156 55.992188 L 44.910156 56.253906 L 2.097656 56.253906 Z M 2.097656 55.992188 " fill-opacity="1" fill-rule="nonzero"/><path fill="#d7d4fc" d="M 2.097656 60.777344 L 44.910156 60.777344 L 44.910156 61.039062 L 2.097656 61.039062 Z M 2.097656 60.777344 " fill-opacity="1" fill-rule="nonzero"/><path fill="#d7d4fc" d="M 66.863281 57.984375 L 21.679688 57.984375 C 21.089844 57.984375 20.613281 57.503906 20.613281 56.914062 L 20.613281 15.902344 C 20.613281 15.308594 21.09375 14.832031 21.679688 14.832031 L 66.863281 14.832031 C 67.453125 14.832031 67.929688 15.3125 67.929688 15.902344 L 67.929688 56.914062 C 67.929688 57.503906 67.449219 57.984375 66.863281 57.984375 Z M 66.863281 57.984375 " fill-opacity="1" fill-rule="nonzero"/><path fill="#1a2b47" d="M 66.863281 58.148438 L 21.679688 58.148438 C 21.003906 58.148438 20.449219 57.59375 20.449219 56.914062 L 20.449219 15.902344 C 20.449219 15.222656 21.003906 14.667969 21.679688 14.667969 L 66.863281 14.667969 C 67.539062 14.667969 68.09375 15.222656 68.09375 15.902344 L 68.09375 56.914062 C 68.09375 57.59375 67.539062 58.148438 66.863281 58.148438 Z M 21.679688 14.992188 C 21.179688 14.992188 20.773438 15.398438 20.773438 15.902344 L 20.773438 56.914062 C 20.773438 57.414062 21.179688 57.824219 21.679688 57.824219 L 66.863281 57.824219 C 67.363281 57.824219 67.769531 57.414062 67.769531 56.914062 L 67.769531 15.902344 C 67.769531 15.398438 67.363281 14.992188 66.863281 14.992188 Z M 21.679688 14.992188 " fill-opacity="1" fill-rule="nonzero"/><path fill="#1a2b47" d="M 22.097656 19.488281 L 66.445312 19.488281 L 66.445312 56.496094 L 22.097656 56.496094 Z M 22.097656 19.488281 " fill-opacity="1" fill-rule="nonzero"/><path fill="#d7d4fc" d="M 23.25 17.085938 C 23.25 17.222656 23.203125 17.339844 23.105469 17.4375 C 23.007812 17.53125 22.894531 17.582031 22.757812 17.582031 C 22.621094 17.582031 22.503906 17.53125 22.410156 17.4375 C 22.3125 17.339844 22.265625 17.222656 22.265625 17.085938 C 22.265625 16.949219 22.3125 16.835938 22.410156 16.738281 C 22.503906 16.640625 22.621094 16.59375 22.757812 16.59375 C 22.894531 16.59375 23.007812 16.640625 23.105469 16.738281 C 23.203125 16.835938 23.25 16.949219 23.25 17.085938 Z M 23.25 17.085938 " fill-opacity="1" fill-rule="nonzero"/><path fill="#d7d4fc" d="M 26.65625 17.085938 C 26.65625 17.222656 26.609375 17.339844 26.511719 17.4375 C 26.417969 17.53125 26.300781 17.582031 26.164062 17.582031 C 26.027344 17.582031 25.914062 17.53125 25.816406 17.4375 C 25.722656 17.339844 25.671875 17.222656 25.671875 17.085938 C 25.671875 16.949219 25.722656 16.835938 25.816406 16.738281 C 25.914062 16.640625 26.027344 16.59375 26.164062 16.59375 C 26.300781 16.59375 26.417969 16.640625 26.511719 16.738281 C 26.609375 16.835938 26.65625 16.949219 26.65625 17.085938 Z M 26.65625 17.085938 " fill-opacity="1" fill-rule="nonzero"/><path fill="#d7d4fc" d="M 24.953125 17.085938 C 24.953125 17.222656 24.90625 17.339844 24.808594 17.4375 C 24.714844 17.53125 24.597656 17.582031 24.460938 17.582031 C 24.324219 17.582031 24.210938 17.53125 24.113281 17.4375 C 24.015625 17.339844 23.96875 17.222656 23.96875 17.085938 C 23.96875 16.949219 24.015625 16.835938 24.113281 16.738281 C 24.210938 16.640625 24.324219 16.59375 24.460938 16.59375 C 24.597656 16.59375 24.714844 16.640625 24.808594 16.738281 C 24.90625 16.835938 24.953125 16.949219 24.953125 17.085938 Z M 24.953125 17.085938 " fill-opacity="1" fill-rule="nonzero"/><g clip-path="url(#a82524374e)"><path fill="#d7d4fc" d="M 74.160156 72.789062 C 74.160156 72.859375 74.101562 72.933594 73.984375 73.003906 C 73.867188 73.074219 73.6875 73.144531 73.453125 73.21875 C 73.21875 73.289062 72.925781 73.359375 72.578125 73.425781 C 72.226562 73.496094 71.824219 73.5625 71.363281 73.628906 C 70.902344 73.695312 70.386719 73.761719 69.820312 73.824219 C 69.253906 73.886719 68.636719 73.949219 67.964844 74.011719 C 67.296875 74.070312 66.582031 74.128906 65.816406 74.183594 C 65.054688 74.238281 64.246094 74.292969 63.394531 74.34375 C 62.542969 74.394531 61.652344 74.441406 60.722656 74.488281 C 59.792969 74.535156 58.828125 74.578125 57.824219 74.617188 C 56.824219 74.65625 55.792969 74.695312 54.730469 74.726562 C 53.671875 74.761719 52.582031 74.792969 51.472656 74.820312 C 50.359375 74.847656 49.226562 74.871094 48.074219 74.894531 C 46.921875 74.914062 45.757812 74.929688 44.578125 74.945312 C 43.394531 74.960938 42.207031 74.96875 41.007812 74.976562 C 39.8125 74.984375 38.609375 74.988281 37.40625 74.988281 C 36.203125 74.988281 35 74.984375 33.804688 74.976562 C 32.605469 74.96875 31.417969 74.960938 30.234375 74.945312 C 29.054688 74.929688 27.890625 74.914062 26.738281 74.894531 C 25.585938 74.871094 24.453125 74.847656 23.339844 74.820312 C 22.230469 74.792969 21.140625 74.761719 20.082031 74.726562 C 19.019531 74.695312 17.988281 74.65625 16.988281 74.617188 C 15.984375 74.578125 15.019531 74.535156 14.089844 74.488281 C 13.160156 74.441406 12.269531 74.394531 11.417969 74.34375 C 10.566406 74.292969 9.757812 74.238281 8.996094 74.183594 C 8.230469 74.128906 7.515625 74.070312 6.847656 74.011719 C 6.175781 73.949219 5.558594 73.886719 4.992188 73.824219 C 4.425781 73.761719 3.910156 73.695312 3.449219 73.628906 C 2.988281 73.5625 2.585938 73.496094 2.234375 73.425781 C 1.886719 73.359375 1.59375 73.289062 1.359375 73.21875 C 1.125 73.144531 0.945312 73.074219 0.828125 73.003906 C 0.710938 72.933594 0.652344 72.859375 0.652344 72.789062 C 0.652344 72.714844 0.710938 72.644531 0.828125 72.574219 C 0.945312 72.5 1.125 72.429688 1.359375 72.359375 C 1.59375 72.289062 1.886719 72.21875 2.234375 72.148438 C 2.585938 72.082031 2.988281 72.011719 3.449219 71.945312 C 3.910156 71.878906 4.425781 71.816406 4.992188 71.75 C 5.558594 71.6875 6.175781 71.625 6.847656 71.566406 C 7.515625 71.507812 8.230469 71.449219 8.996094 71.394531 C 9.757812 71.335938 10.566406 71.285156 11.417969 71.234375 C 12.269531 71.183594 13.160156 71.132812 14.089844 71.085938 C 15.019531 71.042969 15.984375 71 16.988281 70.960938 C 17.988281 70.917969 19.019531 70.882812 20.082031 70.847656 C 21.140625 70.8125 22.230469 70.785156 23.339844 70.757812 C 24.453125 70.726562 25.585938 70.703125 26.738281 70.683594 C 27.890625 70.664062 29.054688 70.644531 30.234375 70.628906 C 31.417969 70.617188 32.605469 70.605469 33.804688 70.597656 C 35 70.59375 36.203125 70.589844 37.40625 70.589844 C 38.609375 70.589844 39.8125 70.59375 41.007812 70.597656 C 42.207031 70.605469 43.394531 70.617188 44.578125 70.628906 C 45.757812 70.644531 46.921875 70.664062 48.074219 70.683594 C 49.226562 70.703125 50.359375 70.726562 51.472656 70.757812 C 52.582031 70.785156 53.671875 70.8125 54.730469 70.847656 C 55.792969 70.882812 56.824219 70.917969 57.824219 70.960938 C 58.828125 71 59.792969 71.042969 60.722656 71.085938 C 61.652344 71.132812 62.542969 71.183594 63.394531 71.234375 C 64.246094 71.285156 65.054688 71.335938 65.816406 71.394531 C 66.582031 71.449219 67.296875 71.507812 67.964844 71.566406 C 68.636719 71.625 69.253906 71.6875 69.820312 71.75 C 70.386719 71.816406 70.902344 71.878906 71.363281 71.945312 C 71.824219 72.011719 72.226562 72.082031 72.578125 72.148438 C 72.925781 72.21875 73.21875 72.289062 73.453125 72.359375 C 73.6875 72.429688 73.867188 72.5 73.984375 72.574219 C 74.101562 72.644531 74.160156 72.714844 74.160156 72.789062 Z M 74.160156 72.789062 " fill-opacity="1" fill-rule="nonzero"/></g><path fill="#6969e2" d="M 60.757812 52.828125 L 27.679688 52.828125 C 26.542969 52.828125 25.625 51.90625 25.625 50.769531 L 25.625 4.679688 C 25.625 3.539062 26.542969 2.617188 27.679688 2.617188 L 60.757812 2.617188 C 61.894531 2.617188 62.816406 3.539062 62.816406 4.679688 L 62.816406 50.769531 C 62.816406 51.90625 61.894531 52.828125 60.757812 52.828125 Z M 60.757812 52.828125 " fill-opacity="1" fill-rule="nonzero"/><path fill="#1a2b47" d="M 60.757812 52.984375 L 27.679688 52.984375 C 26.460938 52.984375 25.46875 51.992188 25.46875 50.769531 L 25.46875 4.679688 C 25.46875 3.457031 26.460938 2.464844 27.679688 2.464844 L 60.757812 2.464844 C 61.976562 2.464844 62.972656 3.457031 62.972656 4.679688 L 62.972656 50.769531 C 62.972656 51.992188 61.980469 52.984375 60.757812 52.984375 Z M 27.679688 2.773438 C 26.632812 2.773438 25.777344 3.628906 25.777344 4.679688 L 25.777344 50.769531 C 25.777344 51.820312 26.632812 52.675781 27.679688 52.675781 L 60.757812 52.675781 C 61.808594 52.675781 62.664062 51.820312 62.664062 50.769531 L 62.664062 4.679688 C 62.664062 3.628906 61.808594 2.773438 60.757812 2.773438 Z M 27.679688 2.773438 " fill-opacity="1" fill-rule="nonzero"/><path fill="#d7d4fc" d="M 51.257812 16.457031 C 51.257812 20.4375 48.039062 23.660156 44.070312 23.660156 C 40.105469 23.660156 36.890625 20.4375 36.890625 16.457031 C 36.890625 12.484375 40.109375 9.261719 44.070312 9.261719 L 44.070312 16.457031 Z M 51.257812 16.457031 " fill-opacity="1" fill-rule="nonzero"/><path fill="#ef5e7a" d="M 52.28125 15.433594 L 45.09375 15.433594 L 45.09375 8.234375 C 49.0625 8.234375 52.28125 11.457031 52.28125 15.433594 Z M 52.28125 15.433594 " fill-opacity="1" fill-rule="nonzero"/><path fill="#1a2b47" d="M 37.570312 22.695312 L 32.238281 22.695312 L 32.238281 22.476562 L 37.480469 22.476562 L 41.003906 18.945312 L 41.160156 19.101562 Z M 37.570312 22.695312 " fill-opacity="1" fill-rule="nonzero"/><path fill="#1a2b47" d="M 48.386719 12.472656 L 48.234375 12.316406 L 51.964844 8.578125 L 55.996094 8.578125 L 55.996094 8.796875 L 52.054688 8.796875 Z M 48.386719 12.472656 " fill-opacity="1" fill-rule="nonzero"/><path fill="#ef5e7a" d="M 56.664062 8.6875 C 56.664062 8.804688 56.625 8.902344 56.542969 8.984375 C 56.460938 9.066406 56.363281 9.109375 56.246094 9.109375 C 56.128906 9.109375 56.03125 9.066406 55.949219 8.984375 C 55.867188 8.902344 55.828125 8.804688 55.828125 8.6875 C 55.828125 8.570312 55.867188 8.472656 55.949219 8.390625 C 56.03125 8.308594 56.128906 8.265625 56.246094 8.265625 C 56.363281 8.265625 56.460938 8.308594 56.542969 8.390625 C 56.625 8.472656 56.664062 8.570312 56.664062 8.6875 Z M 56.664062 8.6875 " fill-opacity="1" fill-rule="nonzero"/><path fill="#ef5e7a" d="M 32.65625 22.585938 C 32.65625 22.703125 32.617188 22.800781 32.535156 22.882812 C 32.453125 22.964844 32.351562 23.007812 32.238281 23.007812 C 32.121094 23.007812 32.023438 22.964844 31.941406 22.882812 C 31.859375 22.800781 31.816406 22.703125 31.816406 22.585938 C 31.816406 22.46875 31.859375 22.371094 31.941406 22.289062 C 32.023438 22.207031 32.121094 22.164062 32.238281 22.164062 C 32.351562 22.164062 32.453125 22.207031 32.535156 22.289062 C 32.617188 22.371094 32.65625 22.46875 32.65625 22.585938 Z M 32.65625 22.585938 " fill-opacity="1" fill-rule="nonzero"/><path fill="#ef5e7a" d="M 37.015625 32.644531 C 37.003906 33.449219 36.636719 34.167969 36.058594 34.648438 L 37.335938 35.953125 C 38.246094 35.136719 38.828125 33.957031 38.847656 32.644531 C 38.886719 30.171875 36.917969 28.171875 34.453125 28.171875 L 34.425781 30.007812 C 35.878906 30.003906 37.039062 31.1875 37.015625 32.644531 Z M 37.015625 32.644531 " fill-opacity="1" fill-rule="nonzero"/><path fill="#d7d4fc" d="M 29.921875 32.644531 C 29.886719 35.113281 31.851562 37.117188 34.316406 37.117188 C 35.472656 37.117188 36.535156 36.675781 37.335938 35.949219 L 36.058594 34.648438 C 35.59375 35.039062 34.992188 35.277344 34.34375 35.277344 C 32.890625 35.277344 31.730469 34.097656 31.753906 32.640625 L 29.921875 32.640625 Z M 29.921875 32.644531 " fill-opacity="1" fill-rule="nonzero"/><path fill="#1a2b47" d="M 29.921875 32.644531 L 31.753906 32.644531 C 31.777344 31.1875 32.972656 30.003906 34.429688 30.003906 L 34.457031 28.167969 C 31.988281 28.171875 29.960938 30.171875 29.921875 32.644531 Z M 29.921875 32.644531 " fill-opacity="1" fill-rule="nonzero"/><path fill="#1a2b47" d="M 33.847656 32.046875 L 33.847656 32.300781 L 33.316406 32.300781 L 33.316406 32.535156 C 33.359375 32.484375 33.445312 32.449219 33.542969 32.449219 C 33.8125 32.449219 33.917969 32.65625 33.917969 32.855469 C 33.917969 33.117188 33.765625 33.289062 33.488281 33.289062 C 33.210938 33.289062 33.050781 33.132812 33.039062 32.917969 L 33.324219 32.917969 C 33.335938 32.984375 33.386719 33.039062 33.480469 33.039062 C 33.59375 33.039062 33.640625 32.960938 33.640625 32.855469 C 33.640625 32.742188 33.582031 32.683594 33.480469 32.683594 C 33.398438 32.683594 33.351562 32.726562 33.335938 32.785156 L 33.054688 32.785156 L 33.054688 32.046875 Z M 33.847656 32.046875 " fill-opacity="1" fill-rule="nonzero"/><path fill="#1a2b47" d="M 34.554688 32.023438 C 34.910156 32.023438 35.03125 32.289062 35.03125 32.652344 C 35.03125 33.019531 34.910156 33.285156 34.554688 33.285156 C 34.203125 33.285156 34.078125 33.019531 34.078125 32.652344 C 34.078125 32.289062 34.203125 32.023438 34.554688 32.023438 Z M 34.554688 32.292969 C 34.382812 32.292969 34.363281 32.460938 34.363281 32.652344 C 34.363281 32.851562 34.382812 33.011719 34.554688 33.011719 C 34.726562 33.011719 34.746094 32.851562 34.746094 32.652344 C 34.746094 32.460938 34.726562 32.292969 34.554688 32.292969 Z M 34.554688 32.292969 " fill-opacity="1" fill-rule="nonzero"/><path fill="#1a2b47" d="M 35.445312 32.074219 C 35.605469 32.074219 35.726562 32.171875 35.726562 32.359375 C 35.726562 32.550781 35.605469 32.648438 35.445312 32.648438 C 35.28125 32.648438 35.160156 32.550781 35.160156 32.359375 C 35.160156 32.171875 35.28125 32.074219 35.445312 32.074219 Z M 35.363281 32.359375 C 35.363281 32.441406 35.390625 32.476562 35.445312 32.476562 C 35.496094 32.476562 35.527344 32.441406 35.527344 32.359375 C 35.527344 32.277344 35.496094 32.242188 35.445312 32.242188 C 35.390625 32.242188 35.363281 32.277344 35.363281 32.359375 Z M 36.035156 32.09375 L 36.316406 32.09375 L 35.660156 33.289062 L 35.382812 33.289062 Z M 36.25 32.734375 C 36.410156 32.734375 36.53125 32.832031 36.53125 33.023438 C 36.53125 33.210938 36.414062 33.308594 36.25 33.308594 C 36.089844 33.308594 35.96875 33.210938 35.96875 33.023438 C 35.96875 32.832031 36.089844 32.734375 36.25 32.734375 Z M 36.167969 33.023438 C 36.167969 33.101562 36.195312 33.136719 36.25 33.136719 C 36.300781 33.136719 36.332031 33.101562 36.332031 33.023438 C 36.332031 32.941406 36.300781 32.902344 36.25 32.902344 C 36.195312 32.902344 36.167969 32.941406 36.167969 33.023438 Z M 36.167969 33.023438 " fill-opacity="1" fill-rule="nonzero"/><path fill="#6969e2" d="M 42.476562 32.28125 L 43.714844 32.285156 L 43.703125 35.394531 L 42.46875 35.390625 Z M 42.476562 32.28125 " fill-opacity="1" fill-rule="nonzero"/><path fill="#1a2b47" d="M 44.984375 31.136719 L 46.21875 31.140625 L 46.207031 35.402344 L 44.96875 35.398438 Z M 44.984375 31.136719 " fill-opacity="1" fill-rule="nonzero"/><path fill="#d7d4fc" d="M 47.492188 29.445312 L 48.730469 29.449219 L 48.710938 35.410156 L 47.472656 35.40625 Z M 47.492188 29.445312 " fill-opacity="1" fill-rule="nonzero"/><path fill="#1a2b47" d="M 49.988281 31.230469 L 51.226562 31.234375 L 51.214844 35.421875 L 49.976562 35.417969 Z M 49.988281 31.230469 " fill-opacity="1" fill-rule="nonzero"/><path fill="#d7d4fc" d="M 52.484375 33.359375 L 53.722656 33.363281 L 53.714844 35.425781 L 52.476562 35.421875 Z M 52.484375 33.359375 " fill-opacity="1" fill-rule="nonzero"/><path fill="#d7d4fc" d="M 57.503906 28.242188 L 58.742188 28.246094 L 58.71875 35.441406 L 57.480469 35.4375 Z M 57.503906 28.242188 " fill-opacity="1" fill-rule="nonzero"/><path fill="#1a2b47" d="M 55 29.851562 L 56.234375 29.855469 L 56.21875 35.433594 L 54.980469 35.429688 Z M 55 29.851562 " fill-opacity="1" fill-rule="nonzero"/><path fill="#d7d4fc" d="M 30.335938 7.03125 L 36.226562 7.03125 L 36.226562 7.589844 L 30.335938 7.589844 Z M 30.335938 7.03125 " fill-opacity="1" fill-rule="nonzero"/><path fill="#d7d4fc" d="M 30.335938 8.644531 L 36.226562 8.644531 L 36.226562 9.207031 L 30.335938 9.207031 Z M 30.335938 8.644531 " fill-opacity="1" fill-rule="nonzero"/><path fill="#1a2b47" d="M 43.152344 29.128906 L 43.058594 28.929688 L 49.050781 25.925781 L 53.199219 27.601562 L 60.015625 23.3125 L 68.496094 26.628906 L 68.417969 26.832031 L 60.039062 23.558594 L 53.21875 27.847656 L 49.058594 26.164062 Z M 43.152344 29.128906 " fill-opacity="1" fill-rule="nonzero"/><path fill="#e9a082" d="M 49.613281 26.109375 C 49.613281 26.289062 49.550781 26.441406 49.421875 26.570312 C 49.296875 26.695312 49.140625 26.761719 48.960938 26.761719 C 48.78125 26.761719 48.628906 26.695312 48.503906 26.570312 C 48.375 26.441406 48.3125 26.289062 48.3125 26.109375 C 48.3125 25.925781 48.375 25.773438 48.503906 25.648438 C 48.628906 25.519531 48.78125 25.457031 48.960938 25.457031 C 49.140625 25.457031 49.296875 25.519531 49.421875 25.648438 C 49.550781 25.773438 49.613281 25.925781 49.613281 26.109375 Z M 49.613281 26.109375 " fill-opacity="1" fill-rule="nonzero"/><path fill="#e9a082" d="M 43.816406 29.089844 C 43.816406 29.269531 43.753906 29.425781 43.625 29.550781 C 43.5 29.679688 43.34375 29.742188 43.164062 29.742188 C 42.984375 29.742188 42.832031 29.679688 42.707031 29.550781 C 42.578125 29.425781 42.515625 29.269531 42.515625 29.089844 C 42.515625 28.910156 42.578125 28.757812 42.707031 28.628906 C 42.832031 28.5 42.984375 28.4375 43.164062 28.4375 C 43.34375 28.4375 43.5 28.5 43.625 28.628906 C 43.753906 28.757812 43.816406 28.910156 43.816406 29.089844 Z M 43.816406 29.089844 " fill-opacity="1" fill-rule="nonzero"/><path fill="#e9a082" d="M 53.859375 27.722656 C 53.859375 27.902344 53.796875 28.058594 53.667969 28.183594 C 53.542969 28.3125 53.386719 28.375 53.207031 28.375 C 53.027344 28.375 52.875 28.3125 52.75 28.183594 C 52.621094 28.058594 52.558594 27.902344 52.558594 27.722656 C 52.558594 27.542969 52.621094 27.390625 52.75 27.261719 C 52.875 27.136719 53.027344 27.070312 53.207031 27.070312 C 53.386719 27.070312 53.542969 27.136719 53.667969 27.261719 C 53.796875 27.390625 53.859375 27.542969 53.859375 27.722656 Z M 53.859375 27.722656 " fill-opacity="1" fill-rule="nonzero"/><path fill="#e9a082" d="M 60.664062 23.636719 C 60.664062 23.816406 60.601562 23.96875 60.476562 24.097656 C 60.347656 24.222656 60.195312 24.289062 60.015625 24.289062 C 59.835938 24.289062 59.683594 24.222656 59.554688 24.097656 C 59.425781 23.96875 59.363281 23.816406 59.363281 23.636719 C 59.363281 23.457031 59.425781 23.300781 59.554688 23.175781 C 59.683594 23.046875 59.835938 22.984375 60.015625 22.984375 C 60.195312 22.984375 60.347656 23.046875 60.476562 23.175781 C 60.601562 23.300781 60.664062 23.457031 60.664062 23.636719 Z M 60.664062 23.636719 " fill-opacity="1" fill-rule="nonzero"/><path fill="#e9a082" d="M 69.746094 26.773438 C 69.746094 26.929688 69.714844 27.082031 69.65625 27.226562 C 69.597656 27.371094 69.511719 27.496094 69.402344 27.609375 C 69.289062 27.71875 69.164062 27.804688 69.019531 27.863281 C 68.875 27.921875 68.726562 27.953125 68.570312 27.953125 C 68.414062 27.953125 68.265625 27.921875 68.121094 27.863281 C 67.976562 27.804688 67.847656 27.71875 67.738281 27.609375 C 67.628906 27.496094 67.542969 27.371094 67.484375 27.226562 C 67.425781 27.082031 67.394531 26.929688 67.394531 26.773438 C 67.394531 26.617188 67.425781 26.46875 67.484375 26.324219 C 67.542969 26.179688 67.628906 26.050781 67.738281 25.941406 C 67.847656 25.832031 67.976562 25.746094 68.121094 25.6875 C 68.265625 25.628906 68.414062 25.597656 68.570312 25.597656 C 68.726562 25.597656 68.875 25.628906 69.019531 25.6875 C 69.164062 25.746094 69.289062 25.832031 69.402344 25.941406 C 69.511719 26.050781 69.597656 26.179688 69.65625 26.324219 C 69.714844 26.46875 69.746094 26.617188 69.746094 26.773438 Z M 69.746094 26.773438 " fill-opacity="1" fill-rule="nonzero"/><path fill="#d7d4fc" d="M 59.804688 50.125 L 28.640625 50.125 C 28.308594 50.125 28.039062 49.851562 28.039062 49.523438 L 28.039062 41.027344 C 28.039062 40.695312 28.308594 40.425781 28.640625 40.425781 L 59.800781 40.425781 C 60.132812 40.425781 60.398438 40.699219 60.398438 41.027344 L 60.398438 49.523438 C 60.402344 49.855469 60.132812 50.125 59.804688 50.125 Z M 59.804688 50.125 " fill-opacity="1" fill-rule="nonzero"/><path fill="#1a2b47" d="M 59.804688 50.171875 L 28.640625 50.171875 C 28.28125 50.171875 27.992188 49.882812 27.992188 49.523438 L 27.992188 41.027344 C 27.992188 40.667969 28.28125 40.378906 28.640625 40.378906 L 59.804688 40.378906 C 60.160156 40.378906 60.453125 40.667969 60.453125 41.027344 L 60.453125 49.523438 C 60.449219 49.882812 60.160156 50.171875 59.804688 50.171875 Z M 28.640625 40.472656 C 28.335938 40.472656 28.085938 40.722656 28.085938 41.027344 L 28.085938 49.523438 C 28.085938 49.828125 28.335938 50.078125 28.640625 50.078125 L 59.804688 50.078125 C 60.105469 50.078125 60.355469 49.828125 60.355469 49.523438 L 60.355469 41.027344 C 60.355469 40.722656 60.105469 40.472656 59.804688 40.472656 Z M 28.640625 40.472656 " fill-opacity="1" fill-rule="nonzero"/><path fill="#1a2b47" d="M 52.402344 44.636719 L 48.308594 43.46875 L 44.625 44.585938 L 44.609375 44.582031 L 38.660156 43.0625 L 34.976562 44.183594 L 34.964844 44.179688 L 29.9375 43.179688 L 29.957031 43.082031 L 34.972656 44.078125 L 38.660156 42.957031 L 38.671875 42.964844 L 44.621094 44.484375 L 48.308594 43.363281 L 52.386719 44.527344 L 55.800781 42.386719 L 58.367188 42.867188 L 58.351562 42.964844 L 55.820312 42.492188 Z M 52.402344 44.636719 " fill-opacity="1" fill-rule="nonzero"/><path fill="#1a2b47" d="M 34.964844 48.425781 L 34.863281 48.425781 L 34.863281 48.015625 L 34.964844 48.015625 Z M 34.964844 47.605469 L 34.863281 47.605469 L 34.863281 47.195312 L 34.964844 47.195312 Z M 34.964844 46.78125 L 34.863281 46.78125 L 34.863281 46.371094 L 34.964844 46.371094 Z M 34.964844 45.960938 L 34.863281 45.960938 L 34.863281 45.550781 L 34.964844 45.550781 Z M 34.964844 45.140625 L 34.863281 45.140625 L 34.863281 44.730469 L 34.964844 44.730469 Z M 34.964844 45.140625 " fill-opacity="1" fill-rule="nonzero"/><path fill="#1a2b47" d="M 38.710938 49.046875 L 38.609375 49.046875 L 38.609375 48.671875 L 38.710938 48.671875 Z M 38.710938 48.269531 L 38.609375 48.269531 L 38.609375 47.863281 L 38.710938 47.863281 Z M 38.710938 47.460938 L 38.609375 47.460938 L 38.609375 47.058594 L 38.710938 47.058594 Z M 38.710938 46.652344 L 38.609375 46.652344 L 38.609375 46.25 L 38.710938 46.25 Z M 38.710938 45.84375 L 38.609375 45.84375 L 38.609375 45.441406 L 38.710938 45.441406 Z M 38.710938 45.035156 L 38.609375 45.035156 L 38.609375 44.628906 L 38.710938 44.628906 Z M 38.710938 44.226562 L 38.609375 44.226562 L 38.609375 43.820312 L 38.710938 43.820312 Z M 38.710938 43.417969 L 38.609375 43.417969 L 38.609375 43.011719 L 38.710938 43.011719 Z M 38.710938 43.417969 " fill-opacity="1" fill-rule="nonzero"/><path fill="#1a2b47" d="M 44.671875 48.980469 L 44.570312 48.980469 L 44.570312 48.578125 L 44.671875 48.578125 Z M 44.671875 48.171875 L 44.570312 48.171875 L 44.570312 47.769531 L 44.671875 47.769531 Z M 44.671875 47.367188 L 44.570312 47.367188 L 44.570312 46.964844 L 44.671875 46.964844 Z M 44.671875 46.558594 L 44.570312 46.558594 L 44.570312 46.152344 L 44.671875 46.152344 Z M 44.671875 45.75 L 44.570312 45.75 L 44.570312 45.34375 L 44.671875 45.34375 Z M 44.671875 44.941406 L 44.570312 44.941406 L 44.570312 44.535156 L 44.671875 44.535156 Z M 44.671875 44.941406 " fill-opacity="1" fill-rule="nonzero"/><path fill="#1a2b47" d="M 52.523438 48.980469 L 52.421875 48.980469 L 52.421875 48.578125 L 52.523438 48.578125 Z M 52.523438 48.171875 L 52.421875 48.171875 L 52.421875 47.769531 L 52.523438 47.769531 Z M 52.523438 47.363281 L 52.421875 47.363281 L 52.421875 46.957031 L 52.523438 46.957031 Z M 52.523438 46.554688 L 52.421875 46.554688 L 52.421875 46.148438 L 52.523438 46.148438 Z M 52.523438 45.746094 L 52.421875 45.746094 L 52.421875 45.339844 L 52.523438 45.339844 Z M 52.523438 44.933594 L 52.421875 44.933594 L 52.421875 44.53125 L 52.523438 44.53125 Z M 52.523438 44.933594 " fill-opacity="1" fill-rule="nonzero"/><path fill="#1a2b47" d="M 48.359375 48.671875 L 48.257812 48.671875 L 48.257812 48.269531 L 48.359375 48.269531 Z M 48.359375 47.863281 L 48.257812 47.863281 L 48.257812 47.460938 L 48.359375 47.460938 Z M 48.359375 47.054688 L 48.257812 47.054688 L 48.257812 46.652344 L 48.359375 46.652344 Z M 48.359375 46.246094 L 48.257812 46.246094 L 48.257812 45.84375 L 48.359375 45.84375 Z M 48.359375 45.4375 L 48.257812 45.4375 L 48.257812 45.035156 L 48.359375 45.035156 Z M 48.359375 44.628906 L 48.257812 44.628906 L 48.257812 44.226562 L 48.359375 44.226562 Z M 48.359375 43.820312 L 48.257812 43.820312 L 48.257812 43.417969 L 48.359375 43.417969 Z M 48.359375 43.820312 " fill-opacity="1" fill-rule="nonzero"/><path fill="#1a2b47" d="M 55.863281 49.046875 L 55.761719 49.046875 L 55.761719 48.910156 L 55.863281 48.910156 Z M 55.863281 48.507812 L 55.761719 48.507812 L 55.761719 48.101562 L 55.863281 48.101562 Z M 55.863281 47.695312 L 55.761719 47.695312 L 55.761719 47.292969 L 55.863281 47.292969 Z M 55.863281 46.886719 L 55.761719 46.886719 L 55.761719 46.484375 L 55.863281 46.484375 Z M 55.863281 46.078125 L 55.761719 46.078125 L 55.761719 45.675781 L 55.863281 45.675781 Z M 55.863281 45.273438 L 55.761719 45.273438 L 55.761719 44.867188 L 55.863281 44.867188 Z M 55.863281 44.464844 L 55.761719 44.464844 L 55.761719 44.058594 L 55.863281 44.058594 Z M 55.863281 43.652344 L 55.761719 43.652344 L 55.761719 43.25 L 55.863281 43.25 Z M 55.863281 42.84375 L 55.761719 42.84375 L 55.761719 42.441406 L 55.863281 42.441406 Z M 55.863281 42.84375 " fill-opacity="1" fill-rule="nonzero"/><path fill="#ef5e7a" d="M 33.640625 49.324219 L 35.917969 49.324219 L 35.917969 49.65625 L 33.640625 49.65625 Z M 33.640625 49.324219 " fill-opacity="1" fill-rule="nonzero"/><path fill="#6969e2" d="M 37.394531 49.324219 L 39.671875 49.324219 L 39.671875 49.65625 L 37.394531 49.65625 Z M 37.394531 49.324219 " fill-opacity="1" fill-rule="nonzero"/><path fill="#ef5e7a" d="M 43.082031 49.324219 L 45.359375 49.324219 L 45.359375 49.65625 L 43.082031 49.65625 Z M 43.082031 49.324219 " fill-opacity="1" fill-rule="nonzero"/><path fill="#6969e2" d="M 47.21875 49.324219 L 49.496094 49.324219 L 49.496094 49.65625 L 47.21875 49.65625 Z M 47.21875 49.324219 " fill-opacity="1" fill-rule="nonzero"/><path fill="#6969e2" d="M 51.386719 49.324219 L 53.664062 49.324219 L 53.664062 49.65625 L 51.386719 49.65625 Z M 51.386719 49.324219 " fill-opacity="1" fill-rule="nonzero"/><path fill="#ef5e7a" d="M 54.457031 49.324219 L 56.734375 49.324219 L 56.734375 49.65625 L 54.457031 49.65625 Z M 54.457031 49.324219 " fill-opacity="1" fill-rule="nonzero"/><path fill="#e9a082" d="M 35.1875 44.132812 C 35.1875 44.207031 35.164062 44.269531 35.109375 44.324219 C 35.058594 44.375 34.992188 44.402344 34.917969 44.402344 C 34.84375 44.402344 34.78125 44.375 34.726562 44.324219 C 34.675781 44.269531 34.648438 44.207031 34.648438 44.132812 C 34.648438 44.058594 34.675781 43.996094 34.726562 43.941406 C 34.78125 43.890625 34.84375 43.863281 34.917969 43.863281 C 34.992188 43.863281 35.058594 43.890625 35.109375 43.941406 C 35.164062 43.996094 35.1875 44.058594 35.1875 44.132812 Z M 35.1875 44.132812 " fill-opacity="1" fill-rule="nonzero"/><path fill="#e9a082" d="M 38.945312 43.015625 C 38.945312 43.089844 38.917969 43.15625 38.867188 43.207031 C 38.8125 43.261719 38.75 43.289062 38.675781 43.289062 C 38.601562 43.289062 38.539062 43.261719 38.484375 43.207031 C 38.433594 43.15625 38.40625 43.089844 38.40625 43.015625 C 38.40625 42.941406 38.433594 42.878906 38.484375 42.824219 C 38.539062 42.773438 38.601562 42.746094 38.675781 42.746094 C 38.75 42.746094 38.8125 42.773438 38.867188 42.824219 C 38.917969 42.878906 38.945312 42.941406 38.945312 43.015625 Z M 38.945312 43.015625 " fill-opacity="1" fill-rule="nonzero"/><path fill="#e9a082" d="M 44.894531 44.535156 C 44.894531 44.609375 44.867188 44.671875 44.8125 44.726562 C 44.761719 44.777344 44.699219 44.804688 44.625 44.804688 C 44.550781 44.804688 44.484375 44.777344 44.433594 44.726562 C 44.378906 44.671875 44.355469 44.609375 44.355469 44.535156 C 44.355469 44.460938 44.378906 44.394531 44.433594 44.34375 C 44.484375 44.289062 44.550781 44.261719 44.625 44.261719 C 44.699219 44.261719 44.761719 44.289062 44.8125 44.34375 C 44.867188 44.394531 44.894531 44.460938 44.894531 44.535156 Z M 44.894531 44.535156 " fill-opacity="1" fill-rule="nonzero"/><path fill="#e9a082" d="M 48.578125 43.417969 C 48.578125 43.492188 48.550781 43.554688 48.496094 43.605469 C 48.445312 43.660156 48.382812 43.6875 48.308594 43.6875 C 48.234375 43.6875 48.167969 43.660156 48.117188 43.605469 C 48.0625 43.554688 48.039062 43.492188 48.039062 43.417969 C 48.039062 43.339844 48.0625 43.277344 48.117188 43.226562 C 48.167969 43.171875 48.234375 43.144531 48.308594 43.144531 C 48.382812 43.144531 48.445312 43.171875 48.496094 43.226562 C 48.550781 43.277344 48.578125 43.339844 48.578125 43.417969 Z M 48.578125 43.417969 " fill-opacity="1" fill-rule="nonzero"/><path fill="#e9a082" d="M 52.660156 44.523438 C 52.660156 44.597656 52.632812 44.660156 52.578125 44.714844 C 52.527344 44.765625 52.464844 44.792969 52.390625 44.792969 C 52.3125 44.792969 52.25 44.765625 52.199219 44.714844 C 52.144531 44.660156 52.117188 44.597656 52.117188 44.523438 C 52.117188 44.449219 52.144531 44.386719 52.199219 44.332031 C 52.25 44.277344 52.3125 44.253906 52.390625 44.253906 C 52.464844 44.253906 52.527344 44.277344 52.578125 44.332031 C 52.632812 44.386719 52.660156 44.449219 52.660156 44.523438 Z M 52.660156 44.523438 " fill-opacity="1" fill-rule="nonzero"/><path fill="#e9a082" d="M 56.082031 42.441406 C 56.082031 42.515625 56.058594 42.578125 56.003906 42.628906 C 55.953125 42.683594 55.886719 42.710938 55.8125 42.710938 C 55.738281 42.710938 55.675781 42.683594 55.621094 42.628906 C 55.570312 42.578125 55.542969 42.515625 55.542969 42.441406 C 55.542969 42.363281 55.570312 42.300781 55.621094 42.25 C 55.675781 42.195312 55.738281 42.167969 55.8125 42.167969 C 55.886719 42.167969 55.953125 42.195312 56.003906 42.25 C 56.058594 42.300781 56.082031 42.363281 56.082031 42.441406 Z M 56.082031 42.441406 " fill-opacity="1" fill-rule="nonzero"/><path fill="#d7d4fc" d="M 55.785156 9.71875 L 60.605469 9.71875 L 60.605469 10.242188 L 55.785156 10.242188 Z M 55.785156 9.71875 " fill-opacity="1" fill-rule="nonzero"/><path fill="#d7d4fc" d="M 55.785156 11.417969 L 60.605469 11.417969 L 60.605469 11.941406 L 55.785156 11.941406 Z M 55.785156 11.417969 " fill-opacity="1" fill-rule="nonzero"/><path fill="#d7d4fc" d="M 55.785156 13.117188 L 60.605469 13.117188 L 60.605469 13.640625 L 55.785156 13.640625 Z M 55.785156 13.117188 " fill-opacity="1" fill-rule="nonzero"/><path fill="#e9a082" d="M 9.175781 65.929688 C 9.175781 65.929688 11.175781 66.226562 11.269531 65.957031 C 11.65625 64.785156 11.929688 63.742188 12.214844 62.769531 C 12.246094 62.675781 12.273438 62.582031 12.300781 62.488281 C 12.699219 61.125 13.011719 58.371094 13.253906 57.195312 C 13.496094 56.007812 13.664062 54.984375 13.777344 54.261719 C 13.859375 53.734375 13.914062 53.371094 13.9375 53.21875 C 14.074219 52.464844 16.582031 42.386719 16.582031 42.386719 L 16.355469 41.644531 L 14.800781 41.125 L 11.988281 41.132812 L 11.871094 41.703125 L 11.628906 42.875 C 11.628906 42.875 11.484375 46.847656 11.15625 49.558594 C 11.058594 50.359375 10.945312 51.050781 10.820312 51.496094 C 10.464844 52.738281 10.351562 54.5625 10.257812 56.210938 L 10.25 56.367188 C 10.199219 57.21875 10.15625 58.015625 10.085938 58.652344 C 10.082031 58.695312 10.078125 58.734375 10.074219 58.777344 C 10.066406 58.84375 10.058594 58.917969 10.046875 58.996094 C 9.84375 60.675781 9.175781 65.929688 9.175781 65.929688 Z M 9.175781 65.929688 " fill-opacity="1" fill-rule="nonzero"/><path fill="#e9a082" d="M 11.628906 42.875 C 11.628906 42.875 12.148438 46.375 12.371094 48.761719 C 12.589844 51.152344 13.15625 51.433594 13.261719 54.386719 C 13.371094 57.339844 14.394531 67.382812 14.394531 67.382812 L 12.425781 68.144531 C 12.425781 68.144531 12.175781 67.621094 11.847656 66.480469 C 11.257812 64.453125 10.34375 58.71875 10.242188 57.519531 C 10.078125 55.640625 9.941406 54.300781 9.644531 53.558594 C 9.347656 52.8125 7.320312 47.523438 6.410156 43.601562 L 8.773438 41.332031 Z M 11.628906 42.875 " fill-opacity="1" fill-rule="nonzero"/><path fill="#1a2b47" d="M 11.453125 65.035156 C 11.433594 65.035156 11.421875 65.023438 11.414062 65.003906 C 10.886719 62.851562 10.289062 58.535156 10.203125 57.523438 C 10.199219 57.503906 10.21875 57.480469 10.238281 57.480469 C 10.261719 57.476562 10.28125 57.496094 10.285156 57.515625 C 10.371094 58.523438 10.964844 62.832031 11.496094 64.984375 C 11.5 65.007812 11.488281 65.027344 11.464844 65.035156 C 11.460938 65.03125 11.457031 65.035156 11.453125 65.035156 Z M 11.453125 65.035156 " fill-opacity="1" fill-rule="nonzero"/><path fill="#e9a082" d="M 13.339844 65.902344 L 13.835938 65.84375 C 13.835938 65.84375 14.167969 66.667969 14.382812 67.160156 C 14.601562 67.65625 14.734375 68.527344 14.859375 69.242188 C 14.980469 69.957031 15.253906 70.921875 15.253906 70.921875 C 15.253906 70.921875 15.65625 72.214844 15.367188 72.417969 C 15.082031 72.621094 13.382812 72.976562 13 72.761719 C 12.617188 72.550781 12.296875 72.4375 12.296875 72.4375 C 12.296875 72.4375 12.292969 70.507812 12.289062 69.425781 C 12.285156 68.34375 12.082031 66.058594 12.082031 66.058594 L 13.339844 65.902344 " fill-opacity="1" fill-rule="nonzero"/><path fill="#1a2b47" d="M 15.253906 70.921875 C 15.253906 70.921875 15.199219 71.488281 14.210938 71.59375 C 13.222656 71.695312 12.410156 71.355469 12.28125 70.609375 C 12.28125 70.609375 12.074219 72.714844 12.238281 72.960938 C 12.402344 73.207031 12.894531 73.820312 13.171875 73.890625 C 13.453125 73.957031 15.167969 73.9375 15.375 73.714844 C 15.578125 73.492188 15.667969 72.714844 15.628906 72.144531 C 15.589844 71.574219 15.253906 70.921875 15.253906 70.921875 Z M 15.253906 70.921875 " fill-opacity="1" fill-rule="nonzero"/><path fill="#e9a082" d="M 9.570312 64.777344 C 9.570312 64.777344 9.238281 65.605469 9.023438 66.097656 C 8.804688 66.589844 8.675781 67.464844 8.550781 68.179688 C 8.425781 68.894531 8.152344 69.855469 8.152344 69.855469 C 8.152344 69.855469 7.75 71.152344 8.039062 71.355469 C 8.328125 71.558594 10.023438 71.910156 10.40625 71.699219 C 10.789062 71.484375 11.109375 71.375 11.109375 71.375 C 11.109375 71.375 11.113281 69.445312 11.117188 68.359375 C 11.121094 67.277344 11.324219 64.996094 11.324219 64.996094 Z M 9.570312 64.777344 " fill-opacity="1" fill-rule="nonzero"/><path fill="#1a2b47" d="M 8.152344 69.855469 C 8.152344 69.855469 8.210938 70.421875 9.199219 70.527344 C 10.183594 70.628906 11 70.289062 11.128906 69.542969 C 11.128906 69.542969 11.335938 71.648438 11.171875 71.894531 C 11.007812 72.140625 10.515625 72.753906 10.238281 72.824219 C 9.957031 72.890625 8.242188 72.871094 8.035156 72.648438 C 7.832031 72.425781 7.742188 71.644531 7.78125 71.078125 C 7.816406 70.507812 8.152344 69.855469 8.152344 69.855469 Z M 8.152344 69.855469 " fill-opacity="1" fill-rule="nonzero"/><path fill="#ef5e7a" d="M 16.25 37.648438 C 16.25 37.648438 17.398438 40.792969 16.929688 43.792969 C 16.460938 46.796875 15.105469 51.957031 15.105469 51.957031 C 15.105469 51.957031 11.78125 53.363281 8.882812 52.425781 C 8.882812 52.425781 4.414062 41.929688 6.34375 37.816406 C 6.34375 37.8125 11.035156 36.640625 16.25 37.648438 Z M 16.25 37.648438 " fill-opacity="1" fill-rule="nonzero"/><path fill="#1a2b47" d="M 11.296875 12.191406 C 11.296875 12.191406 8.65625 12.253906 7.761719 13.863281 C 6.867188 15.472656 7.171875 17.367188 7.132812 18.632812 C 7.09375 19.894531 6.503906 21.566406 5.832031 22.15625 C 5.160156 22.746094 8.371094 22.605469 8.371094 22.605469 L 14.550781 22.546875 C 14.550781 22.546875 13.859375 21.484375 14.105469 19.875 C 14.347656 18.265625 14.402344 16.632812 14.183594 15.605469 C 13.960938 14.578125 13.257812 13.074219 12.480469 12.582031 C 12.140625 12.367188 11.296875 12.191406 11.296875 12.191406 Z M 11.296875 12.191406 " fill-opacity="1" fill-rule="nonzero"/><path fill="#e9a082" d="M 12.234375 20.21875 C 12.234375 20.21875 12.585938 22.347656 12.730469 22.671875 C 12.871094 23 10.058594 22.746094 9.46875 22.5625 C 8.882812 22.378906 8.679688 21.910156 8.679688 21.910156 C 8.679688 21.910156 9.46875 19.832031 9.246094 18.9375 C 9.023438 18.042969 12.234375 20.21875 12.234375 20.21875 Z M 12.234375 20.21875 " fill-opacity="1" fill-rule="nonzero"/><path fill="#e9a082" d="M 11.648438 20.582031 C 10.445312 20.746094 9.421875 19.472656 8.964844 18.246094 C 8.503906 17.019531 8.023438 12.609375 10.699219 12.449219 C 13.375 12.285156 13.59375 15.175781 13.628906 16.480469 C 13.664062 17.789062 13.28125 20.363281 11.648438 20.582031 Z M 11.648438 20.582031 " fill-opacity="1" fill-rule="nonzero"/><path fill="#1a2b47" d="M 11.453125 20.636719 C 10.949219 20.636719 10.402344 20.394531 9.894531 19.945312 C 9.875 19.929688 9.875 19.902344 9.890625 19.886719 C 9.90625 19.871094 9.929688 19.867188 9.949219 19.882812 C 10.511719 20.378906 11.113281 20.613281 11.644531 20.539062 C 11.828125 20.515625 12 20.457031 12.160156 20.371094 C 12.179688 20.359375 12.207031 20.367188 12.214844 20.390625 C 12.226562 20.410156 12.21875 20.433594 12.199219 20.445312 C 12.03125 20.535156 11.847656 20.59375 11.65625 20.621094 C 11.589844 20.632812 11.519531 20.636719 11.453125 20.636719 Z M 11.453125 20.636719 " fill-opacity="1" fill-rule="nonzero"/><path fill="#1a2b47" d="M 12.984375 16.566406 C 12.988281 16.734375 12.925781 16.816406 12.789062 16.820312 C 12.652344 16.828125 12.582031 16.746094 12.578125 16.578125 C 12.570312 16.414062 12.636719 16.328125 12.773438 16.324219 C 12.910156 16.320312 12.980469 16.402344 12.984375 16.566406 Z M 12.984375 16.566406 " fill-opacity="1" fill-rule="nonzero"/><path fill="#1a2b47" d="M 11.886719 18.207031 C 11.867188 18.207031 11.847656 18.191406 11.847656 18.171875 C 11.84375 18.148438 11.859375 18.128906 11.882812 18.125 L 11.941406 18.117188 C 11.992188 18.113281 12.035156 18.089844 12.0625 18.046875 C 12.089844 18.007812 12.097656 17.957031 12.082031 17.910156 L 11.996094 17.625 C 11.988281 17.605469 12.003906 17.582031 12.023438 17.574219 C 12.046875 17.566406 12.070312 17.582031 12.074219 17.601562 L 12.164062 17.886719 C 12.183594 17.957031 12.171875 18.03125 12.132812 18.09375 C 12.09375 18.15625 12.027344 18.195312 11.949219 18.199219 L 11.890625 18.207031 C 11.890625 18.207031 11.890625 18.207031 11.886719 18.207031 Z M 11.886719 18.207031 " fill-opacity="1" fill-rule="nonzero"/><path fill="#1a2b47" d="M 11.046875 16.066406 C 11.046875 16.066406 10.457031 15.949219 10.089844 16.320312 Z M 11.046875 16.066406 " fill-opacity="1" fill-rule="nonzero"/><path fill="#1a2b47" d="M 12.367188 15.980469 C 12.367188 15.980469 12.789062 15.761719 13.273438 16.050781 Z M 12.367188 15.980469 " fill-opacity="1" fill-rule="nonzero"/><path fill="#1a2b47" d="M 12.6875 16.347656 C 12.6875 16.347656 12.964844 16.183594 13.253906 16.375 C 13.253906 16.375 12.976562 16.351562 12.820312 16.433594 Z M 12.6875 16.347656 " fill-opacity="1" fill-rule="nonzero"/><path fill="#1a2b47" d="M 11.0625 16.960938 C 11.066406 17.125 11.003906 17.210938 10.867188 17.214844 C 10.730469 17.21875 10.660156 17.136719 10.65625 16.972656 C 10.648438 16.804688 10.714844 16.722656 10.851562 16.71875 C 10.984375 16.714844 11.054688 16.792969 11.0625 16.960938 Z M 11.0625 16.960938 " fill-opacity="1" fill-rule="nonzero"/><path fill="#1a2b47" d="M 10.9375 16.734375 C 10.9375 16.734375 10.648438 16.589844 10.375 16.796875 C 10.375 16.796875 10.648438 16.757812 10.8125 16.828125 Z M 10.9375 16.734375 " fill-opacity="1" fill-rule="nonzero"/><path fill="#d7d4fc" d="M 11.425781 18.90625 C 11.425781 18.90625 12.003906 19.8125 12.363281 18.769531 Z M 11.425781 18.90625 " fill-opacity="1" fill-rule="nonzero"/><path fill="#1a2b47" d="M 9.132812 17.101562 C 9.3125 16.394531 9.195312 15.75 10.304688 15.300781 C 11.664062 14.746094 11.542969 14.144531 11.542969 14.144531 C 11.542969 14.144531 12.664062 16.09375 14.183594 15.605469 C 14.183594 15.605469 13.652344 11.394531 10.53125 12.339844 C 6.710938 13.492188 7.417969 16.261719 8.398438 17.035156 C 8.554688 17.160156 9.132812 17.101562 9.132812 17.101562 Z M 9.132812 17.101562 " fill-opacity="1" fill-rule="nonzero"/><path fill="#e9a082" d="M 8.9375 17.117188 C 8.9375 17.117188 8.101562 16.894531 8.101562 17.59375 C 8.097656 18.296875 9.230469 18.84375 9.230469 18.84375 Z M 8.9375 17.117188 " fill-opacity="1" fill-rule="nonzero"/><path fill="#1a2b47" d="M 8.722656 17.527344 C 8.722656 17.527344 8.238281 17.613281 8.769531 18.152344 " fill-opacity="1" fill-rule="nonzero"/><path fill="#e9a082" d="M 22.335938 29.089844 C 22.335938 29.089844 20.304688 31.65625 18.625 32.84375 C 17.972656 33.304688 17.441406 33.835938 16.882812 33.808594 C 15.9375 31.25 17.855469 29.9375 17.855469 29.9375 C 17.855469 29.9375 20.578125 28.128906 22.136719 27.382812 C 22.136719 27.382812 22.324219 27.324219 22.757812 27.722656 C 23.195312 28.113281 22.335938 29.089844 22.335938 29.089844 Z M 22.335938 29.089844 " fill-opacity="1" fill-rule="nonzero"/><path fill="#6969e2" d="M 16.882812 33.808594 C 15.996094 33.773438 15.339844 33.292969 15.261719 32.886719 C 15.136719 32.222656 15.199219 26.585938 15.199219 26.585938 L 15.800781 23.257812 L 15.5 21.832031 C 15.5 21.832031 17.070312 22.089844 17.253906 22.945312 C 17.441406 23.796875 17.753906 29.707031 17.859375 29.933594 C 17.855469 29.9375 15.9375 31.253906 16.882812 33.808594 Z M 16.882812 33.808594 " fill-opacity="1" fill-rule="nonzero"/><path fill="#e9a082" d="M 23.300781 26.617188 C 22.699219 26.722656 22.136719 27.378906 22.136719 27.378906 L 22.296875 29.140625 C 22.394531 29.121094 22.699219 29.179688 23.171875 29.332031 C 23.5 29.4375 23.917969 29.46875 24.246094 29.429688 C 24.390625 29.414062 24.519531 29.382812 24.609375 29.339844 C 24.90625 29.203125 24.953125 28.675781 24.953125 28.675781 C 25.140625 28.609375 25.101562 28.167969 25.101562 28.167969 C 25.308594 28.097656 25.324219 27.621094 25.324219 27.621094 C 25.492188 27.554688 25.5 27.074219 25.5 27.074219 L 25.503906 27.078125 C 25.53125 27.082031 25.789062 27.121094 25.757812 26.828125 C 25.726562 26.519531 24.597656 26.492188 24.390625 26.503906 C 24.1875 26.519531 23.90625 26.511719 23.300781 26.617188 Z M 23.300781 26.617188 " fill-opacity="1" fill-rule="nonzero"/><path fill="#1a2b47" d="M 33.761719 15.5 C 31.40625 13.566406 27.9375 13.914062 26.011719 16.269531 C 24.082031 18.632812 24.425781 22.109375 26.78125 24.042969 C 29.132812 25.976562 32.605469 25.628906 34.53125 23.269531 C 36.460938 20.914062 36.113281 17.433594 33.761719 15.5 Z M 34.105469 22.917969 C 32.371094 25.042969 29.246094 25.351562 27.128906 23.613281 C 25.011719 21.875 24.703125 18.746094 26.4375 16.625 C 28.171875 14.5 31.292969 14.191406 33.410156 15.929688 C 35.527344 17.667969 35.835938 20.796875 34.105469 22.917969 Z M 34.105469 22.917969 " fill-opacity="1" fill-rule="nonzero"/><path fill="#d7d4fc" d="M 34.105469 22.917969 C 32.371094 25.042969 29.246094 25.351562 27.128906 23.613281 C 25.011719 21.875 24.703125 18.746094 26.4375 16.625 C 28.171875 14.5 31.292969 14.191406 33.410156 15.929688 C 35.527344 17.667969 35.835938 20.796875 34.105469 22.917969 Z M 34.105469 22.917969 " fill-opacity="0.5" fill-rule="nonzero"/><path fill="#1a2b47" d="M 22.679688 29.585938 C 22.464844 29.410156 22.4375 29.09375 22.617188 28.878906 L 27.144531 23.722656 L 27.507812 24.023438 L 23.378906 29.507812 C 23.210938 29.726562 22.890625 29.761719 22.679688 29.585938 Z M 22.679688 29.585938 " fill-opacity="1" fill-rule="nonzero"/><path fill="#e9a082" d="M 24.167969 27.210938 C 24.167969 27.210938 23.789062 27.394531 23.921875 27.632812 C 23.921875 27.632812 23.613281 27.871094 23.742188 28.140625 C 23.742188 28.140625 23.601562 28.542969 23.753906 28.609375 C 23.902344 28.675781 24.039062 28.445312 24.238281 28.53125 C 24.433594 28.617188 24.328125 28.957031 24.328125 28.957031 L 24.3125 29.140625 L 24.445312 29.351562 C 24.59375 29.332031 24.523438 29.382812 24.613281 29.339844 C 24.910156 29.203125 24.957031 28.675781 24.957031 28.675781 C 25.144531 28.609375 25.101562 28.167969 25.101562 28.167969 C 25.308594 28.097656 25.328125 27.621094 25.328125 27.621094 C 25.492188 27.554688 25.503906 27.074219 25.503906 27.074219 C 25.503906 27.074219 25.308594 26.839844 24.972656 26.828125 C 24.636719 26.820312 24.144531 26.925781 24.167969 27.210938 Z M 24.167969 27.210938 " fill-opacity="1" fill-rule="nonzero"/><path fill="#1a2b47" d="M 25.257812 27.644531 C 25.207031 27.5 25.085938 27.28125 24.984375 27.253906 C 24.847656 27.21875 24.355469 27.261719 24.175781 27.28125 L 24.160156 27.136719 C 24.226562 27.128906 24.832031 27.066406 25.023438 27.113281 C 25.234375 27.171875 25.378906 27.554688 25.394531 27.597656 Z M 25.257812 27.644531 " fill-opacity="1" fill-rule="nonzero"/><path fill="#1a2b47" d="M 25.03125 28.171875 C 25.023438 27.976562 24.964844 27.675781 24.863281 27.644531 C 24.710938 27.601562 24.136719 27.671875 23.933594 27.703125 L 23.910156 27.558594 C 23.992188 27.546875 24.691406 27.445312 24.898438 27.503906 C 25.140625 27.574219 25.171875 28.066406 25.175781 28.164062 Z M 25.03125 28.171875 " fill-opacity="1" fill-rule="nonzero"/><path fill="#1a2b47" d="M 24.882812 28.6875 C 24.871094 28.566406 24.792969 28.226562 24.605469 28.152344 C 24.40625 28.066406 23.925781 28.164062 23.757812 28.207031 L 23.722656 28.070312 C 23.75 28.0625 24.378906 27.898438 24.664062 28.019531 C 24.964844 28.140625 25.023438 28.652344 25.027344 28.671875 Z M 24.882812 28.6875 " fill-opacity="1" fill-rule="nonzero"/><path fill="#1a2b47" d="M 24.398438 28.980469 L 24.257812 28.9375 C 24.257812 28.933594 24.339844 28.65625 24.203125 28.59375 C 24.136719 28.566406 24.078125 28.589844 23.992188 28.632812 C 23.910156 28.671875 23.820312 28.714844 23.722656 28.671875 C 23.535156 28.589844 23.625 28.253906 23.660156 28.140625 C 23.566406 27.898438 23.746094 27.695312 23.832031 27.609375 C 23.816406 27.554688 23.816406 27.5 23.828125 27.445312 C 23.871094 27.308594 24.019531 27.207031 24.09375 27.164062 C 24.101562 27.097656 24.128906 27.035156 24.179688 26.980469 C 24.335938 26.8125 24.691406 26.746094 24.972656 26.753906 C 25.335938 26.765625 25.546875 27.019531 25.554688 27.027344 L 25.445312 27.117188 C 25.441406 27.117188 25.261719 26.910156 24.964844 26.898438 C 24.71875 26.890625 24.402344 26.949219 24.28125 27.078125 C 24.246094 27.113281 24.230469 27.15625 24.234375 27.199219 L 24.238281 27.246094 L 24.195312 27.269531 C 24.140625 27.292969 23.996094 27.382812 23.964844 27.484375 C 23.953125 27.523438 23.957031 27.554688 23.976562 27.589844 L 24.007812 27.640625 L 23.960938 27.679688 C 23.957031 27.683594 23.699219 27.886719 23.800781 28.097656 L 23.8125 28.128906 L 23.800781 28.15625 C 23.742188 28.328125 23.730469 28.511719 23.773438 28.535156 C 23.8125 28.550781 23.855469 28.53125 23.921875 28.5 C 24.007812 28.453125 24.121094 28.398438 24.257812 28.457031 C 24.464844 28.550781 24.445312 28.832031 24.398438 28.980469 Z M 24.398438 28.980469 " fill-opacity="1" fill-rule="nonzero"/><path fill="#6969e2" d="M 15.421875 30.578125 C 15.242188 28.773438 16.707031 23.199219 15.5 21.832031 C 14.78125 21.476562 12.367188 21.09375 12.363281 21.101562 C 12.15625 21.816406 12.117188 22.265625 11.585938 22.625 C 11.082031 22.964844 10.125 22.613281 9.132812 21.152344 L 6.644531 21.664062 C 6.644531 21.664062 5.976562 24.222656 5.957031 26.203125 C 5.941406 28.183594 6.34375 31.847656 6.324219 33.359375 C 6.273438 37.003906 6.042969 37.925781 6.203125 38.164062 C 6.542969 38.550781 9.5625 38.363281 12.203125 38.164062 C 12.308594 38.15625 12.449219 37.800781 12.554688 37.792969 C 12.703125 37.785156 12.847656 38.117188 12.992188 38.113281 C 14.710938 38.015625 16.222656 37.742188 16.25 37.648438 C 16.332031 37.402344 15.5 31.941406 15.421875 30.578125 Z M 15.421875 30.578125 " fill-opacity="1" fill-rule="nonzero"/><path fill="#1a2b47" d="M 11.710938 24.902344 C 11.710938 25.042969 11.640625 25.113281 11.5 25.113281 C 11.363281 25.113281 11.292969 25.042969 11.292969 24.902344 C 11.292969 24.761719 11.363281 24.691406 11.5 24.691406 C 11.640625 24.691406 11.710938 24.761719 11.710938 24.902344 Z M 11.710938 24.902344 " fill-opacity="1" fill-rule="nonzero"/><path fill="#1a2b47" d="M 11.972656 26.785156 C 11.972656 26.925781 11.90625 26.992188 11.765625 26.992188 C 11.625 26.992188 11.554688 26.925781 11.554688 26.785156 C 11.554688 26.644531 11.625 26.574219 11.765625 26.574219 C 11.90625 26.574219 11.972656 26.644531 11.972656 26.785156 Z M 11.972656 26.785156 " fill-opacity="1" fill-rule="nonzero"/><path fill="#1a2b47" d="M 12.0625 28.535156 C 12.0625 28.675781 11.992188 28.746094 11.851562 28.746094 C 11.710938 28.746094 11.644531 28.675781 11.644531 28.535156 C 11.644531 28.398438 11.710938 28.328125 11.851562 28.328125 C 11.992188 28.328125 12.0625 28.398438 12.0625 28.535156 Z M 12.0625 28.535156 " fill-opacity="1" fill-rule="nonzero"/><path fill="#1a2b47" d="M 12.0625 30.671875 C 12.0625 30.8125 11.992188 30.882812 11.851562 30.882812 C 11.710938 30.882812 11.644531 30.8125 11.644531 30.671875 C 11.644531 30.53125 11.710938 30.460938 11.851562 30.460938 C 11.992188 30.460938 12.0625 30.53125 12.0625 30.671875 Z M 12.0625 30.671875 " fill-opacity="1" fill-rule="nonzero"/><path fill="#1a2b47" d="M 12.046875 32.710938 C 12.046875 32.851562 11.976562 32.921875 11.835938 32.921875 C 11.695312 32.921875 11.625 32.851562 11.625 32.710938 C 11.625 32.574219 11.695312 32.503906 11.835938 32.503906 C 11.976562 32.503906 12.046875 32.574219 12.046875 32.710938 Z M 12.046875 32.710938 " fill-opacity="1" fill-rule="nonzero"/><path fill="#1a2b47" d="M 12.054688 34.894531 C 12.054688 35.03125 11.984375 35.101562 11.847656 35.101562 C 11.707031 35.101562 11.636719 35.03125 11.636719 34.894531 C 11.636719 34.753906 11.707031 34.683594 11.847656 34.683594 C 11.984375 34.683594 12.054688 34.753906 12.054688 34.894531 Z M 12.054688 34.894531 " fill-opacity="1" fill-rule="nonzero"/><path fill="#1a2b47" d="M 12.144531 36.742188 C 12.144531 36.882812 12.074219 36.953125 11.9375 36.953125 C 11.796875 36.953125 11.726562 36.882812 11.726562 36.742188 C 11.726562 36.601562 11.796875 36.53125 11.9375 36.53125 C 12.074219 36.53125 12.144531 36.601562 12.144531 36.742188 Z M 12.144531 36.742188 " fill-opacity="1" fill-rule="nonzero"/><path fill="#1a2b47" d="M 15.765625 33.40625 C 15.746094 33.40625 15.726562 33.390625 15.722656 33.371094 C 15.296875 29.710938 15.644531 27.144531 15.875 25.453125 C 15.914062 25.167969 15.949219 24.898438 15.976562 24.660156 C 15.980469 24.640625 16 24.621094 16.023438 24.625 C 16.042969 24.628906 16.058594 24.648438 16.058594 24.671875 C 16.03125 24.910156 15.992188 25.175781 15.957031 25.460938 C 15.726562 27.152344 15.378906 29.710938 15.804688 33.359375 C 15.808594 33.378906 15.792969 33.402344 15.769531 33.402344 C 15.765625 33.40625 15.765625 33.40625 15.765625 33.40625 Z M 15.765625 33.40625 " fill-opacity="1" fill-rule="nonzero"/><path fill="#1a2b47" d="M 9.105469 20.726562 C 9.105469 20.726562 10.003906 22.121094 11.585938 22.628906 C 11.585938 22.628906 10.835938 23.484375 10.753906 23.554688 C 10.671875 23.625 8.378906 21.328125 8.378906 21.328125 Z M 9.105469 20.726562 " fill-opacity="1" fill-rule="nonzero"/><path fill="#1a2b47" d="M 10.757812 23.59375 C 10.6875 23.59375 10.375 23.382812 8.347656 21.355469 C 8.332031 21.339844 8.332031 21.3125 8.347656 21.296875 C 8.363281 21.28125 8.390625 21.28125 8.40625 21.296875 C 9.222656 22.113281 10.550781 23.414062 10.738281 23.507812 C 10.847656 23.402344 11.355469 22.824219 11.554688 22.597656 C 11.566406 22.582031 11.59375 22.582031 11.609375 22.59375 C 11.628906 22.609375 11.628906 22.636719 11.613281 22.652344 C 11.585938 22.6875 10.863281 23.511719 10.78125 23.585938 C 10.777344 23.589844 10.769531 23.59375 10.757812 23.59375 Z M 10.757812 23.59375 " fill-opacity="1" fill-rule="nonzero"/><path fill="#1a2b47" d="M 11.582031 22.628906 L 12.320312 20.820312 L 13.160156 21.253906 C 13.160156 21.253906 12.796875 22.671875 12.503906 23.367188 Z M 11.582031 22.628906 " fill-opacity="1" fill-rule="nonzero"/><path fill="#1a2b47" d="M 12.507812 23.40625 C 12.5 23.40625 12.492188 23.402344 12.480469 23.398438 L 11.558594 22.660156 C 11.539062 22.644531 11.535156 22.621094 11.550781 22.601562 C 11.566406 22.585938 11.589844 22.582031 11.609375 22.59375 L 12.492188 23.300781 C 12.773438 22.605469 13.121094 21.261719 13.121094 21.246094 C 13.128906 21.222656 13.148438 21.210938 13.171875 21.214844 C 13.191406 21.222656 13.207031 21.242188 13.199219 21.265625 C 13.195312 21.28125 12.835938 22.695312 12.542969 23.378906 C 12.539062 23.390625 12.527344 23.402344 12.515625 23.402344 C 12.515625 23.40625 12.511719 23.40625 12.507812 23.40625 Z M 12.507812 23.40625 " fill-opacity="1" fill-rule="nonzero"/><path fill="#1a2b47" d="M 12.554688 37.835938 C 12.53125 37.835938 12.515625 37.820312 12.515625 37.796875 C 12.511719 37.769531 12.371094 35.015625 12.304688 33.242188 C 12.261719 32.199219 12.269531 30.800781 12.277344 29.566406 C 12.28125 28.6875 12.285156 27.863281 12.269531 27.332031 C 12.234375 26.082031 11.589844 22.820312 11.582031 22.785156 C 11.578125 22.765625 11.59375 22.742188 11.613281 22.738281 C 11.636719 22.734375 11.65625 22.75 11.660156 22.769531 C 11.667969 22.804688 12.316406 26.074219 12.351562 27.328125 C 12.367188 27.859375 12.363281 28.6875 12.359375 29.566406 C 12.351562 30.796875 12.34375 32.199219 12.386719 33.238281 C 12.453125 35.011719 12.59375 37.765625 12.59375 37.792969 C 12.59375 37.816406 12.578125 37.835938 12.554688 37.835938 C 12.558594 37.835938 12.554688 37.835938 12.554688 37.835938 Z M 12.554688 37.835938 " fill-opacity="1" fill-rule="nonzero"/><path fill="#e9a082" d="M 5.972656 31.898438 L 10.3125 33.546875 L 10.089844 35.453125 C 10.089844 35.453125 6.160156 34.75 4.632812 34.371094 C 3.105469 33.992188 2.917969 33.742188 2.917969 33.742188 L 2.648438 32.167969 L 4.007812 30.679688 C 4.007812 30.679688 4.96875 30.765625 4.988281 30.847656 C 5.007812 30.929688 5.972656 31.898438 5.972656 31.898438 Z M 5.972656 31.898438 " fill-opacity="1" fill-rule="nonzero"/><path fill="#e9a082" d="M 10.945312 36.578125 C 10.898438 36.351562 10.765625 36.148438 10.117188 35.667969 C 9.726562 35.378906 9.304688 34.707031 9.1875 34.523438 L 10.285156 33.523438 C 10.5625 33.683594 11.160156 33.804688 11.550781 33.945312 C 12.042969 34.121094 12.679688 34.21875 12.867188 34.59375 C 13.1875 35.230469 13.476562 36.082031 13.222656 36.191406 C 12.972656 36.296875 12.585938 35.558594 12.585938 35.558594 C 12.585938 35.558594 12.71875 36.007812 12.488281 36.167969 C 12.257812 36.324219 11.941406 36.136719 11.941406 36.136719 C 11.878906 36.472656 11.445312 36.414062 11.445312 36.414062 C 11.378906 36.710938 10.984375 36.761719 10.945312 36.578125 Z M 10.945312 36.578125 " fill-opacity="1" fill-rule="nonzero"/><path fill="#1a2b47" d="M 11.445312 36.445312 C 11.429688 36.445312 11.414062 36.433594 11.414062 36.417969 C 11.414062 36.414062 11.378906 36.046875 11.085938 35.71875 C 11.074219 35.707031 11.074219 35.6875 11.089844 35.675781 C 11.101562 35.664062 11.121094 35.664062 11.132812 35.679688 C 11.433594 36.023438 11.472656 36.398438 11.476562 36.410156 C 11.476562 36.429688 11.464844 36.445312 11.449219 36.445312 C 11.449219 36.445312 11.449219 36.445312 11.445312 36.445312 Z M 11.445312 36.445312 " fill-opacity="1" fill-rule="nonzero"/><path fill="#1a2b47" d="M 11.941406 36.167969 C 11.925781 36.167969 11.914062 36.15625 11.914062 36.140625 C 11.914062 36.136719 11.878906 35.652344 11.632812 35.3125 C 11.621094 35.300781 11.625 35.28125 11.636719 35.269531 C 11.652344 35.257812 11.671875 35.265625 11.679688 35.277344 C 11.9375 35.632812 11.972656 36.117188 11.972656 36.136719 C 11.972656 36.152344 11.960938 36.164062 11.941406 36.167969 Z M 11.941406 36.167969 " fill-opacity="1" fill-rule="nonzero"/><path fill="#1a2b47" d="M 12.585938 35.59375 C 12.570312 35.59375 12.558594 35.585938 12.554688 35.574219 C 12.550781 35.570312 12.4375 35.164062 12.125 34.859375 C 12.113281 34.847656 12.113281 34.828125 12.125 34.816406 C 12.136719 34.804688 12.160156 34.804688 12.167969 34.816406 C 12.492188 35.136719 12.609375 35.539062 12.613281 35.558594 C 12.617188 35.574219 12.609375 35.59375 12.59375 35.597656 C 12.589844 35.59375 12.589844 35.59375 12.585938 35.59375 Z M 12.585938 35.59375 " fill-opacity="1" fill-rule="nonzero"/><path fill="#6969e2" d="M 6.640625 21.664062 C 6.640625 21.664062 4.421875 21.875 3.921875 24.390625 C 3.421875 26.90625 1.664062 32.570312 2.917969 33.742188 C 2.917969 33.742188 2.980469 30.679688 5.972656 31.898438 L 6.578125 27.933594 L 6.828125 22.800781 Z M 6.640625 21.664062 " fill-opacity="1" fill-rule="nonzero"/><path fill="#1a2b47" d="M 5.757812 31.730469 C 5.75 31.730469 5.742188 31.730469 5.734375 31.722656 C 5.726562 31.71875 5.074219 31.195312 4.261719 31.074219 C 4.238281 31.070312 4.222656 31.050781 4.226562 31.027344 C 4.230469 31.003906 4.25 30.988281 4.273438 30.992188 C 5.109375 31.117188 5.777344 31.65625 5.785156 31.660156 C 5.800781 31.675781 5.804688 31.699219 5.789062 31.71875 C 5.78125 31.726562 5.773438 31.730469 5.757812 31.730469 Z M 5.757812 31.730469 " fill-opacity="1" fill-rule="nonzero"/><path fill="#1a2b47" d="M 3.828125 31.457031 C 3.8125 31.457031 3.800781 31.449219 3.792969 31.4375 C 3.785156 31.417969 3.789062 31.390625 3.808594 31.378906 C 4.289062 31.101562 4.9375 31.191406 4.964844 31.195312 C 4.984375 31.195312 5.003906 31.21875 5 31.238281 C 4.996094 31.261719 4.976562 31.277344 4.953125 31.273438 C 4.945312 31.273438 4.304688 31.183594 3.851562 31.449219 C 3.839844 31.457031 3.835938 31.457031 3.828125 31.457031 Z M 3.828125 31.457031 " fill-opacity="1" fill-rule="nonzero"/><path fill="#1a2b47" d="M 6.179688 30.484375 C 6.160156 30.484375 6.140625 30.46875 6.140625 30.445312 L 6.058594 26.273438 C 6.058594 26.25 6.074219 26.230469 6.097656 26.230469 C 6.121094 26.234375 6.140625 26.25 6.140625 26.273438 L 6.222656 30.445312 C 6.222656 30.464844 6.203125 30.484375 6.179688 30.484375 Z M 6.179688 30.484375 " fill-opacity="1" fill-rule="nonzero"/><path fill="#d7d4fc" d="M 21.5625 4.476562 C 21.5625 4.757812 21.535156 5.039062 21.480469 5.3125 C 21.425781 5.589844 21.34375 5.859375 21.238281 6.117188 C 21.128906 6.378906 21 6.625 20.84375 6.859375 C 20.6875 7.09375 20.511719 7.308594 20.3125 7.507812 C 20.113281 7.707031 19.898438 7.882812 19.664062 8.039062 C 19.429688 8.199219 19.183594 8.328125 18.925781 8.4375 C 18.664062 8.542969 18.398438 8.625 18.121094 8.679688 C 17.847656 8.734375 17.570312 8.761719 17.289062 8.761719 C 17.007812 8.761719 16.730469 8.734375 16.457031 8.679688 C 16.179688 8.625 15.914062 8.542969 15.652344 8.4375 C 15.394531 8.328125 15.148438 8.199219 14.914062 8.039062 C 14.679688 7.882812 14.464844 7.707031 14.265625 7.507812 C 14.066406 7.308594 13.890625 7.09375 13.734375 6.859375 C 13.578125 6.625 13.449219 6.378906 13.339844 6.117188 C 13.234375 5.859375 13.152344 5.589844 13.097656 5.3125 C 13.042969 5.039062 13.015625 4.757812 13.015625 4.476562 C 13.015625 4.195312 13.042969 3.917969 13.097656 3.640625 C 13.152344 3.367188 13.234375 3.097656 13.339844 2.839844 C 13.449219 2.578125 13.578125 2.332031 13.734375 2.097656 C 13.890625 1.863281 14.066406 1.648438 14.265625 1.449219 C 14.464844 1.25 14.679688 1.070312 14.914062 0.914062 C 15.148438 0.757812 15.394531 0.625 15.652344 0.519531 C 15.914062 0.410156 16.179688 0.328125 16.457031 0.273438 C 16.730469 0.21875 17.007812 0.191406 17.289062 0.191406 C 17.570312 0.191406 17.847656 0.21875 18.121094 0.273438 C 18.398438 0.328125 18.664062 0.410156 18.925781 0.519531 C 19.183594 0.625 19.429688 0.757812 19.664062 0.914062 C 19.898438 1.070312 20.113281 1.25 20.3125 1.449219 C 20.511719 1.648438 20.6875 1.863281 20.84375 2.097656 C 21 2.332031 21.128906 2.578125 21.238281 2.839844 C 21.34375 3.097656 21.425781 3.367188 21.480469 3.640625 C 21.535156 3.917969 21.5625 4.195312 21.5625 4.476562 Z M 21.5625 4.476562 " fill-opacity="1" fill-rule="nonzero"/><path fill="#d7d4fc" d="M 17.289062 8.921875 C 14.84375 8.921875 12.855469 6.929688 12.855469 4.476562 C 12.855469 2.027344 14.84375 0.0351562 17.289062 0.0351562 C 19.734375 0.0351562 21.722656 2.027344 21.722656 4.476562 C 21.722656 6.929688 19.734375 8.921875 17.289062 8.921875 Z M 17.289062 0.351562 C 15.019531 0.351562 13.171875 2.203125 13.171875 4.480469 C 13.171875 6.757812 15.019531 8.609375 17.289062 8.609375 C 19.558594 8.609375 21.40625 6.757812 21.40625 4.480469 C 21.40625 2.203125 19.558594 0.351562 17.289062 0.351562 Z M 17.289062 0.351562 " fill-opacity="1" fill-rule="nonzero"/><path fill="#6969e2" d="M 15.0625 4.308594 L 16.191406 4.308594 L 16.191406 6.125 L 15.0625 6.125 Z M 15.0625 4.308594 " fill-opacity="1" fill-rule="nonzero"/><path fill="#e9a082" d="M 16.722656 3.59375 L 17.851562 3.59375 L 17.851562 6.125 L 16.722656 6.125 Z M 16.722656 3.59375 " fill-opacity="1" fill-rule="nonzero"/><path fill="#6969e2" d="M 18.386719 2.835938 L 19.515625 2.835938 L 19.515625 6.125 L 18.386719 6.125 Z M 18.386719 2.835938 " fill-opacity="1" fill-rule="nonzero"/></svg>