<svg xmlns="http://www.w3.org/2000/svg" xmlns:xlink="http://www.w3.org/1999/xlink" width="100" zoomAndPan="magnify" viewBox="0 0 75 74.999997" height="100" preserveAspectRatio="xMidYMid meet" version="1.0"><defs><clipPath id="e628e8deea"><path d="M 7.5 19.683594 L 12.75 19.683594 L 12.75 24.933594 L 7.5 24.933594 Z M 7.5 19.683594 " clip-rule="nonzero"/></clipPath><clipPath id="0a8e7288b0"><path d="M 10 22 L 12.75 22 L 12.75 24 L 10 24 Z M 10 22 " clip-rule="nonzero"/></clipPath><clipPath id="9f09d7e4ff"><path d="M 10 23 L 12.75 23 L 12.75 24.933594 L 10 24.933594 Z M 10 23 " clip-rule="nonzero"/></clipPath><clipPath id="21edf7c05d"><path d="M 1.21875 0 L 73 0 L 73 75 L 1.21875 75 Z M 1.21875 0 " clip-rule="nonzero"/></clipPath></defs><path fill="#000000" d="M 9.816406 22.335938 L 8.21875 22.335938 C 8.105469 22.335938 8.011719 22.425781 8.011719 22.539062 L 8.011719 23.097656 C 8.011719 23.207031 8.105469 23.300781 8.21875 23.300781 L 8.488281 23.300781 L 8.488281 23.59375 C 8.488281 23.617188 8.507812 23.636719 8.53125 23.636719 L 9.5 23.636719 C 9.523438 23.636719 9.542969 23.617188 9.542969 23.59375 L 9.542969 23.300781 L 9.816406 23.300781 C 9.929688 23.300781 10.019531 23.207031 10.019531 23.097656 L 10.019531 22.539062 C 10.019531 22.425781 9.929688 22.335938 9.816406 22.335938 Z M 8.574219 23.207031 L 8.683594 23.207031 L 8.683594 23.554688 L 8.574219 23.554688 Z M 8.765625 23.207031 L 8.878906 23.207031 L 8.878906 23.554688 L 8.765625 23.554688 Z M 8.960938 23.207031 L 9.070312 23.207031 L 9.070312 23.554688 L 8.960938 23.554688 Z M 9.15625 23.207031 L 9.265625 23.207031 L 9.265625 23.554688 L 9.15625 23.554688 Z M 9.460938 23.554688 L 9.347656 23.554688 L 9.347656 23.207031 L 9.460938 23.207031 Z M 9.9375 23.097656 C 9.9375 23.164062 9.882812 23.21875 9.816406 23.21875 L 9.542969 23.21875 L 9.542969 23.164062 C 9.542969 23.140625 9.523438 23.121094 9.5 23.121094 L 8.53125 23.121094 C 8.507812 23.121094 8.488281 23.140625 8.488281 23.164062 L 8.488281 23.21875 L 8.21875 23.21875 C 8.152344 23.21875 8.097656 23.164062 8.097656 23.097656 L 8.097656 22.539062 C 8.097656 22.472656 8.152344 22.417969 8.21875 22.417969 L 9.816406 22.417969 C 9.882812 22.417969 9.9375 22.472656 9.9375 22.539062 Z M 9.9375 23.097656 " fill-opacity="1" fill-rule="nonzero"/><path fill="#000000" d="M 8.621094 22.65625 C 8.53125 22.65625 8.457031 22.726562 8.457031 22.816406 C 8.457031 22.90625 8.53125 22.980469 8.621094 22.980469 C 8.707031 22.980469 8.78125 22.90625 8.78125 22.816406 C 8.78125 22.726562 8.707031 22.65625 8.621094 22.65625 Z M 8.621094 22.894531 C 8.574219 22.894531 8.539062 22.859375 8.539062 22.816406 C 8.539062 22.773438 8.574219 22.738281 8.621094 22.738281 C 8.664062 22.738281 8.699219 22.773438 8.699219 22.816406 C 8.699219 22.859375 8.664062 22.894531 8.621094 22.894531 Z M 8.621094 22.894531 " fill-opacity="1" fill-rule="nonzero"/><path fill="#000000" d="M 9.414062 22.65625 C 9.324219 22.65625 9.25 22.726562 9.25 22.816406 C 9.25 22.90625 9.324219 22.980469 9.414062 22.980469 C 9.503906 22.980469 9.574219 22.90625 9.574219 22.816406 C 9.574219 22.726562 9.503906 22.65625 9.414062 22.65625 Z M 9.414062 22.894531 C 9.371094 22.894531 9.335938 22.859375 9.335938 22.816406 C 9.335938 22.773438 9.371094 22.738281 9.414062 22.738281 C 9.457031 22.738281 9.492188 22.773438 9.492188 22.816406 C 9.492188 22.859375 9.457031 22.894531 9.414062 22.894531 Z M 9.414062 22.894531 " fill-opacity="1" fill-rule="nonzero"/><g clip-path="url(#e628e8deea)"><path fill="#000000" d="M 12.429688 19.683594 L 10.234375 19.683594 C 10.058594 19.683594 9.917969 19.828125 9.917969 20 L 9.917969 21.226562 C 9.699219 21.039062 9.402344 20.945312 9.015625 20.945312 C 8.128906 20.945312 7.691406 21.4375 7.683594 22.453125 C 7.671875 22.457031 7.664062 22.464844 7.652344 22.472656 C 7.558594 22.535156 7.503906 22.640625 7.503906 22.757812 L 7.503906 23.082031 C 7.503906 23.183594 7.542969 23.273438 7.609375 23.335938 C 7.609375 23.335938 7.613281 23.335938 7.613281 23.335938 C 7.675781 23.394531 7.757812 23.429688 7.847656 23.429688 L 7.867188 23.429688 L 7.867188 23.691406 C 7.867188 23.792969 7.941406 23.875 8.042969 23.886719 L 8.121094 24 C 8.128906 24.011719 8.144531 24.019531 8.15625 24.019531 L 8.78125 24.019531 L 8.78125 24.101562 L 8.53125 24.101562 C 8.523438 24.101562 8.519531 24.105469 8.515625 24.105469 C 8.515625 24.105469 8.511719 24.105469 8.511719 24.109375 C 8.507812 24.109375 8.503906 24.113281 8.5 24.117188 C 8.5 24.117188 8.5 24.117188 8.496094 24.121094 L 7.925781 24.863281 C 7.914062 24.882812 7.917969 24.90625 7.933594 24.921875 C 7.953125 24.9375 7.980469 24.933594 7.992188 24.914062 L 8.523438 24.222656 L 8.882812 24.90625 C 8.890625 24.921875 8.902344 24.929688 8.917969 24.929688 C 8.925781 24.929688 8.933594 24.929688 8.9375 24.925781 C 8.957031 24.914062 8.964844 24.890625 8.957031 24.867188 L 8.601562 24.1875 L 9.433594 24.1875 L 9.078125 24.867188 C 9.066406 24.890625 9.074219 24.914062 9.09375 24.925781 C 9.101562 24.929688 9.105469 24.929688 9.113281 24.929688 C 9.128906 24.929688 9.144531 24.921875 9.148438 24.90625 L 9.507812 24.222656 L 10.039062 24.914062 C 10.046875 24.925781 10.058594 24.929688 10.074219 24.929688 C 10.082031 24.929688 10.089844 24.925781 10.097656 24.921875 C 10.117188 24.90625 10.121094 24.882812 10.105469 24.863281 L 9.535156 24.121094 C 9.535156 24.117188 9.535156 24.117188 9.535156 24.117188 C 9.53125 24.113281 9.527344 24.109375 9.519531 24.109375 C 9.519531 24.105469 9.519531 24.105469 9.515625 24.105469 C 9.511719 24.105469 9.507812 24.101562 9.503906 24.101562 C 9.503906 24.101562 9.503906 24.101562 9.5 24.101562 L 9.253906 24.101562 L 9.253906 24.019531 L 9.875 24.019531 C 9.890625 24.019531 9.902344 24.011719 9.910156 24 L 9.992188 23.886719 C 10.089844 23.875 10.167969 23.792969 10.167969 23.691406 L 10.167969 23.429688 L 10.183594 23.429688 C 10.273438 23.429688 10.355469 23.394531 10.417969 23.335938 C 10.417969 23.335938 10.421875 23.335938 10.421875 23.335938 C 10.488281 23.273438 10.53125 23.183594 10.53125 23.082031 L 10.53125 22.757812 C 10.53125 22.640625 10.472656 22.535156 10.382812 22.472656 C 10.378906 22.472656 10.378906 22.472656 10.378906 22.472656 C 10.371094 22.464844 10.359375 22.457031 10.347656 22.453125 C 10.347656 22.199219 10.316406 21.976562 10.261719 21.789062 L 10.5 21.789062 L 10.5 22.203125 C 10.5 22.21875 10.507812 22.234375 10.523438 22.242188 C 10.53125 22.242188 10.535156 22.246094 10.542969 22.246094 C 10.550781 22.246094 10.5625 22.242188 10.570312 22.234375 L 11.046875 21.789062 L 12.429688 21.789062 C 12.605469 21.789062 12.746094 21.644531 12.746094 21.472656 L 12.746094 20 C 12.746094 19.828125 12.605469 19.683594 12.429688 19.683594 Z M 7.585938 22.757812 C 7.585938 22.6875 7.613281 22.625 7.65625 22.578125 C 7.6875 22.65625 7.707031 22.765625 7.707031 22.886719 C 7.707031 23.046875 7.671875 23.171875 7.636719 23.238281 C 7.605469 23.195312 7.585938 23.140625 7.585938 23.082031 Z M 9.355469 21.96875 L 9.257812 21.835938 C 9.25 21.824219 9.238281 21.820312 9.226562 21.820312 L 8.808594 21.820312 C 8.792969 21.820312 8.78125 21.824219 8.773438 21.835938 L 8.675781 21.96875 L 8.066406 21.96875 C 8.03125 21.96875 7.996094 21.980469 7.96875 21.996094 C 8.023438 21.714844 8.226562 21.191406 9.015625 21.191406 C 9.804688 21.191406 10.007812 21.714844 10.0625 21.996094 C 10.035156 21.980469 10.003906 21.96875 9.96875 21.96875 Z M 9.253906 21.96875 L 8.78125 21.96875 L 8.828125 21.902344 L 9.203125 21.902344 Z M 9.167969 24.101562 L 8.863281 24.101562 L 8.863281 24.019531 L 9.167969 24.019531 Z M 9.855469 23.933594 L 8.179688 23.933594 L 8.144531 23.890625 L 9.886719 23.890625 Z M 10.082031 23.691406 C 10.082031 23.753906 10.03125 23.804688 9.96875 23.804688 L 8.066406 23.804688 C 8 23.804688 7.949219 23.753906 7.949219 23.691406 L 7.949219 22.167969 C 7.949219 22.105469 8 22.050781 8.066406 22.050781 L 9.96875 22.050781 C 10.03125 22.050781 10.082031 22.105469 10.082031 22.167969 Z M 10.449219 22.757812 L 10.449219 23.082031 C 10.449219 23.140625 10.429688 23.195312 10.394531 23.238281 C 10.359375 23.171875 10.328125 23.046875 10.328125 22.886719 C 10.328125 22.765625 10.34375 22.65625 10.375 22.578125 C 10.421875 22.625 10.449219 22.6875 10.449219 22.757812 Z M 10.289062 22.515625 C 10.296875 22.519531 10.300781 22.519531 10.304688 22.523438 C 10.265625 22.613281 10.242188 22.746094 10.242188 22.886719 C 10.242188 23.058594 10.277344 23.210938 10.335938 23.300781 C 10.292969 23.328125 10.238281 23.347656 10.183594 23.347656 L 10.167969 23.347656 L 10.167969 22.167969 C 10.167969 22.160156 10.152344 21.105469 9.015625 21.105469 C 7.878906 21.105469 7.867188 22.160156 7.867188 22.167969 L 7.867188 23.347656 L 7.847656 23.347656 C 7.792969 23.347656 7.742188 23.328125 7.699219 23.300781 C 7.753906 23.210938 7.789062 23.058594 7.789062 22.886719 C 7.789062 22.746094 7.765625 22.613281 7.726562 22.523438 C 7.730469 22.519531 7.738281 22.519531 7.742188 22.515625 C 7.757812 22.507812 7.765625 22.492188 7.765625 22.476562 C 7.765625 21.488281 8.164062 21.03125 9.015625 21.03125 C 9.625 21.03125 10 21.261719 10.164062 21.753906 C 10.164062 21.757812 10.167969 21.757812 10.167969 21.761719 C 10.234375 21.957031 10.265625 22.195312 10.265625 22.476562 C 10.265625 22.492188 10.273438 22.507812 10.289062 22.515625 Z M 12.664062 21.472656 C 12.664062 21.601562 12.558594 21.707031 12.429688 21.707031 L 11.03125 21.707031 C 11.019531 21.707031 11.007812 21.710938 11 21.714844 L 10.582031 22.105469 L 10.582031 21.746094 C 10.582031 21.722656 10.5625 21.707031 10.542969 21.707031 L 10.234375 21.707031 C 10.179688 21.546875 10.101562 21.414062 10 21.304688 L 10 20 C 10 19.871094 10.105469 19.765625 10.234375 19.765625 L 12.429688 19.765625 C 12.558594 19.765625 12.664062 19.871094 12.664062 20 Z M 12.664062 21.472656 " fill-opacity="1" fill-rule="nonzero"/></g><g clip-path="url(#0a8e7288b0)"><path fill="#000000" d="M 12.472656 22.265625 L 10.898438 22.265625 C 10.746094 22.265625 10.625 22.386719 10.625 22.539062 L 10.625 23.074219 C 10.625 23.226562 10.746094 23.347656 10.898438 23.347656 L 12.089844 23.347656 L 12.378906 23.636719 C 12.386719 23.644531 12.398438 23.648438 12.410156 23.648438 C 12.414062 23.648438 12.421875 23.648438 12.425781 23.648438 C 12.441406 23.640625 12.453125 23.625 12.453125 23.609375 L 12.453125 23.347656 L 12.472656 23.347656 C 12.625 23.347656 12.746094 23.226562 12.746094 23.074219 L 12.746094 22.539062 C 12.746094 22.386719 12.625 22.265625 12.472656 22.265625 Z M 12.664062 23.074219 C 12.664062 23.179688 12.578125 23.265625 12.472656 23.265625 L 12.410156 23.265625 C 12.386719 23.265625 12.367188 23.285156 12.367188 23.304688 L 12.367188 23.507812 L 12.136719 23.277344 C 12.128906 23.269531 12.117188 23.265625 12.109375 23.265625 L 10.898438 23.265625 C 10.792969 23.265625 10.707031 23.179688 10.707031 23.074219 L 10.707031 22.539062 C 10.707031 22.433594 10.792969 22.347656 10.898438 22.347656 L 12.472656 22.347656 C 12.578125 22.347656 12.664062 22.433594 12.664062 22.539062 Z M 12.664062 23.074219 " fill-opacity="1" fill-rule="nonzero"/></g><g clip-path="url(#9f09d7e4ff)"><path fill="#000000" d="M 11.9375 23.445312 L 10.503906 23.445312 C 10.367188 23.445312 10.253906 23.558594 10.253906 23.695312 L 10.253906 24.222656 C 10.253906 24.359375 10.367188 24.472656 10.503906 24.472656 L 10.558594 24.472656 L 10.558594 24.886719 C 10.558594 24.90625 10.570312 24.921875 10.585938 24.925781 C 10.589844 24.929688 10.597656 24.929688 10.601562 24.929688 C 10.613281 24.929688 10.625 24.925781 10.632812 24.914062 L 10.992188 24.472656 L 11.9375 24.472656 C 12.074219 24.472656 12.1875 24.359375 12.1875 24.222656 L 12.1875 23.695312 C 12.1875 23.558594 12.074219 23.445312 11.9375 23.445312 Z M 12.105469 24.222656 C 12.105469 24.3125 12.03125 24.386719 11.9375 24.386719 L 10.972656 24.386719 C 10.960938 24.386719 10.949219 24.394531 10.941406 24.402344 L 10.644531 24.769531 L 10.644531 24.429688 C 10.644531 24.40625 10.625 24.386719 10.601562 24.386719 L 10.503906 24.386719 C 10.414062 24.386719 10.339844 24.3125 10.339844 24.222656 L 10.339844 23.695312 C 10.339844 23.605469 10.414062 23.527344 10.503906 23.527344 L 11.9375 23.527344 C 12.03125 23.527344 12.105469 23.605469 12.105469 23.695312 Z M 12.105469 24.222656 " fill-opacity="1" fill-rule="nonzero"/></g><g clip-path="url(#21edf7c05d)"><path fill="#74ba9c" d="M 71.171875 9.03125 C 70.125 5.109375 65.210938 1.585938 59.859375 1.113281 C 47.550781 0.0234375 19.574219 0.242188 13.484375 1.214844 C 10.1875 1.742188 3.585938 3.1875 2.671875 14.367188 C 1.980469 22.765625 1.214844 42.996094 2.667969 54.742188 C 3.5625 61.96875 7.984375 64.210938 10.707031 64.742188 C 14.128906 65.410156 17.65625 65.4375 21.117188 65.664062 C 21.414062 70.621094 19.636719 73.769531 18.140625 74.988281 C 23.65625 74.214844 27.703125 69.253906 28.71875 66.109375 C 36.035156 66.476562 53.824219 66.421875 61.75 64.898438 C 70.585938 63.199219 71.648438 58.109375 72.050781 54.347656 C 72.898438 46.445312 73.957031 19.433594 71.171875 9.03125 Z M 71.171875 9.03125 " fill-opacity="1" fill-rule="nonzero"/></g><path fill="#2d323f" d="M 63.671875 31.546875 C 63.605469 30.898438 63.40625 30.289062 63.082031 29.722656 C 62.699219 29.121094 62.160156 28.734375 61.46875 28.5625 C 61.394531 28.539062 61.304688 28.519531 61.21875 28.496094 C 60.996094 26.210938 60.699219 23.929688 60.074219 21.71875 C 59.574219 19.957031 58.886719 18.113281 57.464844 16.878906 C 55.941406 15.570312 53.949219 15.15625 52.035156 14.808594 C 49.644531 14.382812 47.242188 14.078125 44.824219 13.894531 C 42.566406 13.71875 40.296875 13.617188 38.023438 13.59375 C 38.003906 12.917969 37.976562 12.238281 37.953125 11.5625 C 37.929688 10.886719 37.6875 9.925781 37.144531 10.042969 C 36.695312 10.335938 36.523438 11.839844 36.496094 13.59375 C 34.253906 13.609375 32.007812 13.703125 29.765625 13.886719 C 27.671875 14.042969 25.59375 14.320312 23.53125 14.71875 C 21.519531 15.125 19.484375 15.742188 17.894531 17.097656 C 16.734375 18.089844 15.96875 19.484375 15.445312 20.894531 C 14.679688 22.964844 14.386719 25.207031 14.21875 27.398438 C 14.199219 27.664062 14.183594 27.929688 14.164062 28.199219 C 12.574219 28.582031 11.785156 29.34375 11.296875 30.378906 C 10.953125 31.175781 10.746094 32.003906 10.683594 32.867188 C 10.558594 35.121094 10.617188 37.671875 11.304688 39.765625 C 11.816406 41.328125 13 42.433594 14.898438 42.847656 C 15.023438 45.007812 15.34375 47.140625 15.859375 49.242188 C 16.207031 50.546875 16.75 51.703125 17.796875 52.601562 C 19.058594 53.679688 20.679688 54.179688 22.285156 54.515625 C 23.789062 54.820312 25.308594 55.007812 26.84375 55.074219 C 26.859375 55.296875 26.90625 55.507812 26.984375 55.710938 C 27.105469 55.988281 27.316406 56.15625 27.617188 56.210938 C 28.132812 56.3125 29.882812 56.511719 30.972656 56.167969 C 31.121094 56.132812 31.257812 56.0625 31.378906 55.964844 C 31.5 55.835938 31.582031 55.6875 31.628906 55.515625 C 31.71875 55.105469 31.753906 54.691406 31.730469 54.273438 C 31.695312 53.917969 31.628906 53.652344 31.339844 53.472656 C 31.121094 53.359375 30.890625 53.304688 30.644531 53.308594 C 29.832031 53.257812 29.015625 53.234375 28.203125 53.230469 C 27.96875 53.214844 27.738281 53.242188 27.515625 53.3125 C 27.121094 53.503906 26.902344 53.816406 26.859375 54.25 C 25.621094 54.195312 24.390625 54.058594 23.171875 53.847656 C 21.660156 53.578125 20.039062 53.207031 18.765625 52.308594 C 17.660156 51.523438 17.074219 50.46875 16.71875 49.195312 C 16.378906 47.898438 16.136719 46.582031 15.996094 45.25 C 15.902344 44.503906 15.828125 43.757812 15.765625 42.996094 C 16.203125 43.039062 16.640625 43.054688 17.082031 43.039062 L 18.457031 27.984375 C 17.367188 27.910156 16.277344 27.925781 15.1875 28.039062 C 15.273438 26.15625 15.546875 24.300781 16.011719 22.476562 C 16.390625 21.085938 16.976562 19.644531 17.882812 18.574219 C 19.105469 17.117188 20.949219 16.371094 22.761719 15.941406 C 24.625 15.515625 26.507812 15.214844 28.410156 15.039062 C 31.09375 14.765625 33.796875 14.636719 36.5 14.621094 C 36.5 15.886719 36.578125 17.1875 36.652344 18.191406 L 38.191406 18.09375 C 38.148438 16.933594 38.109375 15.777344 38.066406 14.628906 C 39.613281 14.644531 41.15625 14.695312 42.699219 14.78125 C 45.089844 14.914062 47.480469 15.132812 49.847656 15.484375 C 50.949219 15.648438 52.046875 15.839844 53.136719 16.070312 C 54.054688 16.238281 54.925781 16.53125 55.757812 16.953125 C 57.21875 17.742188 58.085938 19.09375 58.640625 20.621094 C 59.460938 22.859375 59.835938 25.234375 60.097656 27.59375 C 60.125 27.84375 60.148438 28.113281 60.171875 28.375 C 59.203125 28.277344 58.234375 28.292969 57.265625 28.417969 L 55.972656 43.300781 C 57.457031 43.25 58.925781 43.082031 60.382812 42.800781 C 61.558594 42.554688 62.449219 41.417969 62.917969 40.222656 C 63.355469 38.945312 63.625 37.632812 63.730469 36.289062 C 63.84375 34.707031 63.828125 33.125 63.671875 31.546875 Z M 63.671875 31.546875 " fill-opacity="1" fill-rule="nonzero"/><path fill="#e9f4ef" d="M 57.257812 45.113281 C 56.644531 47.691406 55.378906 49.011719 53.164062 49.746094 C 46.363281 52.011719 29.59375 51.511719 23.5625 50.347656 C 21.21875 49.898438 18.707031 48.609375 17.957031 46.398438 C 16.417969 43.046875 16.269531 33.515625 16.558594 29.332031 C 16.929688 24.007812 17.636719 21.011719 21.089844 19.566406 C 23.289062 18.652344 27.714844 17.910156 29.878906 17.742188 C 36.238281 17.246094 42.589844 17.34375 48.929688 18.042969 C 51.53125 18.328125 54.34375 18.824219 56.101562 20.757812 C 57.804688 22.625 58.078125 25.351562 58.164062 27.871094 C 58.363281 34 58.1875 41.136719 57.257812 45.113281 Z M 34.800781 11.042969 C 36.109375 11.089844 38.238281 11.097656 39.71875 11.066406 C 40.167969 11.066406 40.609375 11.03125 41.050781 10.953125 C 41.65625 10.808594 41.882812 10.207031 41.9375 9.578125 C 41.988281 9.097656 41.9375 8.285156 41.441406 8.085938 C 40.285156 7.714844 36.542969 7.601562 34.210938 8.085938 C 33.808594 8.164062 33.445312 8.320312 33.109375 8.554688 C 32.695312 8.855469 32.664062 9.527344 32.78125 10.023438 C 32.988281 10.882812 33.859375 11.003906 34.800781 11.035156 Z M 34.800781 11.042969 " fill-opacity="1" fill-rule="nonzero"/><path fill="#2d323f" d="M 41.347656 38.996094 C 41.269531 39.464844 41.109375 39.90625 40.875 40.324219 C 40.636719 40.738281 40.335938 41.101562 39.972656 41.410156 C 39.609375 41.71875 39.203125 41.957031 38.753906 42.121094 C 38.304688 42.289062 37.84375 42.375 37.363281 42.378906 C 36.886719 42.382812 36.421875 42.304688 35.972656 42.144531 C 35.519531 41.984375 35.109375 41.75 34.742188 41.449219 C 34.371094 41.144531 34.066406 40.785156 33.824219 40.375 C 33.582031 39.964844 33.417969 39.523438 33.332031 39.054688 C 33.214844 38.445312 34.148438 38.1875 34.261719 38.804688 C 34.539062 40.253906 35.859375 41.4375 37.363281 41.421875 C 38.871094 41.40625 40.164062 40.199219 40.414062 38.746094 C 40.519531 38.125 41.453125 38.386719 41.347656 38.996094 Z M 28.84375 28.363281 C 28.347656 28.238281 27.847656 28.226562 27.347656 28.324219 C 26.015625 28.730469 25.472656 30.039062 25.550781 31.425781 C 25.570312 31.871094 25.734375 32.253906 26.050781 32.570312 C 26.945312 33.507812 28.609375 33.769531 29.601562 32.945312 C 29.867188 32.722656 30.085938 32.457031 30.253906 32.15625 C 30.421875 31.851562 30.53125 31.527344 30.582031 31.183594 C 30.632812 30.839844 30.621094 30.5 30.542969 30.160156 C 30.46875 29.820312 30.335938 29.507812 30.148438 29.214844 C 29.820312 28.769531 29.382812 28.484375 28.84375 28.363281 Z M 48.664062 29.230469 C 48.335938 28.777344 47.894531 28.488281 47.34375 28.367188 C 46.847656 28.246094 46.347656 28.230469 45.847656 28.328125 C 44.515625 28.738281 43.972656 30.042969 44.050781 31.429688 C 44.066406 31.875 44.234375 32.257812 44.550781 32.578125 C 45.445312 33.511719 47.109375 33.773438 48.105469 32.953125 C 48.371094 32.730469 48.585938 32.464844 48.757812 32.164062 C 48.925781 31.863281 49.035156 31.539062 49.089844 31.195312 C 49.140625 30.855469 49.128906 30.515625 49.054688 30.175781 C 48.984375 29.835938 48.855469 29.523438 48.664062 29.230469 Z M 48.664062 29.230469 " fill-opacity="1" fill-rule="nonzero"/><path fill="#f4ab9a" d="M 52.035156 39.742188 C 51.742188 40.015625 51.398438 40.199219 51.003906 40.289062 C 50.464844 40.460938 49.910156 40.535156 49.347656 40.515625 C 48.953125 40.527344 48.601562 40.414062 48.289062 40.171875 C 48.21875 40.09375 48.175781 40 48.164062 39.890625 C 48.148438 39.585938 48.214844 39.296875 48.363281 39.027344 C 48.511719 38.757812 48.722656 38.546875 48.996094 38.398438 C 49.539062 38.113281 50.121094 37.976562 50.738281 37.988281 C 51.351562 37.96875 52.101562 38.09375 52.328125 38.660156 C 52.457031 39.082031 52.359375 39.445312 52.035156 39.742188 Z M 25.683594 38.398438 C 25.140625 38.117188 24.5625 37.976562 23.953125 37.988281 C 23.335938 37.96875 22.585938 38.09375 22.363281 38.660156 C 22.230469 39.078125 22.320312 39.441406 22.640625 39.742188 C 22.9375 40.015625 23.28125 40.199219 23.675781 40.289062 C 24.214844 40.460938 24.765625 40.535156 25.332031 40.515625 C 25.726562 40.527344 26.078125 40.414062 26.390625 40.171875 C 26.460938 40.09375 26.503906 40 26.511719 39.890625 C 26.53125 39.585938 26.464844 39.296875 26.316406 39.027344 C 26.164062 38.757812 25.953125 38.546875 25.683594 38.398438 Z M 25.683594 38.398438 " fill-opacity="1" fill-rule="nonzero"/></svg>